<?xml version="1.0" encoding="utf-8"?>
<!-- Generator: Adobe Illustrator 26.4.1, SVG Export Plug-In . SVG Version: 6.00 Build 0)  -->
<svg version="1.1" id="圖層_1" xmlns="http://www.w3.org/2000/svg" xmlns:xlink="http://www.w3.org/1999/xlink" x="0px" y="0px"
	 viewBox="0 0 260.84 59.12" style="enable-background:new 0 0 260.84 59.12;" xml:space="preserve">
<style type="text/css">
	.st0{fill:#D80C18;}
	.st1{fill:#000095;}
</style>
<g>
	<g>
		<path d="M99.38,14.46c-0.32,0-0.89-0.02-1.36-0.02c-0.47,0-0.82,0.02-0.82,0.47c0,1.86,0.07,5.92,0.07,6.81
			c-0.03,0.92-0.74,1.36-1.46,1.36c-0.67,0-1.34-0.42-1.34-1.24c0-0.02,0-0.02,0-0.05c0.07-2.3,0.07-5.25,0.07-7.97
			c0-5.35,0-5.45,0.02-6.46c0.07-3.17,2.9-3.17,4.98-3.17c0.57,0,1.14,0.02,1.51,0.05c4.01,0.27,5.67,2.62,5.67,4.95
			c0,2.13-1.39,4.21-3.62,4.66c-0.17,0.05-0.25,0.07-0.25,0.15c0,0.1,0.17,0.22,0.35,0.42c1.21,1.34,1.91,2.85,2.77,4.23
			c0.62,1.01,1.19,1.49,2.03,1.58c0.84,0.1,1.29,0.77,1.29,1.46c0,0.74-0.5,1.46-1.58,1.46c-0.4,0-2.43-0.07-4.11-3.07
			C102.03,17.33,100.57,14.49,99.38,14.46z M103.91,9.26c0-1.24-0.94-2.45-3.1-2.58c-0.32-0.02-0.77-0.02-1.24-0.02
			c-1.34,0-2.23,0.07-2.3,1.24c-0.05,0.59-0.03,2.35-0.05,3.79c0,0.5,0.32,0.52,2.06,0.52c0.62,0,1.26-0.02,1.71-0.05
			C102.82,11.99,103.91,10.6,103.91,9.26z"/>
		<path d="M120.11,6.86c-2.48,0-3,0.05-3.07,1.11c-0.05,0.59-0.03,1.81-0.05,3.24c0,0.5,0.02,0.5,3.07,0.5c1.14,0,2.33,0,2.77-0.02
			c1.39-0.07,1.39,1.24,1.39,1.31c0,0.72-0.45,1.41-1.31,1.41c-0.02,0-0.07,0-0.12,0c-0.62-0.05-1.56-0.07-2.5-0.07
			c-3.07,0-3.32,0.02-3.32,0.54c0,3.69,0.02,4.26,0.07,4.68c0.12,1.14,0.52,1.19,4.01,1.19c1.46,0,3.05-0.02,3.52-0.05
			c0.05,0,0.07,0,0.12,0c0.87,0,1.34,0.62,1.34,1.26c0,0.67-0.5,1.34-1.56,1.39c-0.32,0.02-1.76,0.05-3.19,0.05
			c-1.41,0-2.85-0.03-3.17-0.05c-2.28-0.17-3.69-0.99-3.79-3.17c-0.05-1.04-0.05-2.87-0.05-4.88c0-3.02,0.03-6.39,0.07-7.95
			c0.05-1.98,1.34-3.02,3.34-3.12c0.45-0.02,1.86-0.05,3.24-0.05c1.41,0,2.77,0.02,3.14,0.05c0.94,0.05,1.39,0.67,1.39,1.31
			c0,0.67-0.52,1.34-1.46,1.34C124,6.88,121.79,6.86,120.11,6.86z"/>
		<path d="M144.75,23.13c-0.57,0-1.16-0.27-1.41-0.92c-0.3-0.72-0.94-2.7-1.71-5c-0.05-0.15-0.12-0.22-0.27-0.22
			c-0.4-0.02-1.41-0.02-2.53-0.02c-1.49,0-3.14,0-3.66,0.02c-0.12,0-0.25,0.07-0.3,0.22c-0.62,1.96-1.19,3.74-1.56,4.93
			c-0.22,0.69-0.79,1.02-1.39,1.02c-0.69,0-1.41-0.47-1.41-1.24c0-0.45,0.07-0.64,5.5-15.9c0.4-1.14,1.29-1.66,2.18-1.66
			c0.94,0,1.91,0.59,2.3,1.71c1.58,4.46,4.8,13.07,5.62,15.01c0.1,0.25,0.15,0.5,0.15,0.72C146.26,22.63,145.52,23.13,144.75,23.13z
			 M140.62,14.14c-0.77-2.33-1.51-4.58-1.91-5.79c-0.15-0.45-0.27-0.69-0.42-0.69c-0.12,0-0.27,0.22-0.45,0.72
			c-0.37,0.99-1.98,5.62-1.98,5.84c0,0.1,0.05,0.15,0.2,0.15c0.5,0,1.41,0.02,2.28,0.02c0.89,0,1.76-0.02,2.1-0.02
			c0.15,0,0.2-0.02,0.2-0.1C140.64,14.24,140.64,14.19,140.62,14.14z"/>
		<path d="M153.92,21.87c0.05-1.93,0.07-5.52,0.07-8.79c0-2.18,0-4.23-0.05-5.55c0-0.49-0.07-0.49-1.54-0.49
			c-0.94,0-2.1,0.05-3.27,0.05c-0.94,0-1.41-0.67-1.41-1.34s0.45-1.31,1.36-1.31c0.02,0,0.02,0,0.05,0
			c1.49,0.02,4.11,0.05,6.69,0.05c2.1,0,4.21-0.02,5.62-0.05c0.97-0.02,1.29,0.79,1.29,1.34c0,0.67-0.4,1.31-1.19,1.31
			c-0.05,0-0.07,0-0.1,0c-0.84-0.05-1.56-0.05-2.15-0.05c-2.45,0-2.45,0-2.45,0.49c-0.05,1.68-0.07,4.09-0.07,6.51
			c0,2.97,0.05,5.99,0.12,7.82c0.05,0.87-0.72,1.29-1.49,1.29c-0.74,0-1.49-0.42-1.49-1.26V21.87z"/>
		<path d="M170.98,21.82c0,0.87-0.74,1.31-1.49,1.31c-0.74,0-1.49-0.45-1.49-1.31v-0.03c0.05-2.97,0.12-6.29,0.12-9.48
			c0-2.35-0.05-4.61-0.12-6.61c-0.05-1.04,1.06-1.31,1.51-1.31c0.72,0,1.46,0.4,1.46,1.21c0,0.02,0,0.02,0,0.05
			c-0.05,2.06-0.07,4.38-0.07,6.79c0,3.1,0.02,6.31,0.07,9.36V21.82z"/>
		<path d="M183.79,23.18c-0.92,0-1.86-0.64-2.33-1.81c-1.24-3.14-5.18-14.44-5.18-15.58c0-0.97,0.74-1.49,1.49-1.49
			c0.62,0,1.26,0.37,1.46,1.16c0.42,1.78,3.02,10.38,4.06,13.45c0.1,0.3,0.2,0.47,0.32,0.47c0.1,0,0.22-0.15,0.35-0.54
			c0.69-2.08,3.22-10.3,4.31-13.54c0.22-0.69,0.79-0.99,1.36-0.99c0.79,0,1.58,0.57,1.58,1.41c0,0.15-0.03,0.3-0.07,0.47
			c-1.46,4.31-4.31,12.18-5.25,15.2C185.5,22.61,184.66,23.18,183.79,23.18z"/>
		<path d="M201.72,6.86c-2.48,0-3,0.05-3.07,1.11c-0.05,0.59-0.02,1.81-0.05,3.24c0,0.5,0.02,0.5,3.07,0.5c1.14,0,2.33,0,2.77-0.02
			c1.39-0.07,1.39,1.24,1.39,1.31c0,0.72-0.45,1.41-1.31,1.41c-0.03,0-0.07,0-0.12,0c-0.62-0.05-1.56-0.07-2.5-0.07
			c-3.07,0-3.32,0.02-3.32,0.54c0,3.69,0.02,4.26,0.07,4.68c0.12,1.14,0.52,1.19,4.01,1.19c1.46,0,6.02-0.02,6.49-0.05
			c0.05,0,0.07,0,0.12,0c0.87,0,1.34,0.62,1.34,1.26c0,0.67-0.5,1.34-1.56,1.39c-0.32,0.02-4.73,0.05-6.17,0.05
			c-1.41,0-2.85-0.03-3.17-0.05c-2.28-0.17-3.69-0.99-3.79-3.17c-0.05-1.04-0.05-2.87-0.05-4.88c0-3.02,0.02-6.39,0.07-7.95
			c0.05-1.98,1.34-3.02,3.34-3.12c0.45-0.02,1.86-0.05,3.24-0.05c1.41,0,0.79,0.02,1.16,0.05c0.94,0.05,1.39,0.67,1.39,1.31
			c0,0.67-0.52,1.34-1.46,1.34C203.63,6.88,203.4,6.86,201.72,6.86z"/>
		<path d="M92.3,45.35c0-0.05,0-0.07,0-0.12c0.02-1.73,0.02-3.57,0.02-5.37c0-1.51,0-3-0.05-4.43c-0.02-0.72,0.45-1.31,1.44-1.31
			c0.69,0,1.41,0.42,1.41,1.26c0,0.02,0,0.02,0,0.05c-0.02,0.97-0.05,1.93-0.05,2.9c0,2.03,0.05,4.06,0.05,6.07
			c0,0.32,0,0.62,0,0.94c0,0.02,0,0.05,0,0.07c0,3.32,2.23,4.93,4.48,4.93c2.33,0,4.73-1.76,4.73-5.13c0-2.15,0.05-4.36,0.05-6.54
			c0-1.09-0.02-2.18-0.05-3.24c-0.02-1.11,0.94-1.31,1.44-1.31c0.72,0,1.44,0.42,1.44,1.26c0,0.02,0,0.02,0,0.05
			c-0.05,2.06-0.07,3.74-0.07,5.35c0,1.41,0.02,2.8,0.05,4.36c0.12,5.4-3.84,7.97-7.48,7.97C95.99,53.1,92.3,50.52,92.3,45.35z"/>
		<path d="M116.17,52.85c-0.69,0-1.41-0.45-1.41-1.26c0-0.02,0-0.05,0-0.07c0.1-1.93,0.12-4.11,0.12-6.22
			c0-2.55-0.05-4.98-0.05-6.71c0-3.05,0.02-4.68,4.88-4.68c0.52,0,1.01,0.02,1.39,0.05c3.91,0.25,5.72,2.9,5.72,5.57
			c0,2.75-1.91,5.55-5.37,5.89c-0.59,0.07-1.16,0.12-1.78,0.12c-0.57,0-1.16-0.05-1.81-0.2c-0.07-0.02-0.12-0.02-0.17-0.02
			c-0.12,0-0.15,0.07-0.15,0.27c0,1.53,0.07,3.29,0.07,4.93c0,0.32,0,0.64,0,0.97C117.58,52.43,116.89,52.85,116.17,52.85z
			 M119.66,36.51c-1.98,0-2.2,0.27-2.2,2.58c0,0.87,0.02,1.88,0.02,2.75c0,0.15,0,0.27,0,0.42c0,0.52,0.5,0.69,2.03,0.69
			c0.47,0,0.99-0.03,1.51-0.07c1.88-0.17,3.02-1.88,3.02-3.47c0-1.49-0.97-2.87-3.19-2.87C120.85,36.53,120.26,36.51,119.66,36.51z"
			/>
		<path d="M134.54,52.85c-0.69,0-1.41-0.45-1.41-1.26c0-0.02,0-0.05,0-0.07c0.1-1.93,0.12-4.11,0.12-6.22
			c0-2.55-0.05-4.98-0.05-6.71c0-3.05,0.02-4.68,4.88-4.68c0.52,0,1.02,0.02,1.39,0.05c3.91,0.25,5.72,2.9,5.72,5.57
			c0,2.75-1.91,5.55-5.37,5.89c-0.59,0.07-1.16,0.12-1.78,0.12c-0.57,0-1.16-0.05-1.81-0.2c-0.07-0.02-0.12-0.02-0.17-0.02
			c-0.12,0-0.15,0.07-0.15,0.27c0,1.53,0.07,3.29,0.07,4.93c0,0.32,0,0.64,0,0.97C135.95,52.43,135.26,52.85,134.54,52.85z
			 M138.03,36.51c-1.98,0-2.2,0.27-2.2,2.58c0,0.87,0.02,1.88,0.02,2.75c0,0.15,0,0.27,0,0.42c0,0.52,0.5,0.69,2.03,0.69
			c0.47,0,0.99-0.03,1.51-0.07c1.88-0.17,3.02-1.88,3.02-3.47c0-1.49-0.97-2.87-3.19-2.87C139.22,36.53,138.62,36.51,138.03,36.51z"
			/>
		<path d="M150.95,43.52c0-5.57,4.09-9.61,9.53-9.61c5.45,0,9.56,4.04,9.56,9.61c0,5.77-4.11,9.61-9.56,9.61
			C155.04,53.12,150.95,49.29,150.95,43.52z M167.12,43.52c0-4.28-2.97-7.06-6.64-7.06c-3.66,0-6.64,2.77-6.64,7.06
			c0,4.26,2.97,7.01,6.64,7.01C164.15,50.52,167.12,47.77,167.12,43.52z"/>
		<path d="M181.85,44.18c-0.32,0-0.89-0.02-1.36-0.02c-0.47,0-0.82,0.02-0.82,0.47c0,1.86,0.07,5.92,0.07,6.81
			c-0.03,0.92-0.74,1.36-1.46,1.36c-0.67,0-1.34-0.42-1.34-1.24c0-0.02,0-0.02,0-0.05c0.07-2.3,0.07-5.25,0.07-7.97
			c0-5.35,0-5.45,0.02-6.46c0.07-3.17,2.9-3.17,4.98-3.17c0.57,0,1.14,0.02,1.51,0.05c4.01,0.27,5.67,2.62,5.67,4.95
			c0,2.13-1.39,4.21-3.62,4.66c-0.17,0.05-0.25,0.07-0.25,0.15c0,0.1,0.17,0.22,0.35,0.42c1.21,1.34,1.91,2.85,2.77,4.23
			c0.62,1.01,1.19,1.49,2.03,1.58c0.84,0.1,1.29,0.77,1.29,1.46c0,0.74-0.5,1.46-1.58,1.46c-0.4,0-2.43-0.07-4.11-3.07
			C184.5,47.06,183.04,44.21,181.85,44.18z M186.38,38.98c0-1.24-0.94-2.45-3.1-2.58c-0.32-0.02-0.77-0.02-1.24-0.02
			c-1.34,0-2.23,0.07-2.3,1.24c-0.05,0.59-0.03,2.35-0.05,3.79c0,0.5,0.32,0.52,2.06,0.52c0.62,0,1.26-0.02,1.71-0.05
			C185.29,41.71,186.38,40.32,186.38,38.98z"/>
		<path d="M201.34,51.59c0.05-1.93,0.07-5.52,0.07-8.79c0-2.18,0-4.23-0.05-5.55c0-0.49-0.07-0.49-1.54-0.49
			c-0.94,0-2.1,0.05-3.27,0.05c-0.94,0-1.41-0.67-1.41-1.34c0-0.67,0.45-1.31,1.36-1.31c0.02,0,0.02,0,0.05,0
			c1.49,0.02,4.11,0.05,6.69,0.05c2.11,0,4.21-0.02,5.62-0.05c0.97-0.02,1.29,0.79,1.29,1.34c0,0.67-0.4,1.31-1.19,1.31
			c-0.05,0-0.07,0-0.1,0c-0.84-0.05-1.56-0.05-2.15-0.05c-2.45,0-2.45,0-2.45,0.49c-0.05,1.68-0.07,4.09-0.07,6.51
			c0,2.97,0.05,5.99,0.12,7.82c0.05,0.87-0.72,1.29-1.49,1.29c-0.74,0-1.49-0.42-1.49-1.26V51.59z"/>
		<path d="M219.94,41.86c0.03,0,0.05,0,0.07-0.02c0.92-0.79,2.08-1.29,3.44-1.29c3.42,0,5.99,2.48,5.99,6.22
			c0,3.62-2.58,6.22-5.99,6.22c-1.36,0-2.53-0.52-3.44-1.31c-0.05-0.03-0.1-0.07-0.12-0.07c-0.05,0-0.07,0.05-0.07,0.15
			c0,2.72,0.05,5.08,0.07,6.09c0.03,0.77-0.5,1.29-1.26,1.29c-0.67,0-1.31-0.45-1.31-1.29c0-0.05,0-0.07,0-0.12
			c0.07-0.89,0.07-2.75,0.07-4.93c0-3.74-0.05-8.39-0.05-10.75c0-0.92,0.64-1.39,1.29-1.39c0.57,0,1.14,0.4,1.24,1.14
			C219.89,41.83,219.91,41.86,219.94,41.86z M226.97,46.76c0-2.43-1.58-3.91-3.57-3.91c-1.98,0-3.57,1.49-3.57,3.91
			c0,2.45,1.58,3.96,3.57,3.96C225.39,50.72,226.97,49.21,226.97,46.76z"/>
		<path d="M233.29,51.71c0-0.02,0-0.02,0-0.05c0.07-2.35,0.1-3.99,0.1-5.45c0-1.49-0.03-2.77-0.07-4.43c0-0.03,0-0.03,0-0.05
			c0-0.74,0.72-1.11,1.34-1.11c0.62,0,1.26,0.37,1.26,1.16c0,0.1-0.02,0.17-0.02,0.25c0,0.05,0,0.07,0,0.1c0,0.05,0,0.07,0.02,0.07
			c0,0,0.05-0.02,0.1-0.1c0.99-1.09,2.33-1.51,3.17-1.51c0.77,0,1.21,0.57,1.21,1.19c0,0.62-0.45,1.26-1.41,1.36
			c-1.46,0.15-3.1,1.36-3.17,2.92c-0.02,0.45-0.02,0.97-0.02,1.63c0,0.97,0.02,2.2,0.07,3.96c0.03,0.52-0.27,1.26-1.26,1.26
			C233.93,52.93,233.29,52.5,233.29,51.71z"/>
		<path d="M242.64,46.76c0-3.62,2.7-6.26,6.24-6.26c3.54,0,6.22,2.65,6.22,6.26c0,3.74-2.68,6.27-6.22,6.27
			C245.34,53.02,242.64,50.5,242.64,46.76z M252.6,46.76c0-2.45-1.68-3.99-3.71-3.99c-2.03,0-3.74,1.54-3.74,3.99
			c0,2.43,1.68,3.94,3.74,3.94C250.94,50.7,252.6,49.19,252.6,46.76z"/>
		<path d="M259.08,52.9c-0.67,0-1.73-0.3-1.73-1.73c0-1.21,1.04-1.68,1.73-1.68c0.82,0,1.76,0.59,1.76,1.66
			C260.84,51.79,260.32,52.9,259.08,52.9z"/>
		<path d="M87.43,17.8c-0.45,0-0.87,0.17-1.21,0.64c-1.02,1.36-2.87,2.08-4.75,2.08c-5.23,0-6.44-4.66-6.44-6.74
			c0-3.34,2.23-6.91,6.41-6.91c0.2,0,0.41,0.01,0.61,0.03c0.67,0.07,1.2,0.66,1.16,1.34c-0.02,0.33,0.03,0.68,0.17,1.05
			c0.31,0.82,1.02,1.47,1.88,1.65c1.71,0.37,3.23-0.93,3.23-2.57c0-0.67-0.25-1.27-0.66-1.73c-0.01-0.01-0.01-0.02-0.02-0.02
			c-0.04-0.04-0.07-0.09-0.11-0.12c-1-1.16-3.17-2.34-6.01-2.34c-6.04,0-9.58,4.78-9.58,9.81c0,4.83,3.32,9.41,9.48,9.41
			c4.56,0,7.5-2.7,7.5-3.99C89.09,18.55,88.27,17.8,87.43,17.8z"/>
		<path d="M82.07,42c-0.64-0.35-1.46-0.75-2.25-1.14c-0.69-0.34-1.36-0.67-1.87-0.94c-1.07-0.56-1.69-1.42-1.69-2.37
			c0-1.14,0.95-2.29,2.77-2.29c1.3,0,2.33,0.41,3.07,1.23c0.35,0.4,0.78,0.62,1.2,0.62c0.76,0,1.43-0.69,1.43-1.48
			c0-1.2-2.02-2.93-5.68-2.93c-3.71,0-5.65,2.5-5.65,4.97c0,1.99,1.25,3.75,3.35,4.71c1.36,0.62,2.72,1.37,3.99,2.09
			c1.27,0.71,2.03,1.83,2.03,3c0,0.99-0.75,2.87-3.59,2.87c-0.17,0-0.33-0.01-0.5-0.02c-0.61-0.05-1.02-0.58-0.97-1.19
			c0.03-0.35-0.02-0.73-0.16-1.11c-0.31-0.82-1.02-1.47-1.88-1.65c-1.71-0.37-3.23,0.93-3.23,2.57c0,0.94,0.54,1.69,1.23,2.22
			c1.13,0.89,2.88,1.9,5.48,1.9c4.31,0,6.63-2.93,6.63-5.68C85.79,45.23,84.47,43.32,82.07,42z"/>
	</g>
	<g>
		<g>
			<path class="st0" d="M59.29,23.11l-0.85-0.85c0.41-2.56,0.05-5.01-1.08-7.36c-1.13-2.35-4.33-5.39-9.59-9.14
				c-2.89-1.52-5.78-3.01-8.66-4.48c-3.97-0.57-7.97-1-11.99-1.28c-3.66,0.71-7.17,1.73-10.52,3.06c-3.77,1.85-6.86,4.31-9.28,7.39
				c-1.91,2.56-3.46,5.26-4.64,8.1c-1.15,2.9-1.85,5.86-2.1,8.9L0,31.1c0.25,3.16,0.92,6.21,2.03,9.03
				c1.17,2.82,3.01,5.42,5.65,7.73c2.58,2.26,5.34,4.12,8.35,5.53c3.01,1.47,6.14,2.43,9.52,2.99l1.17-1.07h0.86l0.55-0.17
				c1.72,0.06,3.5,0.11,5.28,0.23c2.76-0.39,5.4-1.02,7.92-1.81l1.04-1.07c2.46-1.81,5.03-3.39,7.68-4.8
				c1.35-0.9,2.64-1.92,3.81-2.99c1.11-1.52,1.96-3.16,2.64-4.85c0.17-0.43,0.33-0.86,0.48-1.29c0.24-0.33,0.47-0.67,0.7-1.01
				c0.05-1.42,0.44-2.8,1.16-4.12c0.21-1.52,0.31-3.06,0.31-4.62C59.08,26.9,59.13,25,59.29,23.11z M16.78,12.96
				c0.44-1.1,2.36-2.57,5.76-4.41l-2.67,2.3C17.36,13.35,16.33,14.06,16.78,12.96z M45.32,39.61l-2.75,2.38
				c-3.78,1.07-6.97,2.14-9.55,3.18c-2.59,1.05-6.16,1.24-10.72,0.58c-2.34-0.41-4.51-1.23-6.51-2.45c-0.83-0.46-1.17-1.07-1-1.84
				c-0.22-0.61-0.64-0.97-1.25-1.07c-0.17-0.72-0.56-1.38-1.17-1.99c-0.06-0.92-0.42-1.76-1.08-2.53c-0.45-3.37-0.67-6.77-0.67-10.2
				c0.56-2.66,1.42-5.24,2.59-7.75l0.5,0.69c3.1-5.75,7.83-9.18,14.19-10.31l0.56,0.38l0.79-0.55l1.72,0.37l2.12-0.91
				c3.18-0.24,5.83,0.49,8.01,2.13c3.78,3.35,6.42,7.12,7.95,11.38c0.03,0.07,0.05,0.14,0.07,0.21
				C50.13,27.68,48.87,33.79,45.32,39.61z"/>
			<g>
				<path class="st1" d="M56.77,31.47c0.12-0.04,0.24-0.09,0.36-0.13c-0.13,0-0.26-0.01-0.38-0.01
					C56.76,31.38,56.77,31.43,56.77,31.47z"/>
				<path class="st1" d="M41.32,53.55l0.4-0.41c-0.14-0.14-0.29-0.29-0.43-0.43c-0.12-0.12-0.24-0.23-0.14-0.42
					c0.32,0,0.64-0.01,1.03-0.01c0.06,0.06,0.14,0.12,0.21,0.18c0.16-0.12,0.33-0.23,0.49-0.35c-0.41-0.42-0.82-0.84-1.23-1.26
					c-0.11-0.12-0.31-0.24-0.16-0.52c0.25,0.2,0.49,0.37,0.7,0.57c0.35,0.31,0.7,0.63,1.05,0.95c2.19-1.55,4.47-2.93,6.8-4.18
					c0.28-0.18,0.55-0.38,0.82-0.57c-0.63-0.59-1.27-1.17-1.89-1.77c-1.51-1.43-2.97-2.9-4.48-4.33c-0.13-0.12-0.26-0.24-0.39-0.36
					l-1.54,1.33c-3.78,1.07-6.97,2.14-9.55,3.18c-2.59,1.05-6.16,1.24-10.72,0.58c-2.34-0.41-4.51-1.23-6.51-2.45
					c-0.05-0.03-0.09-0.05-0.13-0.08c2.08,2.07,4.14,4.15,6.27,6.17c2.06,1.95,4.16,3.85,6.26,5.76c1.7,0.06,3.46,0.11,5.22,0.22
					C36.16,54.97,38.8,54.34,41.32,53.55z M40.93,49.88c0.05,0,0.12,0.05,0.13,0.09c0.01,0.03-0.04,0.09-0.08,0.17
					c-0.06-0.06-0.12-0.12-0.18-0.17C40.85,49.95,40.89,49.88,40.93,49.88z"/>
				<polygon class="st1" points="52.83,29.7 52.83,29.75 52.89,29.75 				"/>
				<path class="st1" d="M51.18,28.12c-0.24-0.3-0.5-0.58-0.77-0.85c-0.04-0.04-0.12-0.04-0.22-0.08
					C50.38,27.67,50.86,27.81,51.18,28.12z"/>
				<polygon class="st1" points="50.83,20.31 50.76,20.28 50.8,20.35 				"/>
				<path class="st1" d="M26.31,55.67c-0.4-0.37-0.81-0.73-1.19-1.11c-0.28-0.28-0.53-0.58-0.79-0.88
					c-0.28-0.32-0.54-0.66-0.81-0.98c-0.08-0.09-0.24-0.17-0.25-0.27c-0.05-0.35-0.33-0.45-0.55-0.64
					c-0.53-0.46-1.27-0.73-1.43-1.53c-0.02-0.08-0.11-0.16-0.19-0.22c-0.49-0.44-0.94-0.94-1.48-1.28
					c-0.82-0.52-1.43-1.24-2.11-1.89c-0.21-0.2-0.46-0.36-0.67-0.57c-0.38-0.38-0.8-0.72-1.03-1.24c-0.34-0.76-0.95-1.32-1.43-1.98
					c-0.64-0.19-0.87-0.73-1.12-1.27c-0.14-0.29-0.39-0.53-0.59-0.79c-0.13-0.17-0.27-0.25-0.5-0.26c-0.53-0.04-0.9-0.32-1.12-0.82
					c-0.14-0.33-0.33-0.66-0.57-0.91C10.08,38.62,9.8,38.06,9.1,38c-0.43-0.03-0.72-0.42-0.81-0.78c-0.17-0.66-0.45-1.14-1.13-1.34
					c-0.1-0.03-0.12-0.22,0.07-0.35c0.14,0.09,0.32,0.16,0.46,0.28c2.16,1.89,4.31,3.79,6.35,5.8c0.29,0.28,0.57,0.57,0.85,0.85
					c-0.15-0.3-0.19-0.64-0.11-1.01c-0.22-0.61-0.64-0.97-1.25-1.07c-0.17-0.72-0.56-1.38-1.17-1.99c-0.06-0.92-0.42-1.76-1.08-2.53
					c-0.45-3.37-0.67-6.77-0.67-10.2c0.56-2.66,1.42-5.24,2.59-7.75l0.5,0.69c3.1-5.75,7.83-9.18,14.19-10.31l0.56,0.38l0.79-0.55
					l1.72,0.37l2.12-0.91c3.18-0.24,5.83,0.49,8.01,2.13c3.78,3.35,6.42,7.12,7.95,11.38c0.03,0.07,0.05,0.14,0.07,0.21
					c0.25,1.53,0.36,3.05,0.34,4.55c0.4,0.06,0.71,0.24,0.91,0.65c0.09,0.19,0.3,0.34,0.48,0.48c0.41,0.33,0.84,0.63,1.23,0.97
					c0.25,0.21,0.57,0.44,0.65,0.73c0.15,0.53,0.58,0.68,0.94,0.93c0.28,0.19,0.59,0.27,0.91,0.01c0.1-0.08,0.32-0.07,0.46-0.03
					c0.28,0.09,0.57,0.19,0.79,0.37c0.21,0.17,0.37,0.31,0.67,0.29c0.34-0.02,0.53,0.19,0.58,0.54c0.03,0.18,0.09,0.36,0.15,0.54
					c-0.03,0.01-0.05,0.02-0.08,0.03c0.03,0,0.06,0,0.09,0c0,0,0,0,0,0c0,0,0,0,0,0l0-0.03c0.25-0.01,0.49-0.02,0.76-0.03
					c-0.04,0.21-0.07,0.35-0.11,0.57c0.23-0.11,0.39-0.18,0.59-0.28c0.16,0.27,0.32,0.54,0.49,0.82c0.07-0.71,0.12-1.42,0.15-2.14
					c-0.08-0.07-0.2-0.14-0.36-0.25c-0.41-0.25-0.84-0.24-1.26-0.13c-0.17-0.21-0.31-0.38-0.45-0.55c0.14-0.1,0.45,0,0.42-0.27
					c-0.04-0.34,0.21-0.45,0.38-0.63c0.24-0.26,0.52-0.03,0.87-0.04c-0.2-0.26-0.32-0.49-0.51-0.64c-0.45-0.37-0.92-0.71-1.38-1.06
					c-0.24,0.63-0.26,0.64-0.89,0.45c-0.16-0.05-0.32-0.08-0.48-0.12c-0.38-0.07-0.63-0.3-0.79-0.64c0.24-0.25,0.46-0.47,0.64-0.66
					c0.51,0.06,0.57,0.47,0.77,0.78c0.15-0.06,0.26-0.11,0.46-0.19c-0.18-0.22-0.35-0.37-0.46-0.56c-0.12-0.21-0.17-0.46-0.26-0.71
					c-0.16-0.05-0.32-0.13-0.48-0.13c-0.61,0-0.93-0.36-1.09-0.88c-0.83,0.04-0.83,0.04-1.3-0.88c0.22,0.15,0.38,0.25,0.53,0.36
					c0.24,0.19,0.41,0.09,0.6-0.17c-0.22-0.27-0.42-0.57-0.66-0.82c-0.25-0.26-0.56,0.06-0.84-0.03c-0.09-0.03-0.19-0.03-0.3-0.05
					c-0.17-0.22-0.35-0.45-0.52-0.69c-0.02-0.02-0.01-0.06-0.01-0.09c0.07-0.11,0.13-0.22,0.2-0.33c-0.23-0.24-0.23-0.24-0.59-0.06
					c-0.31-0.3-0.66-0.56-0.91-0.9c-0.27-0.37-0.43-0.8-0.65-1.21c-0.05-0.09-0.13-0.15-0.18-0.24c-0.12-0.19-0.3-0.38-0.34-0.59
					c-0.04-0.2,0.07-0.43,0.11-0.65c-0.83-0.88-1.64-1.75-2.46-2.6c-0.96-1-1.92-1.99-2.9-2.97c-1.28-1.28-2.56-2.57-3.89-3.8
					c-1.62-1.5-3.29-2.94-4.93-4.42c-1.3-1.17-2.6-2.36-3.89-3.55C29.9,0.22,28.51,0.1,27.11,0c-3.66,0.71-7.17,1.73-10.52,3.06
					c-3.77,1.85-6.86,4.31-9.28,7.39c-0.89,1.19-1.7,2.42-2.43,3.67c1.72,1.95,3.51,3.84,5.4,5.63c0.38,0.36,0.72,0.76,1.07,1.15
					c0.01,0.01-0.02,0.05-0.03,0.07c-0.15,0.11-0.25-0.01-0.33-0.09c-0.87-0.81-1.75-1.6-2.59-2.44c-1.02-1.03-2.01-2.09-3.01-3.14
					c-0.25-0.26-0.49-0.54-0.74-0.81c-0.07,0.12-0.13,0.23-0.19,0.35c0.14,0.16,0.28,0.32,0.42,0.48c0.17,0.19,0.35,0.37,0.52,0.55
					c-0.51-0.16-0.77-0.55-0.96-0.99c-0.66,1.2-1.26,2.42-1.78,3.67c-1.15,2.9-1.85,5.86-2.1,8.9l-0.48,3.11
					c0.43,0.38,0.86,0.77,1.28,1.18c0.28,0.27,0.53,0.58,0.84,0.81c0.42,0.32,0.76,0.72,1.06,1.13c0.35,0.48,0.73,0.93,1.14,1.35
					c0.57,0.58,1.12,1.19,1.69,1.77c0.57,0.59,1.15,1.17,1.74,1.75c0.7,0.69,1.43,1.35,2.13,2.04c0.75,0.74,1.47,1.5,2.21,2.25
					c0.46,0.47,0.88,0.97,1.39,1.39c0.64,0.52,1.09,1.21,1.71,1.75c0.74,0.64,1.33,1.45,2.04,2.12c1.1,1.04,2.27,2,3.27,3.14
					c0.09,0.1,0.21,0.16,0.31,0.24c0.55,0.46,1.13,0.9,1.64,1.4c0.63,0.6,1.17,1.29,1.86,1.83c0.31,0.24,0.76,0.34,0.77,0.86
					c0,0.07,0.12,0.15,0.21,0.2c0.17,0.1,0.31,0.22,0.45,0.35L26.31,55.67z M56.48,27.96c0.06-0.04,0.21-0.01,0.26,0.04
					c0.05,0.05,0.07,0.18,0.04,0.25c-0.04,0.12-0.13,0.21-0.18,0.28c0.14,0.27,0.26,0.51,0.38,0.76c-0.48-0.11-0.87-0.36-1.17-0.82
					C56.06,28.29,56.26,28.11,56.48,27.96z M53.62,27.72c0.41,0.13,0.78,0.33,1,0.71c0.06,0.09,0.08,0.27,0.03,0.35
					c-0.05,0.07-0.25,0.11-0.33,0.07c-0.43-0.23-0.82-0.5-0.9-1.04C53.51,27.77,53.58,27.71,53.62,27.72z M29.34,7.47
					c-0.31-0.03-0.53-0.18-0.66-0.53C29.05,6.99,29.17,7.25,29.34,7.47z M25.34,3.8c0.57,0.43,1.1,0.9,1.43,1.56
					c-0.53-0.47-1.07-0.95-1.61-1.43C25.25,3.86,25.33,3.79,25.34,3.8z M24.13,2.78c-0.49-0.32-1.06-0.57-1.34-1.21
					C23.33,1.68,23.33,1.68,24.13,2.78z M16.78,12.96c0.44-1.1,2.36-2.57,5.76-4.41l-2.67,2.3C17.36,13.35,16.33,14.06,16.78,12.96z
					 M5.38,33.87c0.41,0.27,0.74,0.53,0.97,0.94C5.83,34.88,5.57,34.64,5.38,33.87z"/>
				<path class="st1" d="M54.62,43.55c-0.13-0.4-0.35-0.74-0.66-1.05c-0.12-0.12-0.18-0.33-0.03-0.43c0.1-0.08,0.31-0.05,0.46-0.01
					c0.15,0.05,0.28,0.17,0.41,0.26c0.13,0.08,0.26,0.17,0.4,0.25c0.09-0.17,0.19-0.34,0.27-0.51c-0.17-0.17-0.33-0.33-0.5-0.5
					c-0.11-0.12-0.31-0.28-0.28-0.38c0.13-0.51-0.31-0.68-0.52-0.98c-0.09-0.12-0.15-0.26-0.24-0.42c0.28-0.21,0.52-0.38,0.79-0.58
					c-0.08-0.22-0.16-0.43-0.25-0.67c-0.49,0.17-0.94,0.33-1.44,0.51c-0.29-0.8-1.26-1.09-1.54-2.02c0.37-0.05,0.69-0.09,1-0.13
					c0.04,0.15,0.07,0.27,0.11,0.41c0.16-0.03,0.39-0.14,0.44-0.08c0.25,0.26,0.51,0.19,0.81,0.14c0.16-0.03,0.39,0.08,0.53,0.2
					c0.65,0.58,1.35,1.13,1.73,1.99c-0.25,0.09-0.5,0.15-0.72,0.27c-0.2,0.11-0.52,0.14-0.5,0.49c0.26,0.15,0.47-0.03,0.68-0.03
					c0.22,0,0.44,0.01,0.65,0.02c0.07-0.1,0.14-0.19,0.2-0.27c0.02-0.06,0.05-0.12,0.08-0.18c0.15-0.38,0.29-0.77,0.43-1.16
					c-0.1-0.01-0.19-0.06-0.26-0.14c0.15-0.42,0.28-0.8,0.41-1.16c-0.2-0.18-0.34-0.08-0.49-0.02c-0.35,0.15-0.02,0.46-0.17,0.64
					c-0.86-0.19-0.86-0.19-0.9-1.06c-0.39-0.11-0.39-0.11-0.76-0.53c0.18-0.15,0.46,0.14,0.61-0.15c0.11-0.22,0.51-0.18,0.49-0.59
					c-0.23-0.05-0.47-0.09-0.7-0.14c-0.03,0.21-0.05,0.36-0.07,0.51c-0.55-0.05-0.72-0.4-0.81-0.8c-0.03-0.14,0.06-0.21,0.19-0.29
					c0.22-0.14,0.17-0.33-0.02-0.43c-0.34-0.19-0.62,0.08-0.95,0.1c-0.32-0.37-0.66-0.72-0.51-1.32c-0.17,0.02-0.36,0.1-0.47,0.03
					c-0.39-0.23-0.81-0.51-0.87-1c-0.03-0.25-0.12-0.33-0.3-0.42c-0.12-0.06-0.22-0.14-0.34-0.2c-0.82-0.35-1.32-1.02-1.79-1.73
					c-0.01-0.02,0.01-0.06,0.06-0.23c0.34,0.14,0.71,0.19,1.07-0.01c0.1-0.06,0.33,0.04,0.45,0.13c0.35,0.25,0.67,0.53,1,0.8
					c0.19,0.15,0.39,0.3,0.58,0.46c-0.07-0.29-0.22-0.49-0.4-0.68c-0.56-0.6-1.13-1.2-1.7-1.79c-0.3-0.31-0.61-0.62-0.92-0.93
					c-0.36,4.07-1.69,8.03-4.03,11.85l-0.44,0.38c0.2,0.18,0.4,0.37,0.63,0.5c0.45,0.27,0.89,0.53,1.12,1
					c0.95-0.19,0.96-0.19,1.66,0.36c0.2,0.16,0.37,0.36,0.55,0.56c0.43,0.49,0.9,0.95,1.47,1.29c0.28-0.12,0.54-0.23,0.85-0.36
					c0.13,0.24,0.21,0.45,0.34,0.63c0.17,0.25,0.37,0.44,0.74,0.34c0.15-0.04,0.35,0.09,0.52,0.15c-0.05,0.25-0.09,0.43-0.12,0.54
					c0.11,0.18,0.25,0.32,0.39,0.42c0.28-0.24,0.55-0.48,0.82-0.72C54.12,44.32,54.38,43.94,54.62,43.55z M51,35.84
					c-0.02-0.07,0.02-0.21,0.07-0.24c0.07-0.04,0.19-0.01,0.27,0.03c0.08,0.04,0.13,0.14,0.26,0.28c-0.2,0.05-0.3,0.11-0.39,0.09
					C51.14,35.99,51.03,35.92,51,35.84z"/>
			</g>
		</g>
		<g>
			<path class="st0" d="M20.9,3.43c0.34,0.22,0.69,0.49,1.15,0.43c0.44-0.05,0.75,0.08,1.03,0.32c0.09,0.08,0.22,0.13,0.33,0.19
				c0.26-0.2,0.5-0.38,0.73-0.55c0.16,0.04,0.31,0.04,0.42,0.11c0.15,0.09,0.28,0.22,0.42,0.34c0.7,0.56,1.4,1.12,2.11,1.66
				c0.16,0.12,0.36,0.22,0.56,0.25c0.16,0.03,0.37-0.06,0.56-0.09c0.03-0.07,0.05-0.14,0.08-0.21c-0.32-0.34-0.61-0.71-0.96-1
				c-1.24-1.03-2.5-2.04-3.77-3.04c-0.34-0.26-0.69-0.51-1.04-0.75c-1.18,0.33-2.35,0.68-3.49,1.08C19.67,2.56,20.28,3.01,20.9,3.43
				z"/>
			<path class="st0" d="M8.23,17.53c0.21,0.15,0.41,0.33,0.67,0.38c0.36,0.07,0.62,0.26,0.9,0.44c0.85,0.55,1.58,1.25,2.46,1.75
				c0.29-0.74,0.6-1.47,0.94-2.2l0.5,0.69c0.49-0.9,1.01-1.73,1.58-2.52c-0.49-0.47-0.98-0.93-1.54-1.32
				c-0.57-0.39-1.06-0.89-1.59-1.33c-0.14-0.12-0.28-0.23-0.42-0.34c-0.45-0.38-0.95-0.69-1.35-1.13c-0.39-0.43-0.96-0.67-1.45-1
				c-0.12-0.08-0.3-0.12-0.17-0.39c0.22-0.15,0.31,0.01,0.43,0.09c0.92,0.66,1.83,1.32,2.75,1.98c1.06,0.76,2.14,1.51,3.21,2.26
				c0.12,0.09,0.23,0.19,0.38,0.32c0.15-0.13,0.29-0.24,0.4-0.34c0-0.1,0.01-0.15,0-0.16c-0.77-0.72-1.49-1.48-2.31-2.13
				c-1.24-0.99-2.55-1.9-3.97-2.94c0.31-0.04,0.44-0.1,0.53-0.06c0.17,0.07,0.31,0.17,0.46,0.28c0.48,0.34,0.95,0.7,1.45,1.02
				c0.52,0.33,1.06,0.62,1.59,0.95c0.35,0.21,0.68,0.45,1.02,0.68c0.68,0.46,1.35,0.94,2.05,1.37c0.08,0.05,0.17,0.1,0.26,0.14
				c1-1.06,2.1-1.98,3.29-2.77c-0.14-0.12-0.28-0.24-0.42-0.36c-2.49,2.49-3.51,3.19-3.07,2.09c0.28-0.69,1.14-1.52,2.58-2.5
				c-0.2-0.17-0.4-0.33-0.6-0.49c-1.73-1.36-3.53-2.64-5.28-3.98C13.2,5.78,12.91,5.6,12.63,5.4c-2.04,1.44-3.81,3.13-5.33,5.05
				c-1.82,2.44-3.31,5.02-4.47,7.72c0.31,0.13,0.62,0.28,0.97,0.44c0.29-0.5,0.67-0.76,1.09-0.97c0.34-0.54,0.8-0.19,1.16-0.54
				c0.06-0.23,0.11-0.44,0.15-0.64c0.4-0.18,0.6,0,0.8,0.14C7.42,16.91,7.82,17.24,8.23,17.53z"/>
			<path class="st0" d="M14.44,5.04c0-0.02,0.02-0.06,0.01-0.07c-0.04-0.02-0.08-0.03-0.13-0.05c0,0.02-0.02,0.06-0.01,0.06
				C14.35,5.01,14.4,5.03,14.44,5.04z"/>
			<polygon class="st0" points="15.77,4.63 15.71,4.61 15.72,4.66 			"/>
			<path class="st0" d="M18.51,3.19C18.24,2.97,18,2.78,17.78,2.6c-0.06,0.02-0.12,0.05-0.19,0.07C17.9,2.85,18.2,3.02,18.51,3.19z"
				/>
			<path class="st0" d="M9.34,32.6c0.23,0.28,0.43,0.6,0.69,0.84c0.35,0.32,0.72,0.62,1.08,0.93c-0.09-0.82-0.17-1.64-0.24-2.46
				c-0.06-0.05-0.13-0.1-0.19-0.15c-0.21-0.18-0.45-0.31-0.8-0.28C9.69,31.87,9.53,32.21,9.34,32.6z"/>
		</g>
	</g>
</g>
</svg>
