<?xml version="1.0" encoding="utf-8"?>
<!-- Generator: Adobe Illustrator 26.4.1, SVG Export Plug-In . SVG Version: 6.00 Build 0)  -->
<svg version="1.1" id="圖層_1" xmlns="http://www.w3.org/2000/svg" xmlns:xlink="http://www.w3.org/1999/xlink" x="0px" y="0px"
	 viewBox="0 0 350.64 384.48" style="enable-background:new 0 0 350.64 384.48;" xml:space="preserve">
<style type="text/css">
	.st0{fill:#CCCCCC;}
	.st1{fill:#DD121D;}
	.st2{fill:#666666;}
</style>
<g>
	<g>
		<path class="st0" d="M29.38,369.69v-0.02l0.09-0.04l-0.11-0.13l-0.52-0.92l-0.09-0.05l-0.08-0.02l-0.08-0.01l-0.08,0.02l-0.2,0.16
			l-0.11,0.23l-0.03,0.2l0.09,0.09l0.22,0.08l0.86,0.5L29.38,369.69z M25.52,373.28l-0.06,0.26l0.02,0.28l0.16,0.49l0.42-0.34
			l0.18-0.5l-0.14-0.33L25.52,373.28z M22.27,368.26l0.21-0.08l0.06-0.08l-0.08-0.14l-0.14-0.09l-0.14-0.04l-0.13,0.01L22.04,368
			l0.1,0.19L22.27,368.26z M28.98,366.33l-0.03,0.1l0.02,0.07l0.04,0.03l0.01,0.17l0.11,0.11l0.17,0.11l0.19,0.05l0.21-0.06
			l0.14-0.11v-0.02l-0.06-0.05l-0.02-0.08l-0.21-0.15l-0.22-0.35l-0.05-0.17l-0.09-0.07l-0.08,0.02l0.06,0.16l-0.16,0.16
			L28.98,366.33z M23.15,377.45l0.08,0.18l0.15,0.14h0.24l0.06-0.25l-0.09-0.22l-0.04-0.07l-0.09-0.01l-0.04-0.04l-0.06-0.02
			l-0.13,0.09L23.15,377.45z M16.31,383.84L16,383.83l-0.14-0.02l-0.06,0.25l0.17,0.18l0.16,0.09l0.17,0.16l-0.02-0.18l0.01-0.13
			l-0.02-0.08l0.04-0.08L16.31,383.84z M206.5,261.66l-0.23-0.35l-0.36-0.19l-0.33-0.18l-0.18-0.14l-0.52,0.61l-0.02,0.88l0.39,0.8
			l0.72,0.35l0.39,0.01l0.2-0.04l0.08-0.25l0.01-0.56l-0.04-0.5L206.5,261.66z M213.73,298.25l-0.48-0.16l-0.41-0.26l-0.44-0.31
			l-0.31,0.1l-0.21,0.26l0.07,0.33l0.61,0.85l0.21,0.48l0.29,0.24l0.34,0.16l0.27,0.01l0.18-0.16l0.45-0.63l0.15-0.27l-0.28-0.42
			L213.73,298.25z M207.87,276.11l-0.54,0.44l-0.14,0.71l0.36,0.55l0.52-0.04l0.5-0.46l0.26-0.71l-0.35-0.52L207.87,276.11z
			 M203.56,269.35l-0.22,0.26l-0.17,0.16l-0.09,0.16l-0.2,0.79l-0.01,0.27l0.26,0.42l0.3-0.32l0.24-0.69l0.1-0.69v0.06l0.01-0.09
			v-0.05l-0.02-0.36L203.56,269.35z M203.76,269.51v-0.01l-0.01-0.06L203.76,269.51z M212.2,312.85l0.33,0.25l-0.32-0.64
			L212.2,312.85z M203.69,286.41v-0.01l-0.06-0.01L203.69,286.41z M209.64,281.07l-0.18-0.14l-0.31,0.02l-0.24,0.34l0.04,0.4
			l0.24,0.18l0.3,0.05l0.23-0.09l0.11-0.2l0.01-0.14l-0.12-0.3L209.64,281.07z M201.12,273.32l-0.27-0.09l-0.2,0.1l-0.1,0.38
			l0.01,0.06v0.11l-0.04,0.16l-0.12,0.22l-0.02,0.13l0.16,0.08l0.24-0.07l0.27-0.35l0.19-0.06l0.11-0.11l-0.08-0.39L201.12,273.32z
			 M203.04,266.85l0.23,0.3l0.26-0.25l-0.21-0.24L203.04,266.85z M203.65,268.01l-0.09-0.04l-0.07,0.05l0.05,0.09L203.65,268.01z
			 M202.03,271.09l-0.06,0.04v0.06l-0.03,0.08l-0.15,0.13v0.15l0.13-0.06l0.15,0.06l0.21-0.17l-0.15-0.24L202.03,271.09z
			 M210.78,297.78l-0.1,0.05l0.08,0.27l0.11,0.13l0.23,0.02l-0.15-0.37L210.78,297.78z M15.74,300.65l0.12-0.17l-0.12-0.1
			l-0.04,0.03l-0.06,0.06l-0.12-0.01l-0.04,0.14l0.05,0.06H15.74z M15.71,302.66l0.08-0.06l0.05-0.12l-0.2,0.07L15.71,302.66z
			 M23.35,303.27l-0.12,0.1l0.01,0.13l0.17-0.06L23.35,303.27z M6.3,305.03l-0.11-0.02l-0.03,0.11l0.05,0.07L6.3,305.03z
			 M26.59,307.48l0.12,0.17l0.1-0.04l-0.1-0.19l-0.14-0.2l-0.24-0.14l0.1,0.23l0.06,0.01l0.04,0.07v0.04L26.59,307.48z
			 M26.28,308.49l0.01-0.25l-0.17-0.08l-0.07,0.12l0.11,0.11l0.06,0.15L26.28,308.49z M8.97,309.58l0.01,0.07l0.25,0.08l0.04-0.11
			l-0.15-0.13L8.97,309.58z M10.17,310.39l0.18,0.1h0.06l0.01-0.27l-0.09,0.02L10.17,310.39z M26.83,310.63l0.07-0.1l0.01-0.1
			l-0.01-0.04l-0.15-0.04l-0.09,0.04l-0.04,0.42l0.11-0.13L26.83,310.63z M38.53,314.7l0.09,0.03l0.04-0.08l0.1-0.05l0.08-0.12
			l-0.03-0.08l-0.12-0.02l0.02-0.12l-0.16-0.16L38.48,314l-0.09,0.15l0.08,0.28h0.07v0.08L38.53,314.7z M31.48,318.83l0.05-0.01
			l-0.03-0.05l-0.16-0.19l-0.12,0.08l-0.1,0.2V319v0.09l0.01,0.15l0.09,0.01l0.19-0.25l0.22,0.34l0.01-0.11l0.01-0.06l-0.05-0.23
			L31.48,318.83z M1.15,321.91l0.17-0.35l-0.21,0.03l-0.16-0.03l-0.08,0.18l-0.11,0.06l0.09,0.08l0.17-0.04L1.15,321.91z
			 M0.13,322.58L0,322.6l0.04,0.08l0.05,0.06l-0.03,0.12l-0.05,0.08l0.05,0.11l0.05-0.09l0.1,0.02l-0.05-0.16l0.09-0.28L0.13,322.58
			z M57.09,332.76l-0.07-0.05l-0.09,0.42l0.22,0.27l-0.05-0.37L57.09,332.76z M33.95,336.65l-0.09-0.02l-0.1,0.12v0.09l0.05,0.05
			l0.08-0.07L33.95,336.65z M20.65,340.14H20.5l-0.02,0.1l-0.02,0.05l0.02,0.05l-0.01,0.08l-0.07,0.01l-0.09,0.15l0.02,0.11
			l0.15-0.08l0.11-0.07l-0.04-0.07v-0.09L20.65,340.14z M243.03,28.65l0.25-0.32l-0.18-0.17l-0.18,0.04l-0.11,0.08l-0.21,0.05
			l0.1,0.26L243.03,28.65z M241.1,28.44l-0.05,0.11l-0.09,0.09l-0.17,0.12L240.76,29h0.2l0.35-0.13l0.24-0.38l-0.16-0.18v-0.13
			L241.1,28.44z M208.44,158.77l0.14-0.07l-0.11-0.16l-0.19,0.03l-0.12,0.17v0.06l-0.01,0.09l0.18,0.17l0.02-0.03l-0.02-0.04
			l0.04-0.13L208.44,158.77z M247.04,167.02h-0.08l-0.06-0.08l0.01-0.18l0.05-0.1l0.08-0.18l-0.01-0.18l-0.08-0.09l-0.18,0.07
			l-0.14,0.04l-0.15,0.11l0.05,0.14l0.06,0.07l-0.06,0.05l0.02,0.17l0.09,0.1l0.12,0.33l0.16,0.1l0.09-0.12l0.1-0.13l-0.03-0.07
			L247.04,167.02z M202.24,176.76h0.04l0.25-0.21l0.11-0.05l0.08-0.16l0.15-0.27l0.05-0.2l0.02-0.18l-0.01-0.19l-0.12,0.03
			l-0.02,0.09l-0.11,0.05l-0.07,0.11l-0.1,0.2l-0.09,0.08l-0.02,0.05l-0.14,0.1l0.04,0.11l-0.02,0.14l-0.09,0.12l-0.03,0.07
			l0.01,0.1H202.24z M237.6,179l-0.1,0.12l-0.07,0.05l0.14,0.21l0.08-0.02l0.06-0.27l-0.02-0.21L237.6,179z M246.12,179.89
			l-0.15-0.06l-0.14-0.07l-0.09-0.06l-0.1,0.08l-0.19,0.25l0.24,0.42l0.3,0.3l0.15-0.2l-0.02-0.11l-0.02-0.12l0.08-0.24
			L246.12,179.89z M243.07,179.73l-0.2,0.18l0.02,0.1l-0.05,0.15l0.09,0.19l0.3-0.22l-0.1-0.19L243.07,179.73z M244.57,181.08
			l-0.12-0.07l-0.04-0.12l-0.05-0.13l-0.1-0.12l-0.02-0.09l-0.23-0.14l-0.08,0.06l-0.06-0.02l-0.03,0.07l-0.06,0.14v0.1l0.09,0.04
			l0.08,0.04l0.12,0.17l0.14,0.19h0.19l0.14,0.1h0.03v-0.06l-0.03-0.05L244.57,181.08z M201.26,255.18l-0.11,0.07l0.02,0.04
			l0.14,0.05L201.26,255.18z M115.17,263.29l-0.04-0.07l-0.16,0.05l-0.1,0.06l-0.13,0.05l-0.11,0.09l0.07,0.02l0.01,0.1l0.13,0.04
			l0.11,0.07l0.11,0.08l0.1,0.08h0.09l0.06-0.16l-0.02-0.08l0.04-0.05l-0.02-0.2l-0.12,0.04l-0.08,0.02l-0.02,0.08l-0.02-0.08
			l0.05-0.06L115.17,263.29z M115.94,263.93l0.18-0.12l-0.01-0.18l-0.19-0.11l-0.08-0.04l-0.08,0.04l-0.06,0.06l-0.01,0.15
			l0.07,0.11l0.13,0.19L115.94,263.93z M113.71,263.97v0.11l-0.02,0.09l0.17,0.09l0.22-0.19l0.08,0.05l0.05-0.03l0.01,0.08
			l-0.08,0.05l-0.06,0.08l0.14-0.05l0.18-0.04l0.05-0.09l-0.03-0.12l-0.08-0.04l0.01-0.1l-0.01-0.16l-0.08-0.11l-0.08,0.11
			l-0.02,0.09h-0.07l-0.03-0.07l-0.05,0.04l-0.02,0.09l-0.05-0.07l-0.06-0.04l-0.09-0.02l0.01,0.14l-0.05,0.05L113.71,263.97z
			 M54.78,267.28l0.07-0.07l-0.05-0.1l-0.04-0.03l-0.09,0.02l-0.14-0.16l0.02,0.51L54.78,267.28z M57.18,267.43l-0.09-0.21
			l-0.01-0.12l-0.23,0.21l0.1,0.33L57.18,267.43z M105.57,267.63l0.02-0.24l-0.07-0.13l-0.2,0.18l0.03,0.17l0.16,0.34L105.57,267.63
			z M106.4,269.1l-0.08-0.19l-0.12,0.16v0.24h0.04L106.4,269.1z M100.9,269.29l0.13-0.14l-0.04-0.07l-0.15-0.01l-0.08-0.07
			l-0.09-0.02l0.01,0.08l0.08,0.18L100.9,269.29z M99.01,269.44l-0.15,0.07l-0.14-0.05l0.11,0.25l0.04,0.18l0.04,0.04l0.07,0.15
			l0.1-0.19l0.05-0.06l0.06-0.1l-0.01-0.07l-0.07,0.01l0.02-0.17L99.01,269.44z M106.07,269.61l-0.09,0.16l-0.08,0.4l0.18-0.25
			l0.09-0.03l0.04-0.15l0.02-0.2l-0.1-0.06L106.07,269.61z M96.84,269.88h0.06l0.03-0.03l-0.02-0.08l-0.17-0.07h-0.17l-0.04,0.1
			l-0.15,0.03l-0.01,0.04l-0.04,0.01l-0.04-0.05l-0.13,0.12l0.24,0.25l0.19,0.18l0.1,0.07l0.22-0.03l0.06-0.1l-0.01-0.15l-0.04,0.02
			l-0.05,0.02l-0.05-0.04l-0.09,0.01l0.01-0.17L96.84,269.88z M100.57,269.71l0.04,0.25l0.06,0.16l-0.02,0.12l0.02,0.14l0.1,0.01
			l0.14-0.11l0.13-0.16l0.11-0.03l0.03-0.05l0.13-0.05l0.01-0.07l-0.08-0.15l-0.09-0.02l-0.15-0.09l-0.07,0.1l-0.11,0.07l-0.03,0.04
			h-0.09l-0.05-0.07L100.57,269.71z M46.62,270.86l0.11-0.12l0.17-0.05l0.09-0.04l0.18-0.22l-0.06-0.08l-0.07-0.01l-0.02-0.06
			l-0.12-0.07l0.06,0.2l-0.14,0.1l-0.16,0.14l-0.28,0.07l0.18,0.26L46.62,270.86z M97.43,270.71l0.11-0.13l-0.02-0.07l-0.16,0.03
			l-0.24,0.15l0.12,0.18l0.11-0.07L97.43,270.71z M94.75,271.09l0.11,0.02l0.16-0.02l-0.06-0.13l-0.18-0.16l-0.19,0.02l-0.08,0.06
			l0.1,0.17l0.06-0.03L94.75,271.09z M76.26,271.41l-0.11-0.09l-0.12,0.08l-0.01,0.12l-0.03,0.08l-0.13,0.17l-0.1,0.05l0.04,0.07
			h0.11l0.13,0.07l0.06-0.04l0.13,0.04l-0.02-0.1l0.08-0.2L76.26,271.41z M98.88,271.35l0.08,0.24l0.1,0.18l0.08,0.06l0.13-0.24
			l-0.23-0.19L98.88,271.35z M124.41,272.07l0.07-0.01l0.06,0.05l0.28-0.1l0.04-0.05l-0.24-0.01L124.41,272.07z M124.09,272.14
			l-0.19,0.17l-0.08-0.06l-0.04,0.07l0.01,0.12l0.16,0.04h0.02l0.08-0.08l0.05-0.1l0.05-0.03l0.01-0.09l0.05-0.05l-0.01-0.04
			L124.09,272.14z M98.08,272.69l0.02,0.17l0.04,0.05l0.05-0.06l0.11-0.12l0.17-0.1l0.04-0.06l0.26,0.01l-0.04-0.11l0.02-0.02
			l0.04-0.05v-0.05l-0.24,0.08l-0.15,0.09l-0.1-0.27l-0.11-0.02l-0.01,0.17l0.06,0.09l-0.09,0.09L98.08,272.69z M32.81,273.04
			l-0.05,0.25l0.16-0.17L32.81,273.04z M89.67,273.11l-0.11-0.02l-0.16,0.05l-0.04,0.03l0.02,0.23l0.29-0.04L89.67,273.11z
			 M80.47,274.07l-0.18,0.12l-0.26,0.24l-0.02,0.19l0.03,0.2l0.13-0.08l0.09,0.01l0.05,0.09h0.03l0.11-0.08l0.08-0.01l0.01-0.1
			l0.14-0.2l-0.09-0.23L80.47,274.07z M91.67,274.5l0.05-0.09l-0.06-0.09l-0.02-0.1l-0.04-0.06l-0.07,0.02l-0.06,0.07v0.08
			l0.15,0.21L91.67,274.5z M73.45,274.23v0.2l0.11-0.02l0.09,0.1l0.24-0.15l-0.07-0.11l-0.17-0.06L73.45,274.23z M82.86,274.74
			l-0.36-0.33l-0.18,0.45l0.23,0.15L82.86,274.74z M92.54,274.57l-0.16-0.03l-0.11,0.01l0.16,0.25l0.23-0.05L92.54,274.57z
			 M120.4,274.67l0.01,0.12l-0.07,0.08l-0.08,0.06l-0.01,0.13l0.1,0.12l0.01-0.03l0.09-0.03l0.07-0.07l0.06-0.31l-0.14-0.13
			L120.4,274.67z M75.51,274.83l-0.26-0.15l-0.16,0.09l0.04,0.36l0.07,0.14l0.17,0.1l0.35-0.3l-0.09-0.26L75.51,274.83z
			 M96.46,275.56l-0.15,0.07l0.15,0.24l0.2-0.16l-0.08-0.03L96.46,275.56z M45.38,276.37l0.17,0.06l0.05,0.1l0.02-0.26l-0.02-0.09
			l-0.07-0.01l-0.2-0.08l-0.13-0.07l0.05,0.27L45.38,276.37z M77.87,277.56l0.1-0.26l-0.08-0.32l-0.07,0.1l-0.06,0.12l-0.05,0.14
			l0.04,0.18L77.87,277.56z M62.45,277.97v0.22l-0.13,0.17l-0.08,0.09l0.08,0.04l0.13,0.14l0.1,0.05l0.08,0.12l0.15,0.11l0.07,0.17
			l0.18-0.18l-0.24-0.12l-0.19-0.25l0.01-0.26l-0.04-0.25l0.08-0.16L62.45,277.97z M75.46,278.12l0.11,0.16l0.33,0.09l0.02-0.08
			l-0.05-0.12l-0.1-0.12l-0.18-0.1L75.46,278.12z M72.84,278.58l0.05,0.09l0.14,0.03L73,278.62l-0.11-0.25L72.84,278.58z
			 M44.13,278.62l-0.05-0.15l-0.07,0.17l0.12,0.03L44.13,278.62z M93.32,278.46l-0.1,0.04l-0.15,0.12l0.05,0.11l0.14,0.09l0.07,0.01
			l0.07-0.08l0.06-0.02l-0.05-0.17v-0.12L93.32,278.46z M78.49,278.85l-0.19-0.08l-0.27,0.07l-0.1,0.04l0.02,0.18l0.07,0.09
			l-0.07,0.13l-0.01,0.09l0.08,0.13l0.09-0.13l0.12-0.18l0.05-0.08l0.06-0.13L78.49,278.85z M77.15,279.35l0.04,0.06l0.05-0.07
			l0.13-0.04l0.03-0.1l0.14-0.04l0.08-0.16l0.11-0.12l-0.1-0.02l-0.08-0.03l-0.05,0.03l-0.09,0.02l-0.12,0.08l-0.08,0.1l0.03,0.19
			l-0.06,0.02L77.15,279.35z M64.51,279.6l-0.12,0.15v0.2l0.18,0.11l0.05,0.04l0.01,0.14l0.05-0.05l0.16-0.04l0.1-0.03l0.23-0.27
			l0.19-0.09l0.06-0.24l0.17-0.19l0.12,0.01l-0.02-0.09l-0.14-0.22l-0.1,0.03l-0.05-0.19l-0.04,0.11l-0.07,0.12l-0.03,0.09
			l-0.06,0.06l-0.14,0.08l0.08,0.06l0.04,0.17l-0.02,0.1l-0.13-0.07l-0.15,0.03l0.01,0.16l-0.13,0.01l-0.1-0.04l-0.06-0.09
			l0.04-0.07L64.51,279.6z M46.94,279.12L46.88,279l-0.07,0.32l0.05-0.03L46.94,279.12z M80.39,279.24l-0.1-0.05l-0.1,0.12
			l-0.09,0.3l0.1,0.1l0.15-0.12l0.08,0.01l0.07-0.03l-0.02-0.07v-0.14L80.39,279.24z M74.28,279.68l-0.01,0.1l0.05,0.02l0.24,0.2
			l0.04-0.03l-0.01-0.26l-0.09-0.21l-0.12,0.04L74.28,279.68z M78.3,280.05L78.24,280l-0.15,0.05l-0.08,0.04l-0.25-0.02l-0.08-0.01
			l-0.08,0.06l-0.02,0.07l0.13,0.07l0.11,0.03l0.34-0.13L78.3,280.05z M80.79,280.36h-0.11l-0.06,0.14l-0.04,0.12h-0.08h-0.11
			l-0.04-0.01l-0.11,0.1l-0.11,0.22l0.15-0.12l0.09,0.07l-0.02,0.26l-0.01,0.2l-0.02,0.11l0.09,0.1l0.07-0.01l0.12-0.1l0.12,0.04
			l0.08-0.03l0.02-0.08l-0.11-0.05l-0.04-0.08l-0.1-0.13l0.1-0.28l0.23-0.05v-0.27l0.06-0.11l0.05-0.14l-0.11,0.02l-0.06-0.01
			L80.79,280.36z M40.01,280.87l0.23,0.1l-0.06-0.18l-0.09-0.1l-0.02-0.11l-0.22-0.03l0.1,0.21L40.01,280.87z M69.29,281.58
			l-0.07-0.11l-0.01-0.12l-0.07-0.09l-0.11,0.11l0.05,0.18l0.1,0.13L69.29,281.58z M68.39,281.9l-0.03-0.16l-0.04-0.04l-0.01-0.1
			l-0.09-0.01l-0.02,0.24l-0.1-0.02l-0.13-0.01l0.05,0.11l0.37,0.1V281.9z M120.23,281.95l-0.07-0.02l-0.02,0.11l0.03,0.19l0.1-0.04
			l0.08-0.09l0.05-0.09l0.01-0.19l-0.09,0.01L120.23,281.95z M77.67,281.94l0.1,0.02l0.1,0.19l0.05-0.15l-0.19-0.15L77.67,281.94z
			 M37.61,284l0.09-0.02l0.15,0.03v-0.06l-0.18-0.12l-0.18-0.02l0.03,0.3L37.61,284z M70.38,284.84l0.06,0.19l0.41-0.33l-0.14-0.26
			l0.09-0.17l-0.01-0.09l-0.07-0.08l0.11-0.19l-0.09-0.01l-0.04,0.1l-0.05,0.1l-0.04,0.07l-0.05,0.07l-0.01,0.16l0.07,0.04
			l-0.08,0.21L70.38,284.84z M23.99,284.53l0.15,0.02l-0.01-0.08l0.04-0.1l-0.05-0.05l-0.06-0.07l-0.19,0.1l0.03,0.23L23.99,284.53z
			 M76.9,284.44l-0.07,0.15l0.12-0.04l0.12-0.03l0.07-0.04l0.01-0.05l-0.07-0.02h-0.14L76.9,284.44z M36.63,287.08l-0.23-0.4
			l-0.09,0.4l-0.06,0.17l0.13,0.14L36.63,287.08z M28.16,287.8l0.14-0.08l0.01-0.04v-0.1l-0.03-0.02l-0.06-0.03l-0.03-0.1l0.03-0.06
			l0.02-0.25l-0.15,0.01l-0.01,0.12l-0.03,0.08L28,287.39l-0.02,0.04l0.02,0.04l-0.02,0.07L28.16,287.8z M26.3,288.34l0.05-0.01
			l0.04-0.05l0.06-0.07l0.08-0.07l-0.14-0.24l-0.24,0.05l-0.09-0.05l-0.08,0.04l-0.02,0.12l0.08,0.12l0.13,0.07L26.3,288.34z
			 M28.51,288.77l0.25-0.2l0.01-0.1l-0.13-0.18l-0.11,0.03l-0.09,0.1v0.14l0.01,0.19L28.51,288.77z M30.15,289.04l0.07,0.13
			l0.16-0.11v-0.28l-0.25,0.12l0.05,0.01L30.15,289.04z M25.72,290.63l-0.2-0.08l0.21,0.31L25.72,290.63z M21.91,291.22l0.08-0.07
			l0.06,0.02l0.05-0.01l0.06-0.02l0.02-0.05l0.03-0.06h0.14l-0.09-0.09l-0.14-0.05l-0.02-0.08l-0.1-0.02l-0.03,0.1l-0.12,0.18
			l-0.21,0.07l-0.01,0.28h0.11l0.01-0.12L21.91,291.22z M24.95,291.79l-0.06-0.38l-0.01,0.07l0.03,0.08l0.01,0.01l-0.04,0.1
			L24.95,291.79z M74.34,292.4l0.04-0.35l-0.11,0.18L74.34,292.4z M74.63,292.7l0.08-0.09l-0.08-0.15l-0.12-0.02l-0.14,0.05
			l0.21,0.11L74.63,292.7z M66.85,294.61l0.05,0.06l0.14,0.13l0.16-0.09l0.02-0.1l-0.19-0.02l-0.14-0.01L66.85,294.61z
			 M76.63,295.04l-0.05,0.09l0.15,0.03l0.06-0.14l0.06-0.13l-0.08-0.1l-0.09-0.06l0.03,0.14l-0.01,0.06L76.63,295.04z M74.97,295.93
			L74.95,296l-0.06,0.05l-0.04,0.02l-0.11,0.1l-0.19,0.09l-0.11-0.05l-0.1,0.07h0.11l0.08,0.08l0.02,0.05l0.02,0.1l0.01,0.1
			l0.08,0.06l0.08-0.05l-0.06-0.12l0.01-0.08v-0.05l0.1-0.05l0.1-0.06l0.16-0.06l-0.03-0.24L74.97,295.93z M14.5,297.24l0.19,0.09
			l0.1-0.65l0.09-0.06l-0.09-0.08l-0.04-0.07l-0.12-0.2l-0.19-0.16l-0.04,0.33l0.02,0.52l0.05,0.07v0.08L14.5,297.24z M12.7,296.25
			l-0.07-0.15l-0.14,0.05l-0.01,0.26l0.15,0.02L12.7,296.25z M23.24,296.76v-0.21l-0.13-0.03l-0.08,0.07l-0.08,0.17l0.03,0.09
			l0.14,0.11l0.03,0.09l-0.14,0.11l0.02,0.1l0.19-0.19v-0.19l-0.08-0.13l0.05-0.04L23.24,296.76z M73.69,297.33l0.01-0.12
			l-0.11,0.07l-0.14-0.01l-0.08-0.09l0.06-0.12h0.02h0.02l-0.02-0.11l-0.06-0.06l-0.07,0.06l-0.11-0.02l-0.05,0.04l-0.14-0.02
			l-0.09-0.1l-0.08,0.1l0.05,0.17l0.3-0.01l0.08,0.09l0.04,0.15l0.03,0.05l0.16,0.05l0.27,0.12l0.03-0.04l-0.11-0.07L73.69,297.33z
			 M10.41,297.15l-0.07-0.17l-0.04,0.07l0.03,0.1H10.41z M67.67,297.22l0.13-0.16l-0.01-0.06l-0.15,0.1L67.67,297.22z M22.26,297.8
			l0.15,0.03v-0.27l-0.1-0.11l-0.11,0.03l-0.13,0.01l-0.07,0.09l-0.15,0.04l-0.09,0.03l-0.15,0.01l-0.05,0.06l0.18,0.07l0.16,0.02
			l0.17,0.11L22.26,297.8z M24.87,297.69l-0.15-0.03l-0.01,0.09l0.03,0.05l0.11,0.04L24.87,297.69z M75.71,298.31l-0.11,0.19
			l0.04,0.08l0.08-0.2l0.1-0.02L75.71,298.31z M68.04,298.64l0.01,0.02l0.21-0.17l-0.12-0.14l-0.1,0.1V298.64z M73.95,298.58
			l0.23-0.19l-0.29,0.04L73.95,298.58z M18.49,300.62l0.09,0.09l0.18,0.1l0.04-0.48l-0.18,0.06L18.49,300.62z M17.04,300.41
			l-0.08-0.05l-0.16,0.13l-0.01-0.17l-0.09,0.07l-0.18,0.15l-0.07,0.13l-0.09,0.15l0.02,0.08l0.19-0.03l0.06,0.02l0.03,0.01
			l-0.05,0.1l0.07,0.06l0.11-0.06l0.1-0.09l0.08-0.16l-0.06-0.1l0.08-0.17L17.04,300.41z M66.39,300.95l-0.02,0.2l0.04,0.08
			l0.08-0.01l0.07,0.02l0.15-0.18l0.29-0.12l-0.13-0.09l-0.15-0.01l0.02-0.03l0.05-0.13l0.1-0.12l0.05-0.09l-0.1-0.02h-0.13
			l-0.07,0.05l-0.04,0.07l-0.05,0.11l-0.04,0.11l0.02,0.08l-0.08,0.03L66.39,300.95z M69.47,301.54l-0.01-0.14l-0.18,0.15
			l-0.12,0.12l0.07,0.03l0.09,0.18l0.12-0.14l0.05-0.09l-0.01-0.04V301.54z M76.14,302.07l-0.02,0.05l0.17,0.02l0.25-0.1l-0.07-0.12
			L76.14,302.07z M23.84,302.39v-0.2l-0.18-0.08l-0.08-0.05l-0.06,0.02l-0.05-0.01v0.04v0.03v0.04l-0.04-0.04l-0.04,0.04l0.01,0.02
			l-0.08-0.07l0.01-0.14v-0.04l-0.05,0.04l-0.04,0.02l-0.04,0.12l0.15,0.42l0.29,0.11L23.84,302.39z M11.26,302.92l0.07-0.27
			l-0.1-0.09l-0.08-0.08l-0.13,0.01l-0.07,0.08v0.12l0.05,0.09L11.26,302.92z M76.95,305.32l0.14-0.04l0.06,0.02l0.1-0.07l0.04-0.09
			l-0.26-0.04L76.95,305.32z M11.81,306.11l-0.22,0.11l-0.02,0.21l0.09-0.04l0.13,0.04l0.08,0.02l0.04,0.04l0.07-0.01l0.03-0.05
			l-0.03-0.08l0.06-0.11l0.2,0.06l0.13-0.04l-0.01-0.06l-0.04-0.13l0.02-0.15l-0.04-0.22l-0.07-0.22l-0.15-0.07l-0.08,0.08
			l-0.04,0.23l0.03,0.27l-0.07,0.12H11.81z M66.47,305.72l-0.12-0.01l-0.01,0.18l0.15,0.03l0.11-0.08L66.47,305.72z M77.04,306.54
			l-0.01,0.14l0.03,0.01l0.07-0.07l0.05-0.1l-0.03-0.03L77.04,306.54z M4.82,306.91l-0.03-0.15l0.18-0.04l-0.15-0.18l-0.13,0.17
			l-0.11,0.27l0.16,0.23L4.82,306.91z M66.61,306.79l-0.05-0.05l-0.01,0.15l-0.01,0.15l0.11,0.08l0.04-0.04l0.03-0.1l-0.05-0.13
			L66.61,306.79z M64.73,308.09l-0.12-0.1l-0.08,0.07l-0.09,0.05l0.04,0.04l0.01,0.03l-0.03,0.09l0.07,0.08l-0.02,0.06l0.14,0.01
			l0.11-0.04l-0.06,0.04l-0.01,0.08h0.04l0.1-0.2l0.15-0.18H64.8L64.73,308.09z M39.86,310.15l0.19-0.1l0.25-0.28l-0.01-0.3
			l-0.24-0.02l-0.17-0.03l-0.16,0.06l-0.05,0.15l0.06,0.05l-0.03,0.06l0.02,0.05l-0.01,0.06l0.06,0.03l0.1-0.03l-0.01,0.14V310.15z
			 M36.77,314.7h-0.05l-0.04-0.02l-0.01,0.01l-0.04,0.03l-0.04,0.14l-0.13-0.04l-0.1,0.14l0.23,0.15l0.09-0.03l0.03,0.03l0.04,0.04
			l-0.15,0.02l0.01,0.13l0.08-0.01l0.03,0.03l0.15-0.17l0.26-0.1L37.01,315l-0.04-0.09l-0.12-0.04l-0.04,0.03l-0.02-0.06l0.01-0.08
			L36.77,314.7z M33.96,317.15l-0.05,0.11l-0.06,0.13l-0.04,0.06l-0.09,0.09l0.06,0.17l0.05,0.01l0.08,0.08l0.11-0.14l0.03-0.14
			l0.06-0.26l0.09-0.11l0.08-0.09l-0.01-0.17l-0.14,0.16L33.96,317.15z M34.55,317.6l-0.07-0.16h-0.11l0.03,0.17l-0.01,0.16
			l-0.09,0.16l0.21,0.26l0.05-0.11v0.12l0.04,0.12l0.14-0.34l-0.05-0.03l-0.01-0.08l0.03-0.08L34.55,317.6z M27.88,326.89v-0.1
			l-0.1-0.07l-0.07,0.02l-0.17,0.05l-0.1,0.2l-0.09,0.23l0.02,0.14l0.02,0.18l0.08,0.03l0.17,0.12l0.03-0.16l0.04-0.04l-0.07-0.07
			v-0.12l0.08-0.07l0.11-0.02l0.12-0.08l-0.1-0.08L27.88,326.89z M38.61,348.59l0.44,0.18l0.07-0.1l-0.09-0.16l-0.11-0.04
			l-0.18-0.12l-0.15,0.06l-0.18,0.06l-0.01,0.08l-0.15-0.03l0.06,0.11l0.13-0.05L38.61,348.59z M36.55,348.67l-0.12-0.09l-0.12,0.06
			l-0.17,0.08l-0.24,0.21l-0.12-0.04l-0.07,0.12l-0.07,0.12l-0.01,0.02l0.11,0.06l0.15,0.1l0.08,0.06l0.01-0.18l0.2,0.02l0.22-0.06
			l0.17,0.02l0.2-0.27l-0.08-0.23H36.55z M46.74,349.48l-0.11,0.12l-0.2,0.2l0.02,0.12l-0.06,0.18l-0.01,0.2h0.07l0.13,0.01
			l0.11,0.04l0.19-0.47l-0.07-0.1L46.74,349.48z M213.11,106.36l0.14-0.12l0.02-0.15h-0.05l-0.17-0.05l-0.12,0.08l-0.05,0.12
			l0.06,0.11l0.06,0.05L213.11,106.36z M52,261.6l0.15-0.03l0.15-0.07l0.08-0.11l0.01-0.16l-0.07-0.08h-0.1l-0.07-0.03v-0.07
			l0.04-0.09l-0.05-0.04l-0.23-0.03l-0.13,0.16l0.14,0.49L52,261.6z M106.59,268.31l0.13,0.02l0.35-0.47l0.04-0.21l-0.04-0.02
			l-0.13-0.02l-0.23-0.2l-0.21,0.06l-0.33,0.22l-0.16,0.02l-0.15,0.1l-0.04,0.05l0.06,0.06l0.18,0.09l0.35,0.17L106.59,268.31z
			 M105.19,268.43l-0.37-0.45l-0.1,0.04l-0.16-0.08l-0.02,0.13l0.24,0.56l0.17,0.07h0.18l0.08,0.02l0.18-0.15l0.01-0.05l-0.1-0.02
			L105.19,268.43z M18.91,272.59l0.53-0.48l0.03-0.17l-0.15-0.1l-0.12,0.05l-0.07,0.05l-0.15-0.02l-0.13,0.05l-0.07,0.1l-0.02,0.08
			l0.08,0.39L18.91,272.59z M90.88,272.54l-0.01-0.27l-0.13-0.15l-0.1,0.07l-0.1,0.05l-0.25,0.35l-0.02,0.14l0.04,0.08l0.03,0.39
			l0.13,0.01l0.05-0.14l-0.04-0.12l0.03-0.11L90.88,272.54z M87.68,273.96h0.12l0.28,0.23l0.37-0.09l0.1,0.19h0.16l0.18-0.35
			l0.18-0.15l0.05-0.08L89,273.74h-0.13l-0.09-0.02l-0.1-0.07l-0.06-0.14l-0.04-0.18l-0.1-0.07l-0.45,0.14l-0.18-0.04l-0.09,0.01
			l-0.04,0.15l0.01,0.17l-0.14,0.22L87.68,273.96z M83.54,274.34l-0.08,0.05l-0.26,0.08l-0.22,0.23l-0.07,0.2l-0.01,0.15l0.07,0.11
			l0.14,0.05l0.52-0.15l0.3-0.25l0.09-0.28l-0.18-0.13l-0.04-0.1l-0.04-0.07l-0.09,0.02l-0.08,0.05L83.54,274.34z M38.69,281.08
			l0.24-0.19l0.09-0.34l-0.23-0.05l-0.29,0.06l-0.13,0.09l0.08,0.24L38.69,281.08z M67.31,283.27l-0.34,0.27l0.09,0.14l0.15,0.09
			l0.24-0.04l0.27-0.14l0.05-0.21l-0.25-0.22L67.31,283.27z M61.84,284.9l0.22-0.18l0.06-0.11l-0.08-0.11l-0.1-0.03l-0.09-0.03
			h-0.09l-0.18,0.17l-0.21,0.06l-0.18,0.13l-0.02,0.1l0.34,0.06L61.84,284.9z M139.31,290.27l-0.5-0.03l-0.16,0.14l-0.04,0.18
			l0.08,0.02l0.1-0.01l0.17,0.07l0.16,0.2h0.05l0.44-0.25l0.05-0.09l0.05-0.11l-0.06-0.05L139.31,290.27z M25.94,291.81l0.18-0.09
			l0.07-0.1l0.08-0.01l0.05-0.04l0.03-0.12l0.08-0.1l0.09-0.02l0.2,0.05l0.17-0.03l0.01-0.08l-0.16-0.11l-0.2-0.16l-0.01-0.07
			l0.02-0.08l0.04-0.06v-0.06l-0.03-0.08l-0.06-0.07l-0.29-0.18l-0.07,0.05l-0.04,0.09l0.11,0.2l-0.01,0.05l-0.31,0.49l-0.19,0.17
			l-0.09,0.14l0.11,0.17L25.94,291.81z M20.29,291.11l-0.05-0.05l-0.12,0.11l-0.06,0.2l-0.01,0.2l-0.02,0.12l-0.16,0.35l-0.1,0.7
			l0.07,0.26l0.27,0.01l0.18-0.1l-0.04-0.64l0.05-0.24l-0.01-0.18l-0.04-0.1v-0.1l0.01-0.12l-0.02-0.12l0.08-0.2L20.29,291.11z
			 M12.98,296.53l0.04,0.03l0.06,0.15l0.09,0.07l0.11-0.07l0.07-0.1l0.31,0.06l0.26-0.01l0.02-0.08l-0.03-0.05l-0.09-0.06l-0.07-0.1
			l0.03-0.09l0.08-0.05l0.1-0.01l0.04-0.08l-0.21-0.04l-0.33,0.09l-0.09-0.01l-0.25-0.21l-0.05,0.05l-0.09,0.17l-0.08,0.01
			l-0.08,0.09l-0.07,0.12l0.08,0.1L12.98,296.53z M22.77,300.15h-0.12l-0.03,0.07l0.01,0.1l0.07,0.07l0.06,0.03l-0.01,0.06
			l-0.15,0.09l-0.05,0.07l-0.3-0.03l-0.07,0.03l0.06,0.06l0.03,0.07l0.14,0.09l0.21,0.02l0.1-0.09l0.07-0.09l0.24-0.12l0.1-0.1
			l0.05-0.14l-0.02-0.09l0.36,0.04l0.06-0.09l0.28-0.21l0.06-0.15l0.02-0.09l-0.04-0.05v-0.05l0.1-0.08l0.04-0.1l-0.11-0.02
			l-0.13,0.05l-0.27-0.06l-0.05,0.06l-0.02,0.08l-0.14,0.12l-0.26,0.49l-0.11,0.05L22.77,300.15z M39.5,309.97l-0.1,0.1l-0.04,0.08
			l0.04,0.29l0.01,0.45l0.09-0.07l0.26-0.37v-0.28l-0.12-0.24L39.5,309.97z M36.97,316.07l0.44-0.37l0.29-0.43l-0.02-0.13
			l-0.17-0.02l-0.13-0.05l-0.13,0.02l-0.2,0.2l-0.09,0.3l-0.02,0.19l-0.35,0.17l-0.09,0.02l-0.08,0.1l0.02,0.03L36.97,316.07z
			 M289.98,36.09l0.67-0.24l-0.35-0.1h-0.84l-0.28-0.16l-0.27-0.21l-0.42-0.16l-0.43-0.08h-0.35l-0.07,0.19l1.53,0.58L289.98,36.09z
			 M88.11,231.6l-0.04,0.69v0.66l0.38-0.38l0.44-0.57l0.23-0.61l-0.26-0.46l-0.52,0.16L88.11,231.6z M88.85,230.93l-0.52-0.32
			l-0.05,0.13l0.05,0.19H88.85z M72.53,283.24l-0.33-0.15l-0.33-0.01l-0.25,0.15l-0.13,0.3l0.3-0.05l0.59,0.3l0.39,0.05l0.29-0.05
			l0.02-0.08l-0.4-0.3L72.53,283.24z M299.55,41.16h-0.12l0.01,0.01L299.55,41.16z M315.04,51.28l-0.21,0.24l-0.07,0.39l0.19,0.12
			l0.26-0.12l0.12-0.3l0.15-0.19l0.71-0.19l0.23-0.14l-0.05-0.25l-0.3-0.29l-0.61-0.44l-0.46-0.2l-1.57-0.33l2.42,1.24l-0.25,0.19
			L315.04,51.28z M87.44,232.98l-0.4-0.13l-0.22,0.24l0.01,0.16l0.06,0.15l0.09,0.13l0.13,0.05l0.69-0.03l0.26,0.03l-0.23-0.29
			L87.44,232.98z M35.26,356.13l-0.35-0.32l-0.51-0.1l-0.4-0.19l-0.15-0.01l0.05,0.15l0.08,0.12l0.09,0.11l0.09,0.06l0.26,0.16
			l0.1,0.1l0.05,0.14l0.1,0.21l0.25,0.02l0.53-0.14l-0.01-0.1L35.26,356.13z M20.21,347.88l0.08-0.08l-0.05-0.08l-0.05,0.03
			L20.21,347.88z M204.56,102.91l0.53-0.27l0.14-0.22l-0.06-0.15l-0.1-0.06h-0.33l-0.13-0.06l-0.15,0.01l-0.07,0.14v0.18l0.08,0.34
			L204.56,102.91z M30.07,348.14l-0.02-0.18l-0.23-0.17l-0.12-0.09l-0.14-0.05l-0.12,0.04l-0.18,0.17l-0.15,0.07l-0.08,0.09
			l0.11,0.18l0.01,0.09l0.03,0.04l0.28,0.14h0.23l0.21-0.13L30.07,348.14z M74.3,271.81l-0.19-0.05l-0.26,0.14l-0.3,0.18l-0.23,0.29
			l-0.36,0.58l0.01,0.2l0.22,0.14l0.32-0.11l0.54-0.47l0.36-0.39l0.01-0.1L74.4,272L74.3,271.81z M84.05,273.96h0.36l0.43-0.1
			l0.21-0.19l0.04-0.25l0.17-0.43l0.07-0.51l-0.07-0.2l-0.14,0.14l-0.24,0.32l-0.2,0.15l-0.21-0.02l-0.53,0.25l-0.05,0.02l-0.15,0.1
			l-0.06,0.27l0.14,0.3L84.05,273.96z M79.53,279.65l0.26-0.25l0.01-0.21l0.04-0.1l0.08-0.1l0.02-0.13l0.04-0.25v-0.24l-0.06-0.06
			l-0.09,0.14l-0.21,0.2l-0.12,0.08l-0.08,0.03l-0.13,0.1l-0.2,0.19l-0.17,0.25l0.03,0.3l0.21,0.14L79.53,279.65z M39.23,309.37
			l-0.12-0.12l-0.18-0.09l-0.15,0.06l-0.16,0.12l-0.06,0.04l-0.01-0.09l-0.06,0.01l-0.27,0.44l0.01,0.14l0.16,0.11l0.07,0.17
			l-0.09,0.28l0.05,0.26l0.23,0.18l0.11,0.08l-0.06-0.22l0.15-0.05l0.25-0.07l0.1-0.23l0.05-0.36l-0.02-0.24l-0.11-0.14l0.06-0.13
			L39.23,309.37z M12.75,303.02l-0.07-0.19l-0.07-0.18l-0.2-0.17l-0.33-0.12l-0.14,0.02v0.07l-0.04,0.06l-0.06,0.07v0.08l0.06,0.09
			l0.02,0.14l0.09,0.14l0.11,0.11l0.02,0.1l-0.08,0.01l-0.35-0.18h-0.14l-0.01,0.19l0.07,0.35l0.03,0.04l0.08,0.06l0.07,0.11
			l0.09,0.04l0.27-0.09l0.18,0.03l0.14,0.14l0.06,0.04v0.19h0.13l0.07-0.17l0.03-0.72l-0.01-0.06L12.75,303.02z M10.17,303.93
			l0.11,0.05l0.26,0.3l0.11,0.08l0.09,0.08l0.07,0.12v0.12l-0.07,0.08l0.04,0.06l0.17,0.02l0.11,0.09l0.05,0.19h0.09l0.08-0.19
			l-0.03-0.15l-0.05-0.08l0.04-0.1l0.15-0.06l0.07-0.23l-0.05-0.47l-0.04-0.25l-0.05-0.05l-0.08-0.08l-0.06,0.09l-0.02,0.24
			l-0.09,0.1l-0.16-0.09l-0.04,0.06l0.06,0.27l-0.1-0.03l-0.28-0.33l-0.34-0.1L10,303.83l0.06,0.15L10.17,303.93z M161.85,206.86
			l-0.12-0.17l-0.26,0.1l-0.2,0.25l-0.15,0.09l-0.18,0.03l-0.18-0.13l-0.15-0.15l-0.15-0.05l-0.12,0.04l-0.14,0.1l-0.17,0.07
			l-0.17,0.01l-0.13,0.06l-0.11,0.09l-0.09-0.06l-0.08-0.17l-0.15-0.08l-0.11,0.17l0.19,0.37l0.36,0.45l0.16,0.25l0.07,0.01l0.3-0.1
			l0.18-0.01l0.24-0.15l0.34-0.12l0.34-0.02l0.3-0.13l0.14-0.18l-0.02-0.2l0.01-0.19L161.85,206.86z M99.72,270.68l0.12-0.1
			l0.14-0.1l0.1-0.17l-0.02-0.3l-0.16-0.26l-0.14-0.02l-0.06,0.13l-0.24,0.3l-0.07,0.27l0.14,0.26l0.15,0.07L99.72,270.68z
			 M81.45,274.8l0.15-0.01l0.1,0.07l0.01,0.14l0.04,0.04l0.14-0.05l0.16-0.1l0.1-0.23l-0.12-0.26l-0.3-0.18l-0.18-0.05l-0.36-0.09
			l-0.26,0.07l-0.12,0.23l0.16,0.19L81.45,274.8z M78.45,306.49l-0.08-0.07l-0.06-0.04l-0.11-0.08l-0.09,0.13l-0.08,0.26l0.01,0.27
			l0.06,0.28l0.11,0.08l0.26-0.13l0.14-0.16l0.01-0.18l-0.06-0.2L78.45,306.49z M21.58,290.33l0.17,0.02l0.08-0.02l0.04-0.1
			l0.15-0.04l0.24,0.11l0.28,0.05l0.25-0.11l0.16-0.23l-0.06-0.17l-0.33,0.04l-0.02-0.12l-0.06-0.16l-0.18-0.01l-0.32,0.21
			l-0.34,0.33L21.58,290.33z M86.25,232.52l0.25,0.04l0.17-0.23l-0.21-0.4l-0.05-0.25l0.19-0.12l0.18,0.02l0.09,0.03l0.04,0.13v0.22
			l0.06,0.1l0.14,0.1l0.17,0.05l0.16-0.03l0.2-0.14l0.02-0.14l-0.05-0.17l-0.03-0.24l0.11-0.41l0.27-0.1l0.27-0.08l0.06-0.16
			l-0.06-0.21l-0.25-0.02l-0.31,0.07l-0.34-0.13l-0.45,0.45l-0.84,0.66l-0.37,0.47l0.31,0.29L86.25,232.52z M26.93,327.45
			l-0.13-0.34l-0.13,0.44L26.5,328l-0.26,0.34l-0.4,0.14l-0.28,0.16l-0.24,0.38l-0.38,0.86l-0.15,0.21l0.01,0.27l0.14,0.24l0.26,0.1
			l0.42-0.05l0.18-0.15l0.22-0.7l0.65-1.15l0.19-0.18l0.25-0.17l-0.02-0.39L26.93,327.45z M72.21,279.68l-0.45,0.18l-0.28,0.52
			l0.12,0.54l0.28,0.49l0.15,0.44l0.19-0.11l0.09-0.08l0.09-0.11l0.14,0.17l0.21-0.09l0.33,0.11l0.24-0.02l0.06-0.16l0.06-0.23
			l0.11-0.12l0.26,0.2l0.14-0.17l0.18,0.18l0.01,0.21l-0.01,0.21l0.07,0.19l0.16,0.06l0.4-0.01l0.21,0.08l0.06-0.23l0.04-0.23
			l0.02-0.54l0.07-0.17l0.18-0.12l0.45-0.14l0.19,0.07l0.15-0.02l0.4-0.54l0.22-0.23l-0.3,0.01l-0.48-0.06l-0.22,0.05l-0.11,0.09
			l-0.05,0.24l-0.11,0.14l-0.1,0.02l-0.28-0.04l-0.11,0.02l-0.39,0.3l-0.24,0.14l-0.26,0.02l-0.52-0.75l-0.35-0.23l-0.49-0.21
			L72.21,279.68z M76.81,276.27l-0.35,0.39l0.43,0.17l1-0.03l0.43,0.23l0.27-0.1l0.2-0.53l-0.06-0.43l-0.48,0.24l-0.05-0.29
			l-0.01-0.27l-0.05-0.26L78,275.12l0.14-0.03l0.06-0.08l0.01-0.1l0.06-0.09l-0.15-0.14l-0.22-0.01l-0.24,0.06l-0.24,0.16
			l-0.18,0.24l0.24,0.57l-0.22,0.33L76.81,276.27z M86.33,273.55l-0.31,0.09l-0.11,0.1l-0.15,0.45l0.17,0.15l0.75-0.15l0.56-0.2
			l0.33-0.34l0.07-0.44l-0.2-0.69l-0.27-0.5l-0.37,0.09l-0.4,0.41l-0.35,0.45l0.17,0.01l0.14,0.08l0.09,0.15l-0.02,0.23
			L86.33,273.55z M25.26,284.58l-0.01,0.21l0.07,0.27l0.12,0.23l0.21,0.07l0.19-0.15l0.25-0.52l0.26-0.11l0.46-0.12l0.29-0.28v-0.31
			l-0.43-0.19v-0.15l0.1-0.03l0.17-0.08l0.1-0.03l-0.09-0.15l-0.11-0.12l-0.15-0.1l-0.16-0.08l0.09-0.15l0.04-0.12v-0.28l-0.17-0.3
			l-1.23-0.37v0.21l-0.02,0.11l-0.17,0.19L25,282.39l0.02,0.36L25,282.93l-0.18,0.47l0.01,0.24l0.17,0.19v0.16l-0.18-0.04l-0.2,0.02
			l-0.12,0.1v0.21l0.11,0.12L25.26,284.58z M22.91,292.44l-0.31-0.4l-0.15,0.08l-0.24,0.07v0.17l0.11,0.06l0.05,0.07l0.04,0.08
			l0.06,0.09l-1.21,0.47l-0.59,0.5l0.01,0.7l-0.58,0.72l-0.06,0.35l0.25,0.45h-0.43l-0.22,0.04L19.53,296l-0.02,0.2l0.09,0.13
			l0.14,0.11l0.07,0.08l-0.12,0.18l-0.27,0.08l-0.3,0.04l-0.21,0.08l0.91,0.17l1.03-0.5l0.72-0.91l0.01-1.04l0.3-0.08l0.28-0.13
			l0.14-0.22l-0.09-0.31l0.28-0.35l0.3-0.54L22.91,292.44z M15.51,301.54l0.21-0.53l-0.38-0.08l-1.06,0.26l-0.21-0.11l0.05-0.65
			l0.07-0.3l0.1-0.31l0.34-0.64l0.03-0.23l-0.06-0.18l-0.21-0.32l-0.07-0.18l0.06-0.23l0.15-0.22l0.03-0.17l-0.24-0.16l-0.11,0.89
			l-0.02,0.71l-0.31,0.52l-0.06,0.23v0.44l-0.11,0.39l-0.05-0.11l-0.15-0.21l-0.05-0.12l-0.1,0.44l-0.08,0.59l-0.18,0.39l-0.41-0.19
			l-0.28,0.29l-0.16,0.09l-0.19,0.07v0.14l0.65,0.13l0.17,0.1l0.37,0.59l0.07,0.01l-0.15,0.91l-0.04,0.51l0.13,0.38l0.2,0.14
			l0.07-0.18v-0.29l0.04-0.2l0.17-0.16l0.12-0.05l0.1-0.05l0.12-0.2l0.01-0.15l-0.02-0.52l0.01-0.23l0.03-0.21l0.21-0.55l0.47,0.13
			l0.4-0.21L15.51,301.54z M238.11,9.84l0.6,0.54l1,0.63l0.29,0.09l0.32-0.05l0.67-0.5l0.11-0.12l0.11-0.35l0.23-0.25l0.14-0.27
			l-0.16-0.38l-0.64-0.89l-0.45-0.51l-0.61-0.41l-0.61-0.2l-0.43,0.11l-0.24,0.12l-0.65,0.78l0.07,0.11l0.1,0.26l0.09,0.17
			l-0.27,0.51L238.11,9.84z M235.34,2.68l-0.14,1.27l0.09,0.55l0.21,0.59l0.47,0.94l-0.11,0.21l-0.01,0.15l0.12,0.36L236.25,6
			l0.17-0.76l0.27-2.71l-0.08-0.49l-0.31-0.2l-0.33,0.11l-0.28,0.17l-0.25-0.01l-0.25-0.49l-0.06-0.12l-0.08-0.1l-0.1-0.04
			l-0.11,0.03L234.7,1.5l0.55,0.88L235.34,2.68z M205.99,87.05l0.05,0.21v0.51l0.05,0.21l0.09,0.22l-0.06,0.28l0.11,0.27l0.19,0.2
			l0.18,0.08l0.71-0.69l0.28-0.54l0.07-0.58l0.02-0.61l0.12-0.65l0.62-0.93l0.19-0.51l-0.3-0.29l-0.19,0.07l-0.54,0.37l-0.21,0.09
			l-0.21,0.03l-0.41,0.12l-0.21,0.02l-0.28,0.2l-0.25,0.4l-0.18,0.47l-0.07,0.46l0.05,0.25L205.99,87.05z M33.3,319.49l-0.1,0.37
			l0.13,0.31l0.27,0.17l0.34-0.08l0.11-0.23l0.33-0.88l0.07-0.26l-0.14-0.43l-0.2-0.16h-0.43l-0.4-0.17l-0.2-0.03l-0.15,0.11
			l-0.03,0.31l0.07,0.39l0.16,0.36L33.3,319.49z M108.18,267.89l0.17,0.32l0.3-0.02l0.35-0.11l0.35-0.02l0.36,0.19l0.1,0.24
			l-0.08,0.8l0.34-0.08l0.22-0.32l0.2-0.38l0.26-0.28l0.41-0.09l0.16,0.15l-0.08,0.19l-0.36,0.06v0.13l0.27-0.03l0.24,0.04
			l0.17,0.11l0.09,0.2l0.41-1.21l0.1-0.64l-0.07-0.28l-0.09-0.24l-0.05-0.2l0.08-0.21h-0.26l-0.65,0.17l-0.67,0.07l-0.23,0.07
			l-0.79,0.49l-0.46,0.14l-0.53-0.17l-0.08,0.25l0.04,0.28l-0.01,0.24L108.18,267.89z M87.07,275.16l-0.1,0.11l-0.06,0.29v0.4
			l0.2,0.15l0.31-0.14l0.91-0.94l0.14-0.24l-0.05-0.1l-0.1,0.02l-0.19-0.02l-0.12-0.13l-0.09-0.16l-0.31-0.13l-0.42,0.09l-0.13,0.29
			l0.15,0.34l0.04,0.18l-0.09-0.02L87.07,275.16z M13.82,295.06l0.13,0.1l0.2,0.15l0.3,0.06l0.16-0.03l0.13-0.25l0.28-0.23
			l0.01-0.17l-0.13-0.18l-0.15-0.34l-0.14-0.03l-0.28,0.22l-0.17,0.05l-0.27,0.13l-0.25,0.32l-0.02,0.2l0.09-0.03L13.82,295.06z
			 M9.26,305.71l0.14,0.07l0.34,0.21l0.17,0.04l0.12-0.05l0.24-0.36l0.23-0.27l0.02-0.16l-0.1-0.28l-0.06-0.09l-0.15-0.13l-0.44-0.3
			l-0.1,0.05l0.07,0.22l0.08,0.2l0.05,0.18l0.02,0.08l0.01,0.06l-0.02,0.07l-0.07-0.06l-0.07-0.13l-0.06-0.25l-0.12-0.25l-0.19-0.1
			l-0.17,0.02l-0.04,0.15l0.02,0.18l-0.02,0.69L9.26,305.71z M34.74,316.94l-0.01,0.23l0.08,0.06l0.16-0.09l0.17-0.04l0.19-0.09
			l0.21-0.18l0.18-0.21l0.06-0.12l-0.11-0.18l-0.31-0.15l-0.21,0.07l-0.02,0.08l-0.04,0.04l-0.11,0.02l-0.1,0.11l-0.08,0.23
			L34.74,316.94z M28.19,326.59l0.08,0.06l0.1,0.06l0.14,0.15l0.26,0.02l0.25-0.17l0.18-0.02l0.17-0.02l0.14-0.14l0.05-0.15
			l-0.01-0.07l-0.05-0.09l-0.01-0.13l0.04-0.15l-0.05-0.14l0.02-0.09l0.09-0.09l-0.09-0.03l-0.28,0.05l-0.09,0.12l0.08,0.21
			l-0.06,0.14l-0.15-0.06l-0.7-0.59l-0.36-0.11l-0.25,0.14l-0.16,0.24l-0.05,0.23v0.14l0.07,0.08l0.14-0.04l0.14-0.21l0.21-0.09
			l0.05,0.06l-0.13,0.09l0.01,0.17l0.13,0.17l0.07,0.14L28.19,326.59z M17.37,270.95l0.27,0.03l0.08-0.34l0.09-0.29l0.17-0.19
			l0.28-0.09l-0.08,0.26l-0.03,0.27l0.02,0.27l0.09,0.25l0.34-0.5l0.26,0.34l-0.05,0.51l-0.65-0.02l0.22,0.39l0.38,0.09l0.37-0.16
			l0.17-0.42l0.04-0.24l0.11-0.16l0.13-0.12l0.09-0.16l-0.02-0.22l-0.09-0.2v-0.19l0.25-0.17l-0.15-0.07l-0.15-0.02l-0.15,0.04
			l-0.19,0.06l0.21-0.77l0.34-0.63l1.16-1.45l0.13-0.21l0.19-0.89l0.06-0.14l0.05-0.28l-0.19-0.28l-0.29-0.27l-0.18-0.23l0.17-0.06
			l0.19,0.12l0.18,0.15l0.13,0.02l0.2-0.28l0.06-0.63l0.13-0.3l-0.53-0.46l-0.18-0.11l-0.1-0.04l-0.1-0.02l-0.1,0.02l-0.22,0.1
			l-0.1,0.04l-0.03,0.08l-0.42,0.39l-0.37,0.52l-0.2,0.07l-0.38,0.01l-0.32,0.07l-0.25,0.23l-0.18,0.36l-0.1,0.73l-0.09,0.13
			L17.96,266l0.04,0.21l0.51,0.47v0.13l-0.6,0.61l-0.16,0.33l-0.08,0.36l0.02,0.33l0.15,0.12l0.31-0.2l0.11,0.17l-0.51,0.46
			l-0.08,0.02l-0.08-0.03h-0.07l-0.04,0.08l0.01,0.3l-0.18,0.95l-0.17,0.33l-0.3-0.12l-0.07,0.35l0.23,0.09H17.37z M15.83,276.35
			l0.21,0.06l0.19,0.1l0.11,0.17v0.27l0.89-0.74l0.54-0.66l0.02-0.12l0.06-0.17l0.14-1.13l0.04-0.05l0.22-0.06l0.07-0.03l0.07-0.11
			l0.26-1.5l0.06-0.17l-0.15,0.04l-0.3,0.11l-0.11,0.01l-0.09-0.1l-0.07-0.28l-0.05-0.07l-0.79,0.05l-0.3-0.05l-0.12,0.13
			l-0.08-0.01l-0.02-0.2l-0.01-0.17l-0.03-0.17l-0.04-0.14l-0.07-0.06l-0.31,0.26l-0.14,1.71l-0.11,0.58l-0.17,0.49l-0.08,0.79
			l0.03,0.82L15.83,276.35z M123.93,265.27l-0.42,0.1l-0.28,0.26l-0.51,0.75l-0.31,0.24l-0.72,0.33l-0.32,0.27l-0.11,0.2l-0.16,0.39
			l-0.11,0.17l-0.15,0.12l-0.34,0.21l-0.15,0.14l-1.47,2.62l-1.29,0.8l-0.04,0.82l0.43,0.58l0.64-0.29l0.13,0.14l-0.14,0.77
			l0.54,0.35l0.81,0.03l0.7-0.21l0.26-0.23l0.22-0.25l0.28-0.22l0.45-0.09l0.31-0.1l0.33-0.25l0.25-0.35l0.08-0.39l-0.13-0.28
			l-0.42-0.46l-0.09-0.39l-0.06-0.17l-0.26-0.34l-0.06-0.26l0.02-0.19l0.21-0.66l0.41-0.77l0.99-1.36l0.39-0.79l0.11-0.14l0.2-0.36
			l0.16-0.36l-0.04-0.27L123.93,265.27z M183.68,191.71l0.18,0.11l0.2,0.04l0.41-0.06l1.95-0.71l2.17-1.48l0.26-0.35l0.24-0.89
			l0.2-0.44l0.78-1.24l0.17-0.44l-0.01-0.92l-0.63-0.06l-0.86,0.24l-0.65-0.07l-0.15,0.4l-0.16,0.02l-0.1-0.29l0.01-0.46l0.1-0.44
			l0.81-1.86l0.37-1.41l0.24-1.56l0.01-0.26l-0.11-0.11l-0.45,0.02l-0.21,0.07l-0.16,0.15l-0.77,1.34l-0.49,0.35l-0.85,0.89
			l-0.16,0.25l-0.35,0.26l-0.36,0.33l-0.28,0.76l-0.77,1.07l-0.21,0.44l-0.11,0.47l-0.07,0.48l0.01,0.55l0.28,0.69l1.24-0.46
			l0.51,0.72l-0.21,0.35l-0.6,0.69l-0.19,0.4v1.05l-0.09,0.29l-0.22,0.15l-0.89,0.19l-0.16,0.09l-0.05,0.25l0.05,0.24L183.68,191.71
			z M90.36,228.8l0.88,0.78l0.11,0.08h0.42l0.75,0.15h0.14l0.21-0.17l0.07-0.21l-0.06-0.21l-0.22-0.17l0.15-0.16l0.17-0.12
			l0.17,0.01l0.14,0.27l0.25-0.14l0.11-0.24l0.05-1.14l-0.27-0.38l-0.07-0.11l-0.08-0.21l-0.1-0.14l-0.1-0.06l-0.24-0.08l-0.11-0.09
			l-0.05-0.1l-0.06-0.2l-0.06-0.08L92.38,226l-0.2-0.04l-0.14-0.1l-0.02-0.27l-1.54,1.03l-0.24,0.45l-0.17,1.42l0.09,0.22
			L90.36,228.8z M37.95,311.61l-0.07-0.14l-0.04-0.16l-0.11-0.1h-0.16l-0.38,0.28l-0.69,0.22l-0.27,0.14l-0.42,0.31l-0.37,0.43
			l-0.16,0.09L35,312.73l-0.11,0.05l-0.1,0.13l-0.01,0.3l0.17,0.33l0.37,0.58l0.43-0.18l0.36-0.08l0.74-0.05l0.35-0.26l0.2-0.05
			l0.08,0.25l-0.01,0.47l0.01,0.25l0.07,0.11l0.58-0.48l0.78-2.1l0.62-0.42l-0.21-0.31l-0.31,0.04l-0.56,0.27l-0.34,0.07
			L37.95,311.61z M33.3,316.97l0.37-0.84l0.09-0.16l0.44-0.17l0.17-0.12l0.16-0.2l0.08-0.13l0.03-0.17l0.06-0.58l-0.04-0.17
			l-0.04-0.15l-0.05-0.17l-0.06-1.85l-0.17-0.91l-0.54-0.54l-0.39-0.03l-0.36,0.11l-0.33,0.14l-0.49,0.12l-0.37,0.21l-0.24,0.05
			l-0.19-0.07l-0.16-0.12l-0.17-0.11l-0.23-0.01l0.4,0.69l0.11,0.43l-0.2,0.48l-0.26,0.37l-0.21,0.43l-0.1,0.43l0.11,0.35
			l-0.16,0.13l-0.11,0.16l-0.08,0.2l-0.02,0.25l0.09,0.49l0.21,0.41l0.32,0.19l0.41-0.17l0.29,0.11l0.15,0.02l0.19,0.01l-0.21,0.23
			l-0.2,0.04l-0.23-0.02l-0.25,0.04l-0.37,0.25l-0.58,0.52l-0.08,0.14l-0.06,0.21v0.1l0.33-0.18l0.19,0.03l0.2,0.01l0.22-0.18
			l-0.28,1.14l0.02,0.2h0.32l0.46-0.2l0.44-0.26l0.26-0.19l0.41-0.53l0.16-0.16l0.42-0.21L33.3,316.97z M10.37,308.69l0.02-0.08
			v-0.02l-0.07-0.26l-0.34-0.85l-0.12-0.15l-0.51-0.45l0.09-0.4l-0.14-0.37l-0.28-0.21l-0.32,0.06l0.01-0.19l0.02-0.17l0.03-0.14
			l0.05-0.1l-0.42-0.15l-0.96,0.92l-0.53-0.17l-0.05,0.12l-0.07,0.07l-0.06,0.05l-0.07,0.07l-0.09-0.44l-0.32-0.24l-0.34,0.02
			l-0.16,0.29v0.41l-0.04,0.13l-0.12,0.25l-0.03,0.11l0.01,0.12l0.04,0.1l0.06,0.09l0.04,0.1l0.06,0.22l0.02,0.23l-0.01,0.24
			l-0.03,0.21l-0.24,0.59l-0.02,0.13l-0.03-0.19l-0.07-0.47l-0.02-0.09l-0.13,0.05l-0.12,0.17l-0.08,0.21L5,308.69h0.14l-0.2,0.38
			l0.18,0.28l0.38,0.17l0.45,0.06l0.93-0.06l0.44,0.12l0.36,0.41l0.23-0.14l0.15-0.19l0.09-0.26l0.05-0.32l-0.05-0.08l-0.09-0.04
			L8,308.92l0.07-0.23l0.07-0.1l0.15-0.03l0.1-0.09l0.16-0.04l0.86,0.13l0.5-0.01l0.24,0.03L10.37,308.69z M50.78,348.04l-0.39-0.14
			l-0.13,0.08l-0.11,0.11l-0.2,0.27l-0.91,1.87l-0.65,1l-0.06,0.16l0.08,0.15l0.11,0.16l0.05,0.17v0.7l-0.07,0.62l-0.17,0.54
			l-0.27,0.52l-0.78,1.17l-0.28,0.64l-0.09,0.71l0.07,0.9l0.13,0.4l0.26,0.17l0.28-0.06l0.35-0.14l0.34-0.18l0.24-0.2l0.35-0.71
			l0.16-1.72l0.26-0.81l0.77-1l0.11-0.4l0.04-0.24l0.23-0.58l0.47-1.99l0.04-0.44l-0.05-1.16L50.78,348.04z M42.04,356.84
			l-1.48-0.55l-0.37-0.37l-0.48,0.22l-0.69,0.74l-0.87,0.5l-0.15,0.02l0.01,0.44l0.04,0.27l0.07,0.23l0.54,1.25l0.35,0.59l0.4,0.37
			l0.51,0.19l0.64,0.1l0.61-0.05l0.4-0.24l0.68-0.04l0.6-0.82l0.42-1.05l0.09-0.74l-0.47-0.61L42.04,356.84z M324.19,55.41
			l-0.24-0.03l-0.06-0.03l-0.06-0.06l-0.08-0.06l-0.12-0.03l-0.11,0.06l-0.24,0.26l-0.16,0.06l-0.88-0.06l-0.26,0.06l-0.24,0.15
			l-0.1,0.18l-0.07,0.18l-0.11,0.17l-0.25,0.13l-0.49,0.13l-0.22,0.18l-0.77,0.87l-0.71,0.61l-0.11,0.18l0.09,0.35l0.21,0.2
			l0.17,0.19l-0.1,0.31l-0.46-0.39l-0.44-0.21l-1.57-0.16l-0.61-0.16l-0.54-0.28l-0.33-0.4l0.3-0.1l-0.1-0.18l-0.32-0.16l-0.33-0.08
			l-0.3-0.11l-0.11-0.26l0.04-0.29l0.18-0.2l0.54,0.13l1.16,1l0.59-0.09l-0.9-0.7l-0.63-0.87l-0.38-0.98l-0.49-2.16l-0.24-0.62
			l-0.09-0.42L314,51.47l-0.06-0.21l-0.06-0.55l-0.14-0.51l-0.2-0.44l-0.24-0.35l-1.21-1.3l-0.26-0.39L311.07,46l-0.05-0.2
			l-0.01-0.33l0.05-0.3l0.27-0.38l0.17-0.56l0.21-0.48l0.11-0.53l-0.18-0.47l0.29-0.93l0.42-0.93l0.46-0.84l1.69-2.17l0.16-0.4
			l0.19-1.26l0.2-0.53l1.11-1.48l0.41-0.96l0.02-1.13l-0.1-0.27l-0.34-0.6l-0.15-0.51l-0.17-0.01l-0.18,0.12l-0.08,0.13l-0.16,0.52
			l-0.37,0.45l-0.73,0.7l-0.9,1.7l-0.31,0.27l-0.35,0.13l-0.88,0.93l-1.31,0.84l-0.21,0.29l-1.66,1.98l-2.17,2.36l-0.8,0.53
			l-0.88,0.18l-3.16-0.26l-2.61-0.46l-0.65-0.2l-0.3-0.15l-0.79-0.61l-0.17-0.1l-0.17-0.18l-0.3-0.86l-0.16-0.19l-0.28-0.12
			l-0.18-0.33l-0.24-0.78l0.14-0.73l-0.37-0.29l-0.52,0.2l-0.26,0.75l-0.06,0.4l-0.17,0.44l-0.2,0.38l-0.19,0.26l-0.27,0.13
			l-0.27-0.02l-0.6-0.28l0.39-1.24l0.26-0.34l0.34-0.19l0.24-0.06v-0.08l-0.34-0.29l-0.63-0.31l-2.23-0.12l-0.3,0.11l-0.32,0.24
			l-0.53,0.62l-0.15-0.06l-2.72-0.05L286.81,37l-0.23-0.17l-0.27-0.28l-0.08,0.08l-0.19,0.11l-0.25-0.97l-0.11-0.17l-0.44-0.46
			l-0.09-0.17l0.28-0.19l1.51,0.19v-0.18l-4.17-1.63l-2.74-1.68l-0.16-0.14l-0.51-0.61l-0.01-0.13l-0.32-0.77l-0.21-0.15l-0.8-0.21
			l-0.34-0.29l-0.71-0.79l-0.29-0.16l-0.37-0.13l-1.6-1.28l-1.41-1.5l-1.13-0.83l-0.78-1.25l-0.6-0.33l-3.6-4.14l-0.89-1.58
			l-0.65-0.45l-0.31-0.52l-1.39-3l-5.91-7.38l-0.71-0.7l-1.6-1.22l-0.75-0.79l-0.72-1.41l-0.3-0.21l-0.26-0.14l-0.18-0.33
			l-0.31-0.78L252.89,0l-0.47,0.11l-0.47,0.4l-0.28,0.44l-0.04,0.27v0.36l-0.03,0.32l-0.12,0.13l-0.2,0.07l-0.63,0.48l-0.92,0.25
			l-0.87,0.11l-0.43,0.17h-0.23l-0.1-0.26l-0.01-0.35l-0.05-0.28l-0.13-0.21l-0.21-0.17l-0.33,0.35l-0.16,0.43l-0.05,0.44l0.04,0.4
			l0.21,0.84l-0.02,0.43l-0.4,0.7l-0.05,0.24l-0.05,0.25L246.8,6.2l-0.15,0.25l-0.37,0.46l-0.11,0.19L246,8.27l0.23,1.11l2.52,5.49
			l0.59,1.82l0.55,3.14l0.24,3.23l-0.08,1.16l-0.82,4.48l-1.53,2.89l-0.19,0.93l0.27,5.43l-0.06,1.07l-0.15,1.06l-0.34,1.19
			l-0.46,0.9l-0.58,0.7l-1.05,0.88l-0.34,0.23l-0.36,0.14l-0.79,0.13l-0.43,0.2l-0.43,0.28l-0.31,0.32l-0.5,0.9l-0.27,0.62
			l-0.11,0.49l0.11,0.57l0.43,1.13l-0.06,0.47l0.17,0.23l0.34,1.01l-0.31,0.47l-0.23,0.44l-0.05,0.51l0.2,0.68l1.04,1.6l0.24,0.69
			l0.01,1.17l-0.32,1.11l-0.47,0.97l-0.5,0.75l-1.25,1.35l-1.41,1.09l-0.5,0.28l-0.25,0.06l-0.34,0.01l-0.23-0.06l-0.4-0.23
			l-0.45-0.09l-0.77-0.33l-0.68-0.09l-0.19-0.07l-0.34-0.45l0.15-0.45l0.19-0.34l-0.21-0.13l-0.42,0.05l-1.41,0.59l-1.91,0.29
			l-0.26-0.08l-0.18-0.13l-0.27-0.38l-0.2-0.21l-1.34-0.64l-0.37-0.3l-0.56-0.72l-0.33-0.31l-1.59-1.19l-0.33-0.13l-0.14-0.1
			l-0.2-0.2l-0.23-0.19l-0.26-0.02l-0.16,0.14l-0.06,0.25l-0.06,0.27l-0.1,0.23l-0.35,0.27l-0.45,0.09l-0.93-0.02l-0.56,1.9
			l0.16,1.02l0.57,0.7l0.7,0.58l0.62,0.67l0.9,1.31l0.13,0.35l0.14,0.59l0.27,0.4l0.19,0.37l-0.1,0.48l-0.34,0.41l-0.78,0.54
			l-1.26,1.26l-0.3,0.37l-0.47,1.04L223,69.41l-0.34,0.2l-0.14,0.26l-0.04,0.57l-0.12,0.6l-0.41,0.31l-0.39-0.1l-0.28-0.29
			l-0.42-0.72l-0.42-0.33l-0.31,0.1l-0.26,0.37l-0.48,0.99l-0.16,0.23l-0.14,0.12l-0.23,0.02l-0.21,0.06l-0.17,0.14l-0.78,1
			l-0.3,0.2l-0.44,0.11l-1.81,0.1l-0.75,0.35l-0.62,0.93l-0.21,0.96l0.31,1.87l0.01,1.13l-0.23,1.14l-0.19,0.54l-0.78,1.29
			l-0.23,0.51l-0.09,0.48l0.18,1l0.19,0.61l0.21,0.27l0.84,0.68l0.57,0.21l0.17,0.13l0.36,0.73l0.09,0.12l0.02,0.12l0.34,0.43
			l1.87,0.83l0.62,0.65l0.95,1.72l0.61,0.71l-0.11,0.37l0.01,0.47l0.11,0.48l0.12,0.39l-0.08,0.15l-0.01,0.41l-0.04,0.29l-0.18,0.12
			l-0.13,0.1l-0.07,0.12v0.15l0.12,0.21l0.01,0.15l-0.03,0.55l-0.06,0.23l-0.17,0.24l-0.14,0.03l-0.41-0.05l-0.09,0.1l-0.21,1.02
			l-0.96,1.57l-0.3,1.54l-0.35,0.78l-0.08,0.53l0.07,0.52l0.57,1.42l0.26,1.03l0.18,0.47l0.26,0.19l0.2,0.08l0.47,0.36l0.23,0.08
			l0.18-0.04l0.32-0.13l0.19-0.01l0.88,0.42l0.45,0.07l0.19-0.4l0.13-0.51l0.28-0.47l0.34-0.4l0.28-0.24l2.35-0.75l0.58-0.44
			l0.2-0.82l-0.18-2l0.36-0.9l0.33-0.16l0.98-0.28l0.21-0.16l0.18-0.18l1.12-0.59l0.2-0.45l0.29-1.06l0.2-0.44l0.35-0.29l0.45-0.08
			l0.45,0.15l0.34,0.31l0.11,0.44l-0.2,0.26l-0.29,0.23l-0.15,0.36l0.17,0.35l0.41-0.11l0.85-0.51h0.9l0.94,0.31l1.59,0.9l0.86,0.23
			l0.69-0.28l1.13-1.16l0.33-0.21l0.41-0.17l0.87-0.12l0.18-0.2l-0.32-0.47l-1.41-1.33l-0.44-0.27l-0.44-0.1l-0.47-0.05l-0.42-0.12
			l-0.36-0.21l-0.33-0.28l-1.23-1.63l-0.31-0.31l-0.71-0.49l-0.3-0.32l-0.89-1.26l-0.3-0.69l-1.1-0.78l-0.39,0.18l-0.35,0.1
			l-1.19,0.11l-0.71,0.24l-0.43,0.05l-0.34-0.14l-1.38-1.54l-0.6-0.48l-1.91-1.04l-0.55-0.64l-0.19-1.13l0.14-1.14l0.28-1.07
			l0.41-0.99l1.02-1.82l0.68-0.84l0.75-0.66l0.8-0.37l0.46-0.03l1.33,0.23l1.22-0.2l0.43,0.01l0.89,0.39l3.12,3.59l0.2,1.02l0.1,0.2
			l0.16,0.18l0.38,0.3l0.52,0.16l0.21,0.17l-0.05,0.27l-0.15,0.07l-0.74-0.16l-0.08,0.1l0.09,0.22l0.17,0.24l0.12,0.14l0.23,0.11
			l0.24,0.02l0.22-0.05l0.22-0.09l0.29-0.28l1.05-1.52l0.34-0.37l1.44-1.04l0.2-0.11l0.21-0.07l0.23-0.02l0.21-0.08l0.37-0.37
			l0.51-0.23l3.07-2.42l2.27-0.93l1.62-0.36l1.67-0.05l1.68,0.45l1.33,0.75l0.39,0.11l0.3,0.17l1.03,1.22l0.9,0.6l2.8,1.28
			l0.79,0.59l1.09,1.13l3.33,2.38l1.6,0.52l3.93,2.3l3.76,1.33l2.89,1.93l0.48,0.43l0.42,0.51l0.19,0.46l0.16,0.26l0.39,0.39
			l0.42,0.34l0.3,0.1l0.21-0.34l0.23-1.12l0.5-0.46l0.21-0.51l0.51-2.03l0.09-0.56l0.03-0.52l-0.02-0.57l-0.21-1.43l0.12-1.18
			l0.33-1.05l1.84-3.41l2.36-3.73l1.19-1.46l2.81-2.42l1.79-2.2l2.9-2.08l2.62-1.26l2.6-0.67l0.42-0.02l0.24,0.11l0.12,0.25
			l0.08,0.28l0.08,0.22l0.17,0.2l0.16,0.12l1.38,0.49l0.57,0.1l0.49-0.27l1.44-0.14l2.65,0.64l0.77-0.27l-0.23-0.26l-0.29-0.24
			l-0.25-0.28l-0.11-0.36l0.05-0.3l0.16-0.37l0.19-0.33l0.17-0.14l0.13-0.07l0.19-0.33l0.13-0.13l0.14-0.05h0.09l0.11,0.04
			l0.21,0.01l0.35,0.11l0.05,0.29l-0.04,0.3l0.02,0.25l0.49,0.47l0.58,0.23l0.63,0.03l1.24-0.2l0.26-0.08l0.17-0.17l0.07-0.34
			l-0.09-0.27l-0.36-0.62l0.9,0.29l0.45-0.02l0.44-0.27l0.13-0.2l0.04-0.17l0.05-0.1l0.71-0.08l0.18-0.1l0.17-0.23l-0.3-0.13h-0.31
			l-0.24-0.1l-0.07-0.45l0.13-0.35l0.24-0.21l0.29-0.11l1.42-0.23l0.52-0.2l0.41-0.4l0.41-0.21l1.9-0.04l0.58-0.18l0.32-0.04
			l0.49,0.31l0.37,0.1l0.38,0.05l0.21-0.07l-0.26-0.15l0.53-0.68l0.13-0.21l0.1-0.29l0.16-0.63l0.11-0.27l0.15-0.2l0.5-0.5
			l0.16-0.26l0.11-0.23l0.15-0.16l0.27-0.07l0.54,0.11l0.21-0.05l0.28-0.31l0.17-0.11l0.72-0.16l0.24-0.12l0.33-0.48l0.2-0.12h0.41
			l0.16-0.1l0.11-0.22l-0.22-0.13L324.19,55.41z M69.2,302.23l-0.1-0.1l-0.14-0.08l-0.77,0.46v-0.11l-0.01-0.24l0.01-0.11
			l-0.23,0.11l-0.13-0.05l-0.1-0.13l-0.11-0.07l-0.18,0.05l-0.19,0.08l-0.2,0.04l-0.18-0.09l-0.61-0.53l-0.06-0.26l0.37-0.6
			l0.11-0.35l0.11-0.14l0.12-0.08l0.96-0.19l0.29-0.13l0.08-0.28l-0.2-0.53l-0.21,0.41l-0.11,0.13l-0.17,0.07l-0.17-0.03l-0.17-0.12
			l-0.13-0.19l-0.06-0.26h-0.11l-0.04,0.24l-0.09,0.26l-0.15,0.13l-0.4-0.23L66,299.29l-0.21,0.07l-0.14-0.04l0.01-0.37l0.38-0.28
			l0.31-0.29l-0.19-0.42l-0.47,0.29l-0.6,0.06l-0.38-0.25l0.2-0.69l0.37-0.42l0.22-0.13l0.09-0.2l0.05-0.23l0.08-0.17l0.18-0.26
			l0.42-0.88h-0.39l-0.67,0.37l-0.41,0.09l-1.27-0.07l-1.14-0.27l-2.38,0.04l-0.45-0.06l-0.36-0.15L59,294.75l-0.18-1.46l0.12-0.29
			l0.46-0.06l0.19,0.08l0.16,0.14l0.18,0.1h0.24l0.17-0.13l0.25-0.4l0.16-0.08l0.46-0.12l0.07-0.27l-0.06-0.35l0.1-0.31l0.34-0.15
			l0.29,0.16l0.33,0.06l0.44-0.38l0.16-0.37l0.29-2.04l-0.06-0.46l-0.18-0.43l-1.28-1.65l-0.21-0.35l-0.37,0.05l-0.37-0.22
			l-0.31-0.12l-0.21,0.29l-0.33-0.1l-0.47,0.03l-0.42,0.17l-0.18,0.26l-0.11,0.3l-0.54,0.87l-0.24,0.29l-0.66,0.37l-0.87,0.14
			l-0.9-0.03l-0.76-0.18l-1.13-0.66l-0.33-0.1l-1.2,0.06l-0.41-0.06l-0.33-0.21l-0.38-0.39l-0.3-0.41l-0.26-0.63l-0.58-0.99
			l-0.19-0.43l-0.07-0.58l-0.04-0.17l-0.56-0.36L48.83,283l-0.06-0.22l-0.08-0.06v-0.08l0.21-0.26l0.13-0.25l-0.04-0.15l-0.07-0.15
			l0.04-0.28l0.15-0.23l0.36-0.23l0.13-0.16l0.01-0.11l-0.11-0.22l-0.01-0.12l0.05-0.13l0.17-0.27l0.03-0.15l-0.21-0.29l-0.46,0.2
			l-0.48,0.37l-0.26,0.27l-0.28,0.4l-0.24,0.17l-0.3,0.05h-0.52l-0.16-0.1l-0.09-0.2l-0.07-0.22l-0.06-0.09l-0.7-0.17l-0.91,0.16
			l-0.51-0.05l-0.23-0.34l-0.09-0.08l-0.23-0.02l-0.24,0.04l-0.15,0.07l-0.56,0.84l-0.4,0.32l-0.38,0.06l-0.9-0.08l-0.29,0.05
			l-0.11,0.11l-0.07,0.14l-0.16,0.18L40.27,282L40.06,282l-0.15-0.16l-0.22,0.68l-0.1,0.17l-0.19,0.13l-0.14,0.08l-0.09,0.13
			l-0.04,0.27l0.35,0.9l0.02,0.49l-0.43,0.21L38.78,285l-0.24,0.25l-0.24,0.29l-0.3,0.27l-0.71,0.37l-0.2,0.26l0.27,0.28l0.18-0.23
			l0.33-0.28l0.36-0.23l0.28-0.01l0.15,0.33l-0.08,0.51l-0.23,0.47l-0.29,0.2l-0.16,0.05l-0.18,0.22l-0.17,0.04h-0.96l-0.09,0.06
			l-0.08,0.12l-0.08,0.11l-0.13,0.01l-0.09-0.06l-0.08-0.1l-0.04-0.09l-0.05-0.06l-0.01-0.04l-0.11-0.27l-0.09-0.05l-0.25-0.07
			l-0.11-0.1l-0.12-0.23l-0.05-0.49l-0.09-0.21l-0.2-0.13l-0.12,0.09l-0.17,0.35l-0.14,0.14l-0.13,0.08l-0.16,0.02L34,286.89
			l-0.1,0.1l-0.49,0.66l-0.19,0.08l-0.18-0.01l-0.18,0.03l-0.2,0.18l-0.1,0.19l-0.02,0.15l0.09,0.11l0.23,0.03l0.17,0.07l0.05,0.3
			l0.18,0.07l0.58-0.15h0.24l-0.13,0.28l-0.21,0.19l-0.25,0.11l-0.24,0.04l-0.08,0.05l-0.16,0.3l-0.08,0.09h-0.58l-0.28,0.08
			l-0.18,0.19l-0.32,0.57l-0.21,0.23l-0.21,0.1l-0.58,0.04l-0.14-0.06l-0.06-0.14v-0.34l-0.08-0.09l-0.35,0.05l-0.08-0.04l0.01-0.34
			l0.27-0.29l-0.03-0.27l-0.36-0.42l-0.5-0.11l-0.55,0.01l-0.49-0.09l0.04,0.3l-0.16,0.58l-0.02,0.36l0.29,0.62l0.08,0.3l-0.17,0.14
			l-0.25-0.12l-0.15-0.26l-0.1-0.27l-0.14-0.12l-0.2,0.07l-0.19,0.16l-0.16,0.2l-0.03,0.18l0.36,0.6l0.97,0.44l0.2,0.57l-0.08,0.21
			l-0.18,0.16l-0.18,0.2l-0.08,0.34L28,294.32l0.06,0.31l-0.25-0.12l-0.21-0.19l-0.13-0.24l-0.1-0.57l-0.12-0.38l-0.2-0.27
			l-1.64,0.32l-0.28-0.06l-0.15-0.24l0.01-0.5l-0.79,0.44l-0.44,0.07l-0.27-0.36l-0.37,0.24l-0.1,0.43l0.1,1.11l0.09,0.28l0.01,0.15
			l-0.05,0.16l-0.12,0.09l-0.11,0.07l-0.08,0.06l-0.05,0.28l-0.01,0.53l-0.08,0.26h0.49l0.18,0.06l0.33,0.31l0.19,0.07l0.19-0.02
			l0.14-0.1l0.14,0.16l0.06,0.11l-0.01,0.14l-0.05,0.19l0.19,0.09l0.22,0.12l0.16,0.18l0.06,0.23l-0.05,0.25l-0.27,0.35l-0.05,0.3
			h0.13l0.12-0.1l0.3-0.03l0.16-0.1l0.07-0.16l0.08-0.49l0.05-0.19l0.16,0.1l0.08,0.11l0.04,0.16l-0.01,0.23l0.54-0.27l0.09-0.02
			l0.17,0.24l-0.11,0.23l-0.2,0.19l-0.1,0.18l-0.06,0.17L26.04,299v0.12l0.18,0.05l0.44,0.36l0.14,0.08l0.18-0.33l0.24,0.02
			l0.47,0.31l-0.07,0.34l0.27-0.02l0.43-0.13l0.37-0.01l0.99,0.88l0.17,0.25l-0.08,0.54l-0.11,0.49l-0.01,0.46l0.97,1.75l0.37,0.3
			l-0.11,0.15l-1.4-0.68l-0.7-0.07l-0.2,0.6l-0.14-0.06l-0.05-0.04l-0.07-0.06l-0.14,0.21L28,304.6l-0.14-0.09l-0.05-0.27
			l-0.15-0.05L27.38,304l-0.18-0.19l0.16-0.1v-0.07l-0.32-0.53l-0.03-0.25l0.03-0.81l0.15,0.19l0.09,0.26l0.11,0.23l0.18,0.08
			l0.13-0.12l-0.01-0.24l-0.11-0.41l-0.09-0.67l-0.14-0.28l-0.26-0.18l-0.4-0.39l-0.36,0.48l-0.19,0.12l-0.1-0.29l0.09-0.34
			l0.4-0.45l0.04-0.26l-0.09-0.11l-0.13,0.01l-0.11,0.06l-0.05,0.04l-0.07-0.02l-0.15,0.04l-0.06-0.01l-0.01-0.06l0.02-0.19
			l-0.01-0.06l-0.37-0.3l-0.52-0.3l-0.5,1.82l-0.33,0.81l-0.04,0.42l0.1,0.44l0.11,0.15l0.18,0.18l0.16,0.21l0.07,0.28l0.02,0.26
			l0.07,0.23l0.15,0.34l0.21,0.34l0.46,0.6l0.21,0.42l0.18-0.23l0.26-0.19l0.24-0.04l0.1,0.24l0.03,0.27l0.11,0.13l0.16,0.11
			l0.2,0.17l0.37,0.8l0.27,0.32l0.38-0.07l-0.06,0.58l-0.24,0.51l-0.61,0.87l-0.39,0.71l-0.12,0.18l-0.22,0.16l-0.2,0.08l-0.18,0.12
			l-0.18,0.26l0.74-0.05l0.62-0.33l1.56-1.6l0.2-0.3l0.85-1.8l0.27,0.15l0.45-0.02l0.47-0.12l0.34-0.13l0.56-0.36l0.2-0.09
			l0.26-0.07l0.63,0.07l0.79-0.24l0.23,0.07l0.1,0.16l-0.01,0.11l-0.06,0.11l-0.04,0.14l0.04,0.16l0.09,0.12l0.13,0.1l0.06,0.5
			l-0.05,0.17l-0.15,0.24l-0.19,0.26l-0.21,0.2l-0.24,0.08l-0.25-0.09l-0.09,0.63l0.24,0.55l0.29,0.4l0.08,0.21l0.27,0.26l0.36-0.14
			l0.38-0.27l0.45-0.21l0.14-0.15l0.12-0.17l0.04-0.14l1.2-0.38l0.28-0.22l0.14-0.34l0.05-0.56l0.06-0.21l0.26-0.4l0.06-0.28
			l0.05-0.69l-0.05-0.29l-0.39-0.89l-0.61-0.59l-0.76-0.23l-0.79,0.2l-0.69,0.5l-0.41,0.16l-0.7-0.24l-0.49-0.09L32.6,304l0.18-0.45
			l0.19-0.09l0.46-0.02l0.18-0.1l0.18-0.19l0.37-0.21l0.14-0.12l0.31-0.43l0.17-0.37l0.02-0.35l-0.11-0.36l-0.88-1.68l-0.53-0.59
			l-0.2-0.38l-0.03-0.54l0.59,0.24l0.51-0.51l0.53-0.71l0.65-0.37l0.31,0.12l0.54,0.52l0.25,0.12l0.26,0.02l0.42,0.12l0.51,0.07
			l0.07,0.12l-0.01,0.19l0.09,0.25l0.13,0.16l0.4,0.28l0.08,0.04l0.09,0.01l0.1,0.02l0.1,0.08l0.03,0.11l-0.01,0.28l0.12,0.43
			l-0.03,0.96l0.12,1.45l0.15,0.4l0.54,0.3l0.86,0.9l1.42,1.16l0.24,0.43l0.03,0.15l0.07,0.09l0.04,0.09l-0.07,0.12l-0.2,0.29
			l-0.09,0.17l-0.04,0.15l0.06,0.24l0.12,0.26l0.21,0.22l0.26,0.11v0.16l-0.18,0.01l-0.16,0.03l-0.3,0.1l-0.28-0.02l-0.22,0.11
			l-0.38,0.36l-1.29,0.66l-0.33,0.26l-0.18,0.3l0.26,0.14l0.3-0.15l3.04-0.59h0.5l-0.22,0.54l-0.29,0.36l-1.32,1.16l-0.1,0.18
			l0.07,0.27l0.42,0.34l0.16,0.29l-0.54-0.01l-0.21,0.08L41.06,312l0.32,0.3l0.07,0.57l-0.17,0.55l-0.4,0.23l-0.47,0.66l-0.09,0.17
			l0.07,0.61l-0.02,0.27l-0.18,0.24l-0.48-0.47l-0.14,0.05l-0.15,0.43l-0.02,0.2l0.06,0.19l-0.03,0.21l-0.09,0.11l-0.24,0.16
			l-0.06,0.11l-0.18,0.55l-1.35,1.46l-0.01,0.07l0.01,0.33l-0.04,0.07l-0.15,0.05l-0.06,0.09l-0.18,0.6l-0.07,0.15l-0.22,0.23
			l-0.4,0.27l-0.36,0.12l-0.57-0.72l-0.78,0.28l-0.5,0.6l0.41,0.44l-0.56,1.13l-0.08,0.43l0.08,0.12l0.35,0.23l0.08,0.11l0.01,0.24
			l0.1,0.41l0.02,0.25l-0.14,1.43l0.08,0.4l0.17,0.26l0.51,0.53l-0.23-0.12l-0.25-0.04h-0.53l0.04,0.3l-0.02,0.97l0.05,0.21
			l0.29,0.11l0.86,0.52l0.25,0.19l0.7,1.1l0.53,0.61l0.19,0.34l0.04,0.41l-0.25,0.45l0.19,0.53L36.94,333l-0.22,0.78l-0.12,0.71
			l-0.21,0.43l-1,0.78l-0.3,0.51l-0.25-0.22l-0.36-0.45l-0.21-0.09l-0.16-0.02l-0.25-0.1l-0.17-0.02l-0.15,0.06l-0.49,0.25l0.4,0.24
			l0.55,0.44l0.49,0.49l0.21,0.39l-0.11,0.28l-0.02,0.16l0.08,0.07l0.13,0.05l0.1,0.14l0.06,0.17l0.05,0.49l0.08,0.29l0.16,0.23
			l0.22,0.12l0.5-0.19l0.42-0.01l3.33,0.41l0.34,0.17l0.21,0.3l0.18,0.51l0.01,0.3l0.09,0.15l0.28,0.13h0.26l0.21-0.1l0.2-0.01
			l0.24,0.26l0.33-0.36l0.36-0.15l0.3-0.17l0.14-0.44l0.06-0.36l0.23-0.76l-0.03-0.27l-0.24-0.2l-0.84-0.46l-0.25-0.09l-0.29-0.18
			l-0.2-0.43l-0.23-0.88l-0.56-1.24l-0.08-0.45l0.02-0.42l0.22-0.88l0.24-0.62l0.3-0.53l0.17-0.76l0.14-0.23l0.51-0.59l0.08-0.18
			l0.07-0.55l0.06-0.23l0.58-0.7l0.77-0.24l0.84,0.08l0.84,0.25l0.53,0.51l0.1,0.79l-0.21,0.85l-0.42,0.69l-0.33,0.35l-0.18,0.09
			l-0.24,0.02l-0.25-0.09l-0.07-0.16l0.06-0.58l-0.19-0.37l-0.45-0.12l-0.47,0.05l-0.28,0.07l-0.28,0.18l-0.4,0.36l-0.23,0.35
			l0.2,0.16l0.19,0.04l0.32,0.19l1.09,0.21l0.18,0.37l0.04,0.86l0.21,0.46l0.52,0.7l0.42,0.72l0.24,0.63l0.19,0.71l0.1,0.78
			l-0.01,0.85l-0.14,0.82l-0.25,0.87l-0.3,0.8l-0.33,0.61l-0.27,0.21l-0.73,0.46l-0.15,0.29l-0.24,1.72l0.32-0.14l0.5-0.31
			l0.73-0.66l0.3-0.18l0.63-0.14l0.36-0.16l0.32-0.22l0.14-0.21l0.15-0.17l1.01-0.19l0.3-0.13l0.31-0.18l0.29-0.21l0.24-0.23
			l0.2-0.3l0.33-0.67l0.17-0.28l0.51-0.55l0.3-0.2l0.69-0.17l0.86-0.63l-0.57-0.15l-0.13-0.08l-0.01-0.15l0.26-0.41l0.07-0.19
			l-0.16-0.26l-0.38-0.21L50.52,337l-0.79-0.13l-0.15-0.21l0.05-0.33l0.64-1.14l0.21-0.26l0.28-0.21l0.7-0.33l0.38-0.1l0.37-0.05
			l0.19,0.02l0.36,0.11l0.47,0.05l0.09,0.07l0.04,0.11l0.12,0.18l0.36,0.39l0.09,0.12l0.04,0.23l-0.01,0.37l0.09,0.15l0.29,0.15
			l0.35-0.01l0.76-0.14l-0.04,0.09l-0.01,0.06l-0.09,0.13l0.12,0.05l0.05,0.03l0.07,0.08l0.12-0.1l0.05-0.14l0.02-0.16l0.07-0.19
			l0.25-0.34l0.09-0.2l0.18-1.03l0.06-0.16l0.24-0.24l0.08-0.12v-0.45l-0.03-0.11l-0.07-0.08l-0.04-0.15l0.02-0.26l0.08-0.21
			l0.24-0.42l0.05-0.03l0.09-0.36l0.21-0.26l0.6-0.49l-0.09-0.67l0.46-2.4l0.06-0.18l0.27-0.36l0.05-0.19l-0.06-0.19l-0.5-0.55
			l-0.18-0.28l-0.12-0.35l-0.04-0.39l0.02-0.41l1.16-2.44l0.48-2.15l-0.13-0.94v-0.14l0.27-0.3l0.23-1l0.43-0.85l0.23-1.08
			l0.19-0.44l0.15-0.14l0.1-0.06l0.05-0.1l0.05-0.51l0.13-0.58l0.08-0.2l0.15-0.08l0.23-0.05l0.19-0.11l0.08-0.3l-0.02-0.21
			l-0.23-0.6l0.35-0.22l0.41-0.03l0.4-0.1l0.36-0.42l-0.33-0.37l-0.11-0.07l-0.31,0.01l-0.2-0.25l-0.06-0.27l0.33-0.64l-0.08-0.35
			l0.2-0.1l0.43,0.02l0.26-0.08l0.11-0.14l0.33-0.58l0.07-0.24l-0.01-0.17l-0.03-0.07v-0.03l0.05-0.1l0.09-0.11l0.25-0.2l0.17-0.26
			l0.29-0.1l0.47-0.09h0.08l0.08,0.03l0.08-0.03l0.03-0.37l0.1-0.39l0.06-0.06l0.09-0.04l0.08-0.09l0.04-0.18v-0.62l0.17-0.46
			l0.87,0.11l0.35-0.33l0.27,0.01l0.34-0.15l0.29-0.25l0.12-0.3l-0.1-0.12l-0.54,0.08l-0.24-0.04l0.15-0.25l0.15-0.12l0.17-0.08
			l0.16-0.15l0.19-0.36l-0.08-0.16l-0.17-0.08l-0.08-0.16l0.23-0.32l0.48-0.23l0.55-0.15l0.41-0.05l-0.06-0.16L69.2,302.23z
			 M118.61,282.48l-0.6-0.02v-0.15l0.16-0.02l0.18-0.1l0.16-0.02v-0.13l-1.04,0.03l-0.27-0.15l0.29-0.5l0.21-0.14l0.25-0.1l0.2-0.16
			l0.09-0.28l-0.05-0.31l-0.33-0.63l-0.74-0.83l-0.23-0.01l-0.25,0.06l-0.21-0.02l-0.09-0.26l-0.02-0.29l-0.09-0.47l-0.01-0.21
			l0.02-0.14l0.13-0.41l0.11-0.08l0.02-0.33l0.18-0.53l0.07-0.65l0.08-0.17l0.11-0.17l0.18-0.31l-0.13-0.18l-0.15-0.15l-0.17-0.09
			l-0.2-0.04l0.36-0.09l0.12-0.07l0.16-0.16l0.07-0.13l0.17-0.47v-0.15l-0.18,0.01l-0.62,0.53l-0.34,0.08l0.29-0.31l0.08-0.19
			l-0.1-0.12l-0.27-0.01l-0.24,0.05l-0.38,0.18l-2.23,0.21l-0.23-0.08l-0.24-0.19l-0.18-0.23l-0.08-0.18l-0.09-0.15l-0.23-0.02
			l-0.5,0.09l-0.27-0.1l-0.39-0.4l-0.24-0.09l-0.23-0.06l-0.74-0.42l0.26-0.64l-0.21-0.26L109.6,271l-0.38-0.32l-0.09,0.18
			l-0.41,0.49l-0.14,0.1l-0.31-0.09l-0.08-0.23v-0.62l-0.07-0.28l-0.09-0.24l-0.18-0.13l-0.31,0.05l-0.04,0.2l-0.03,0.32l-0.11,0.14
			l-0.29-0.35l-0.24,0.48l-0.12,0.16l-0.66-0.17l-0.18,0.01l-0.28,0.13h-0.17l-0.2-0.07l-0.22-0.19l-0.34-0.09l-0.28-0.21
			l-0.17-0.05l-0.18,0.02l-0.3,0.11l-0.16,0.02l-0.22,0.12l-0.18,0.27l-0.13,0.31l-0.16,0.23l-0.58,0.36l-1.14,0.55l-0.51,0.4
			l-0.43,0.42l-0.57,0.45l-0.53,0.18l-0.34-0.36l-0.32,0.12l-0.53-0.12l-0.55-0.23l-0.4-0.23l0.26,0.39l0.29,0.23l0.31,0.19
			l0.3,0.26l0.23,0.3l0.16,0.3l0.09,0.39l0.03,0.96l-0.12,1.01l-0.14,0.41l-0.24,0.33l-0.64,0.57l-0.27,0.31l-0.2,0.28l-0.25,0.28
			l-0.31,0.23l-0.38,0.12l-0.46-0.03l-0.9-0.34l-0.44-0.08l-1.37,0.15l-0.34-0.05h-0.11l-0.21,0.05l-0.2,0.09l-0.17,0.11l-0.18,0.06
			l-0.2-0.09l-0.23,0.51l-0.48,0.36l-0.58,0.23l-0.5,0.12l-0.29,0.02l-0.31-0.02l-0.27-0.08l-0.23-0.15l-0.7-0.65l-0.11-0.13
			l-0.1-0.65l-0.26-0.59l-1.3-2.03l-0.19-0.14l-0.17-0.04l-0.13-0.06l-0.13-0.23l-0.37,0.32l-0.23,0.11l-0.31,0.03v0.15l0.27,0.02
			l0.25,0.14l0.12,0.25l-0.07,0.27l-0.25,0.21l-0.54,0.2l-0.63,0.55l-1.01,0.55l-0.32,0.41l-0.1,0.66l-0.05,0.7l-0.19,0.55
			l-0.55,0.23l-0.34,0.27l-0.1,0.66l-0.05,0.75l-0.16,0.61l0.02,0.67l-0.37,0.91l-0.58,0.8l-0.54,0.35l-0.28,0.07l-1.96,1.08
			l-0.31,0.08l-0.17,0.14l-0.53,0.64l-0.11,0.21l-0.13,0.35l-0.29,0.28l-2.52,1.47l-0.5,0.54l-0.22-0.12l-0.28,0.07l-0.32,0.13
			l-0.27,0.08l-0.61,0.39l-0.15,0.03l-0.02,0.06l0.22,0.12l-0.43,0.19l-0.81,0.19l-0.65,0.52l-0.4,0.25l-0.26,0.26l0.11,0.26
			l0.94-0.63l0.47-0.18v0.34l0.48,0.02l0.15-0.02l0.18-0.08l0.06-0.09l0.05-0.11l0.11-0.16l1.42-1.05l0.66-0.37l0.63-0.25h0.46
			l0.15-0.09l0.08,0.02l0.17,0.08l0.17-0.37l0.34,0.05l0.75,0.47l-0.17,0.06l-0.14,0.09l-0.12,0.15l-0.06,0.17h0.26v0.16l-0.32,0.41
			l-0.01,0.51l0.21,0.28l0.35-0.29l-0.07,0.62l-0.03,0.14l-0.15,0.11l-0.31,0.04l-0.13,0.09l-0.1,0.25l0.07,0.22l0.17,0.16
			l0.25,0.05h2.1v0.16l-0.36,0.08l-0.22,0.23l-0.12,0.33l-0.08,0.41l0.26-0.21l0.26-0.03l0.3,0.08l0.34,0.16l-0.17,0.21l-0.22,0.63
			l-0.31,0.53l-0.06,0.08l-0.12,0.07l-0.2,0.04l-0.07-0.04l-0.07-0.08l-0.33-0.12l-0.6-0.14l-0.22,0.03l0.25,0.12l0.27,0.09
			l0.19,0.23l0.27,0.17l-0.16,0.02l-0.35,0.15l0.09,0.3l0.18,0.12l0.54,0.02l0.21,0.07l-0.05,0.16l-0.15,0.16l-0.08,0.08l-0.08,0.02
			l-0.42-0.02v0.14l0.26,0.07l0.11,0.22v0.3l-0.11,0.32h0.37l-0.21,0.27l-0.36,0.06l-0.4,0.02l-0.28,0.12l1.19,0.43l0.18,0.09
			l0.21,0.66l0.04,0.34l-0.19,0.16l0.04,0.19l-0.23,1.01l0.14,0.34l0.25,0.21l0.31,0.05l0.31-0.15l-0.1-0.08l-0.16-0.16l-0.11-0.06
			l0.13-0.46l0.22-0.02l0.3,0.15l0.36,0.03l-0.25-0.3l0.31,0.11l0.8,0.55l0.16,0.01l0.24-0.06l1.29-0.01l0.16,0.35l-0.17,0.35
			l-0.55,0.57l-0.26,0.41l-0.33,0.85l-0.24,0.34l0.13,0.58l1.15-0.68l0.16-0.04l0.34,0.25l0.52,0.47l0.27,0.14l0.36,0.13h0.38
			l0.33-0.18l0.25-0.27l0.28-0.2l0.25,0.02l0.17,0.36l0.23-0.48l0.4-0.08l0.45,0.17l0.33,0.26l0.09,0.16l0.18,0.43l0.1,0.16
			l0.13,0.11l0.34,0.17l0.15,0.17l0.32-0.36v-0.42l-0.2-0.4l-0.24-0.32l-0.36-0.33l-0.15-0.18l-0.12-0.26l-0.05-0.2v-0.44
			l-0.08-0.26l0.72-0.46l0.13-0.76l-0.09-0.93l0.11-1l0.27-0.48l0.35-0.17l0.85,0.04l0.25-0.05l0.08-0.11l0.04-0.19l0.08-0.25
			l0.39-0.76l0.96-1.44l0.2-0.15l0.18,0.06l0.18,0.18l0.22-0.23l-0.05-0.14l-0.13-0.15l-0.04-0.24l0.2-0.39l0.26-0.25l0.22-0.3
			l0.1-0.51l0.04-0.08l0.09-0.06l0.08-0.08l0.02-0.16l-0.02-0.11l-0.07-0.08l-0.02-0.11l-0.07-0.16l-0.12-0.15l-0.04-0.18l0.12-0.27
			l-0.08-0.43l0.28-0.45l0.43-0.39l0.37-0.25l0.13,0.09l0.13,0.07l-0.06,0.38l0.1-0.04l0.34-0.5l0.18-0.17l0.16-0.1l0.21-0.04
			l0.29-0.01l0.43-0.07l0.46-0.19l0.3-0.28l-0.09-0.36l1.22-0.67l0.8-0.23l0.74-0.68l0.4-0.25l0.79-0.15l0.81,0.02l3.15,0.63
			l0.73,0.28l0.98,0.93l0.78,0.47l0.34,0.32l0.21,0.36l0.35,0.74l0.94,1.25l0.15,0.15l0.41,0.11l0.35,0.27l0.59,0.69l0.08-0.3
			l0.03-0.32l0.01-0.68l0.05-0.31l0.17-0.63l0.12-0.83l0.68-1.8l1.11-1.53l0.15-0.38l0.08-0.3l0.18-0.08l0.26-0.03l0.27-0.12
			l0.21-0.24l0.13-0.3l0.02-0.3l-0.11-0.21l0.4-0.44l1.52-0.78l1.41-1.23l0.46-0.17l0.12-0.09l0.44-0.66l0.65-0.39l0.16-0.06
			l0.47-0.09l0.62-0.25l0.53-0.34l0.23-0.4l-0.26,0.13L118.61,282.48z M255.1,150.03l-0.09-0.08l-0.53-0.51l-0.07-0.25l0.17-0.4
			l-0.1-0.15l-0.03-0.13l0.04-0.16l0.09-0.23l-0.44,0.08l-0.86,0.9l-0.1-0.32l0.08-0.34l0.25-0.53l0.04-0.36l0.06-1.06l0.14-0.57
			l0.04-0.11l0.22-0.24l0.07-0.18l-0.04-0.19l-0.06-0.16l0.02-0.13l-0.06-0.11l-0.44-1.49l-0.06-0.3l-0.07-0.75l-0.1-0.22
			l-0.12-0.16l-0.11-0.19l-0.21-0.44l0.05-0.16l0.21-0.3l0.09-0.24l-0.03-0.26l-0.08-0.26l-0.1-0.52l-0.16-0.12l-0.2-0.06
			l-0.21-0.11l-1.19-1.12l-0.24-0.37l-0.09-0.58l0.18-0.5l0.35-0.29l0.2-0.29l-0.23-0.5l-0.23-0.18l-0.5-0.2l-0.23-0.19l-0.07-0.23
			l0.09-0.24l0.17-0.2l0.18-0.08l0.15-0.28l-0.21-0.61l-0.5-0.95l-0.34-0.41l-0.12-0.2l-0.05-0.3l-0.05-0.15l-0.27-0.61l-0.11-0.08
			l-0.46-0.59l-0.09-0.16l-0.17-0.51l-0.42-0.68l-1.26-1.45l-0.84-0.66l-0.1-0.04l-0.38,0.02l-0.39,0.11l-0.18-0.01l-0.73-0.8
			l-0.17-0.3l-0.09-0.26l-0.8-3.64l-0.35-4.2l-0.16-0.61l0.2-1.05l-0.21-2.6l0.16-0.9l-0.09-0.19l-0.05-0.19l-0.01-0.22l0.01-0.23
			l0.33-1.61l0.12-0.24l0.08-0.28l0.35-2.28l0.08-0.2l0.25-0.39l0.1-0.25l0.07-0.29l0.02-0.28l-0.09-0.6l-0.23-0.09l-0.29,0.25
			l-0.28,0.37l-0.52,0.52l-0.67,0.36l-0.77,0.17l-0.84-0.02l-0.9-0.38l-0.6-0.67l-0.48-0.74l-0.57-0.6l-1.06-0.84l-0.44-0.19
			l-0.69-0.08l-0.23-0.09l-0.18-0.14l-0.15-0.17l-0.16-0.14l-0.2-0.05l-0.42-0.18l-0.31-0.31l-0.26-0.06l-0.24,0.55v0.12l0.14,0.08
			l0.01,0.15l-0.06,0.11l-0.15,0.24l-0.06,0.12l-0.21,0.59l-0.94,1.56l-0.04,0.25l-0.09,0.13l0.1,0.61l-0.01,0.19l-0.46,0.59
			l-0.06,0.25l-0.02,0.52l-0.04,0.23l-0.37,0.77l-0.01,0.48l-0.06,0.47l-0.11,0.49l-0.21,0.49l0.62,0.88l0.42,0.12l0.81-0.66
			l0.24-0.09l0.57-0.08l0.24-0.1l0.65-0.41l2.16-0.23l0.98-0.32l0.69-0.98h-0.24l0.06-0.2l0.08-0.18l0.11-0.16l0.14-0.15l0.87,0.6
			l0.27,0.25l0.58,0.78l0.23,0.48l0.15,0.89l0.01,0.26l-0.07,0.28l-0.09,0.15l-0.32,0.36l-0.11,0.18l-0.09,0.51l-0.02,1.6
			l-0.08,0.48l-1.01,2.47l-0.3,0.46l-0.34,0.2l-0.43-0.04l-0.36-0.11l-0.33-0.2l-1.02-0.94l-0.42-0.27l-0.37-0.12l-0.79-1.05
			l-0.29-0.3l-0.4,0.11l-0.25-0.07l-0.21,0.03l-0.29,0.44l-0.19,0.47l-0.02,0.34l0.13,0.3l0.23,0.41l-0.51,0.9l-0.56,0.78
			l-0.75,0.39l-0.98-0.23l-0.64-0.64l-0.36-0.94l-0.35-2.77l-0.25-0.81l-0.08-0.74l-0.1-0.52v-0.3l0.06-0.25l0.26-0.53l0.07-0.23
			l-0.23-1.01l-0.65-0.59l-0.82-0.17l-0.72,0.25l-0.35,0.27l-0.39,0.23l-0.42,0.04l-0.43-0.29l-0.49-0.65l-0.3-0.27l-0.83-0.33
			l-0.17,0.07l-0.11,0.57l-0.07,0.26l-0.04,0.26l0.09,0.25l0.11,0.57l-0.21,0.59l-0.41,0.33l-0.45-0.24l-0.26,0.18l0.25,0.36
			l0.74,0.47l0.16,0.44l0.08,0.58l0.23,0.36l0.72,0.46l-0.16,0.32l0.12,0.55l-0.22,0.15l-0.13-0.08l-0.22-0.23l-0.2-0.25l-0.15-0.31
			l-0.12,0.18l-0.12,0.29l-0.08,0.21l-0.01,0.27l0.02,0.6l-0.13,0.44l-0.24,1.53l-0.48,1.5l-0.23,0.41l-0.33,0.29l-1.13,0.46
			l-0.73,0.62l-0.4,0.06l-1.17-0.36h-0.46l-0.39,0.15l-0.17,0.34l-0.09,0.56l-0.25,0.43l-1.92,1.6l-0.35,0.41l-0.07,0.46l0.4,0.34
			l0.88,0.46l0.22,0.42l0.11,0.45l0.05,1.05l-0.06,1.07l0.07,0.37l0.25,0.46l1.03,1.18l0.12,0.41v3.15l-0.08,0.14l-0.36,0.45
			l-0.08,0.26l-0.09,0.51l-0.2,0.57l-1.39,2.93l-0.63,0.71l-0.87,0.33l-0.41-0.04l-1.11-0.31l-0.66-0.49l-0.03,0.35l0.13,0.57
			l0.16,0.42l-0.26,0.11l0.06,0.27l0.4,0.52l0.15,0.26l0.25,0.62l0.16,0.19h1.22l0.33-0.09l0.21-0.21l0.17-0.27l0.25-0.26l0.81-0.14
			l0.84,0.44l0.71,0.7l0.43,0.64l0.36,0.92l0.24,1.03l0.13,1.09l0.05,1.09l-0.27,4.27l-0.43,2.01l-0.71,1.8l-0.26,0.27l-1.01,0.78
			l-0.06,0.39l-0.34,1.02l-0.1,0.47l-0.05,0.98l-0.06,0.47l-0.22,0.43l-0.12,0.4l-0.1,1.19l-0.09,0.45l-1.67,5.08l-0.49,0.88
			l-0.59,0.79l-1.34,1.47l-0.62,0.86l-0.56,0.96l-0.93,2.34l-0.7,1.28l-0.36,0.99l-0.2,0.88l-0.55,4.86l-0.14,0.41l-0.32,0.45
			l-1.93,2.13l-1.28,0.98l-5.74,2.89l-1.28,1.15l-0.92,1.56l-0.8,2.96l-0.35,0.89l-0.53,0.74l-1.28,1.36l-0.5,0.79l-0.42,0.92
			l-0.42,0.71l-0.51,0.59l-1.44,0.98l-2.51,2.48l-1.4,1.12l-0.69,0.37l-0.37,0.11l-2.1,0.05l-0.29,0.19l-0.44,0.45l-1.25,0.98
			l-1.66,0.71l-1.81,0.53l-2.16,1.07l-3,0.78l-1.38,0.49l-0.43,0.51l-0.03,0.23l0.03,0.82l-0.03,0.24l-0.18,0.45l-0.04,0.25
			l-0.17,0.44l-0.37,0.44l-0.75,0.62l-0.74,0.26l-0.95,0.05l-0.97-0.12l-0.77-0.19l-1.59-0.64l-0.71-0.46l-0.52-0.65l-0.06-0.82
			l0.79-2l0.17-0.98v-1.84l-0.12-0.44l-0.3,0.28l-0.48,0.87l-0.42,0.14l-0.36-0.21l-0.55-0.64l-0.36-0.06l-0.38,0.22l-0.35,0.08
			l-0.24-0.47l0.17-0.29l0.21-0.26l0.08-0.25l-0.21-0.3l0.91-1.29l0.03-0.47l0.08-0.19l0.19,0.11l0.37,0.39l0.36,0.08l0.62,0.27
			l0.37-0.01l0.29-0.21l0.86-1l0.19-0.49l0.24-0.48l0.4-0.22h1.33l0.34-0.09l0.27-0.12l0.23-0.2l0.25-0.32l0.11-0.42l-0.18-0.34
			l-0.51-0.58l0.15-0.29l0.21-0.62l0.16-0.21l0.26-0.11l0.26,0.01l0.26,0.07l0.24,0.04l0.58-0.24l0.06-0.4l-0.09-0.53l0.21-0.57
			l-0.75-0.64l-1.12,0.13l-2.75,1.1l-0.43,0.27l-0.19,0.33l-0.21,0.17l-2.46,1.13l-0.32,0.06l-1.14,0.06l-0.32,0.09l-0.78,0.37
			l-0.65,0.49l-0.44,0.65l-0.18,0.87l0.02,0.49l-0.05,0.17l-0.17,0.24l-0.24,0.23l-0.06,0.13l-0.02,0.27l-0.11,0.47l-0.19,0.47
			l-0.1,0.5l0.14,0.57l0.5-0.26l0.17,0.35l-0.01,1.15l0.11,0.67l0.48,1.1l0.16,0.64l0.02,0.54l-0.02,0.28l-0.14,0.44l0.08,0.26
			l0.12,0.24l0.07,0.23l-0.07,0.47l-1.33,3.23l-0.89,1.6l-4.09,5.18l-0.77,1.39l-0.32,0.2l-0.34,0.12l-0.86,0.57l-1.6,1.84
			l-1.34,0.31l-0.17,0.11l-0.11,0.1l-0.07,0.18l-0.04,0.82l-0.07,0.25l-0.11,0.1l-0.13,0.18l-1.21,1.41l-0.29,0.48l-0.25,0.54
			l-0.22,0.95l-0.29,0.33l-0.34,0.29l-0.27,0.35l0.23,0.37l0.55,0.62l0.11,0.34l0.05,0.56l0.12,0.35l1.44,1.93l0.15,0.34v0.36
			l-0.14,0.96l-0.18,0.46l-0.03,0.21l0.07,0.44l-0.02,0.23l-0.17,0.18l-0.36-0.02l-0.15-0.41v-0.8l-0.38-0.76l-0.64,0.11l-0.4,0.55
			l0.27,0.54l-0.15,0.3l-0.04,0.25l0.07,0.4l0.15,0.33v0.19l-0.21,0.09l-1.24,0.22l-0.62-0.06l-0.16,0.02l-0.15-0.02l-0.06-0.08
			l-0.05-0.12l-0.24-0.36l-0.09-0.08l-0.22,0.05l0.02,0.19l0.13,0.21l0.08,0.09l0.06,0.31l0.14,0.17l0.12,0.12l0.06,0.17l-0.1,0.28
			l-0.23,0.1l-0.25-0.04l-0.2-0.11l-0.01,0.28l0.07,0.23l0.13,0.18l0.21,0.09l-0.41,0.31l-0.39-0.17l-0.38-0.28l-0.35-0.02
			l-0.14-0.28l-0.19-0.07l-0.49,0.06l-0.17,0.14l0.13,0.32l0.35,0.48l0.41-0.23l0.11,0.26l-0.15,0.43l-0.37,0.32l-0.24,0.04
			l-1.68-0.04v-0.17l0.24-0.16l0.31-0.34l0.26-0.35l0.08-0.24l-0.28-0.16l-0.36,0.24l-0.56,0.54l-0.16,0.05l-0.36,0.2l-0.17,0.08
			l-0.18,0.02l-0.53-0.02l-0.34-0.12l-0.05-0.32l0.07-0.41v-0.42l-0.18,0.37l-0.14,0.18l-0.13,0.07l-0.17-0.04l-0.01-0.11l0.04-0.15
			l-0.05-0.17l-0.15-0.21l-0.14-0.26l-0.06-0.28l0.09-0.33l-0.31,0.02l-0.23,0.18l-0.17,0.23l-0.19,0.19l-0.25,0.08l-0.53,0.01
			l-0.24,0.08l-0.27,0.44l0.13,0.47l0.38,0.28l0.53-0.12v0.57l-0.14,0.13l-0.26-0.06h-0.36l-0.3,0.23l-0.27,0.34l-0.2,0.17
			l-0.11-0.27l0.04-0.18l0.18-0.43l0.05-0.24l-0.04-0.29l-0.07-0.04l-0.09,0.05l-0.07,0.03l-1.29-0.78l0.13-0.05l0.11-0.05
			l0.13-0.05l0.15-0.01l-0.24-0.33l-0.1-0.2l-0.03-0.24l-0.31,0.14l-0.25,0.18l-0.16,0.28l-0.06,0.41l-0.07,0.21l-0.15-0.05
			l-0.09-0.26l0.06-0.44l0.21-0.33l0.66-0.77l0.14-0.24l0.09-0.37l0.21-0.36l0.28-0.21l0.3,0.09l0.13-0.32l-0.03-0.39l-0.22-0.52
			l-0.29-0.44l-0.28-0.21l-0.35-0.11l-0.28-0.24l-0.33-0.18l-0.48,0.07l-1.1,0.56l-0.38,0.08l-0.35,0.14l-0.68,0.7l-0.31,0.23
			l-0.39,0.12l-0.44,0.04l-0.17,0.07l-0.27,0.32l-0.19,0.08l-0.11,0.07l-0.39,0.3l-0.2,0.09H122l-0.37-0.12l-0.18-0.02l-0.66,0.14
			l-0.18-0.07l-0.14-0.14l-0.18-0.12l-0.22-0.1l-0.23-0.03l-1.83,0.2l-0.72,0.22l-0.37,0.05l-1.84-0.31l-0.43,0.1l-0.77,0.44
			l-0.78,0.17l-1.21,0.54l-0.18,0.04l-0.17,0.01l-0.18,0.05l-0.95,0.61l-0.3,0.39l-0.15,0.15l-0.16,0.06l-2.95,0.59l-2.33,0.03
			l-3.11,0.52L99.79,245l-1.71-0.51l-0.84-0.13l-0.89,0.16l-0.32,0.14l-0.72,0.44l-0.61,0.56l-0.66,0.2l-0.36,0.23l-0.52-0.23
			l-0.72-0.17l-0.65-0.26l-0.27-0.52l-0.08-0.31l-0.11-0.27l0.01-0.27l0.29-0.33l0.3-0.09h0.29l0.25-0.07l0.2-0.31l-0.83,0.07
			l-0.34,0.09l-0.36,0.17l-0.09-0.1l-0.21-0.13l-0.09-0.09l-0.04,0.12l-0.13,0.1l-0.08,0.11l-0.34-0.11l-0.71,0.01l-0.36-0.06
			l-0.34-0.24l-0.25-0.23l-0.21-0.05l-0.23,0.35v-0.17l-0.24,0.25l-0.27,0.37l-0.33,0.34l-0.37,0.15l-0.49-0.02l-0.24,0.07
			l-0.09,0.19l-0.05,0.3l-0.12,0.1h-1.9l-0.22,0.08l-0.2,0.17l-0.98,0.43l-0.31,0.07h-0.08L82,245.6l-0.16,0.06l-0.14,0.11l0.3,0.25
			l-0.26,0.09l-0.81-0.01l-0.33,0.07l-0.39,0.15l-0.35,0.23l-0.2,0.31l0.17,0.14l0.48,0.28l0.18,0.05l0.19,0.12v0.26l-0.13,0.48
			l-0.08,0.49l-0.19,0.49l-0.25,0.4l-0.24,0.26l-1.17,0.56l-0.3,0.07L78,250.6l-0.7,0.64l-0.39,0.15l-1.32,0.92l-0.11,0.23
			l-0.11,0.58l-0.09,0.19l-0.5,0.48l-0.88,1.28l-0.34,0.33l-0.35,0.16l-0.81,0.16l-0.36,0.15l-0.89,0.96l-0.68,0.28l-0.38,0.35
			l-0.7,0.89l-0.25,0.41l-0.11,0.3l-0.42,0.02l-0.2,0.12l-0.45,0.65l-1.08,1.23l-0.36,0.26l-0.42,0.1l-0.01,0.08l-0.45,0.33
			l-0.09,0.05l-0.06,0.19l-0.09,0.52l-0.1,0.21L64.99,263l-0.88,0.24l-0.69,0.1l-0.78,0.23l-0.43,0.02l-0.37,0.39l-0.23,0.11
			l-0.51-0.25l-0.32,0.07l-0.29,0.19l-0.2,0.24l0.17,0.25l0.02,0.2l-0.11,0.13l-0.55,0.1l-0.07,0.12l-0.01,0.21l-0.09,0.24
			l-0.26,0.35l-0.29,0.32l-0.71,0.54l-0.39,0.09l-0.13,0.1l0.13,0.44l-0.11,0.2l-1,0.87l-0.04,0.23l0.27,0.4l-2.42,0.88l-0.9,0.06
			l-0.14,0.04l-0.24,0.18l-0.14,0.07l0.06-0.33l0.08-0.29l0.11-0.26l0.13-0.2l0.19,0.13l0.19,0.09l0.19,0.02l0.2-0.09l-0.25-0.35
			l-0.19-0.15l-0.24-0.01l-0.51,0.1l-0.27,0.1l-0.39,0.06l-0.03,0.11l0.05,0.16l0.08,0.73l-0.09,0.22l-0.36-0.04l-0.24-0.2
			l-0.29-0.64l-0.22-0.24l-0.25,0.09l-0.46-0.25l-0.25,0.08l-0.19,0.13l-0.26,0.09l-0.26,0.03l-0.24-0.02l-0.16-0.1l-0.12-0.16
			l-0.15-0.13l-0.26-0.06l-0.26,0.07l-0.2,0.19l-0.16,0.25l-0.09,0.27l0.23,0.08l0.04-0.06l0.11-0.19l0.19,0.08l0.71,0.16l0.07,0.26
			l0.1,0.08l-0.01,0.04l-0.29,0.16l-0.77,0.17l-0.12,0.07l-0.12,0.17l-0.27,0.04l-0.31-0.04l-0.21-0.09l-0.13,0.26l-0.06,0.27
			l-0.07,0.69l-0.08,0.16l-0.12,0.16l-0.07,0.16l0.09,0.21l0.28,0.23l0.03,0.08l0.06,0.26l0.26,0.44l0.1,0.57l0.08,0.16l0.05,0.2
			l-0.04,0.3l-0.18,0.36l-0.22,0.2l-0.24,0.16l-0.23,0.22l-0.23,0.36l0.02,0.25l0.13,0.23l0.08,0.31l0.09,0.22l0.44,0.39l0.1,0.17
			l-0.05,0.31l-0.05,0.21l0.02,0.21l0.19,0.26l-0.11,0.32l-0.04,0.43l-0.11,0.36l-0.37,0.11v0.15l0.26,0.12l0.1,0.18l0.11,0.06
			l0.3-0.2l0.89-0.92l0.75-1.06l0.48-0.35l0.69,0.02l0.31,0.17l0.71,0.73l0.56,0.32l0.17,0.05l0.01,0.1l-0.02,0.15l0.07,0.33
			l0.02,0.2l0.04,0.18l0.1,0.08l0.16-0.06l0.15-0.1l0.1-0.12l0.03-0.04l0.14-0.07l0.12-0.07h0.09l0.03,0.2l0.06,0.15l0.14,0.05
			l0.17-0.04l0.14-0.08l0.14,0.29l0.27-0.05l0.91-0.58l0.2-0.2l0.43-0.62l0.5-0.97l0.13-0.14l0.2,0.14l0.08,0.35l-0.06,0.41
			l-0.16,0.3l0.17,0.09l0.14-0.04l0.11-0.15l0.09-0.21l0.05,0.13l0.09,0.16l0.11,0.12l0.14,0.04l0.16-0.07l0.03-0.09v-0.08
			l0.07-0.08l0.02-0.13l0.18-0.17l0.05,0.01l0.09-0.17l-0.01-0.12l-0.08-0.17l0.25-0.12l0.19,0.09l0.33,0.35l0.15,0.09l0.59,0.2
			l0.01-0.07l0.09-0.07l0.11,0.01l0.06,0.19l0.01,0.14l0.03,0.08l0.08,0.02l0.13-0.01l0.27-0.14l0.08-0.24l-0.07-0.28l-0.16-0.25
			l0.15-0.24l0.09,0.02l0.06,0.13l0.09,0.08h0.5l0.22-0.06l0.58-0.25l0.24-0.16l0.27,0.07l0.71-0.27l0.42,0.15l-0.15,0.06
			l-0.11,0.21l-0.16-0.04l-0.03-0.04l-0.08,0.02l-0.06,0.01l-0.11,0.04l-0.05,0.09l0.23,0.24l0.15-0.07l0.09-0.1l0.1-0.02l0.11-0.16
			l0.08-0.04l0.14-0.14l0.52,0.2l0.26,0.21l0.17,0.04l0.02,0.15l-0.3,0.32l-0.56,0.45l0.04,0.35l0.21,0.13l0.66-0.02v-0.14h-0.26
			l0.39-0.52l0.34-0.08l0.35,0.21l0.43,0.39l0.18,0.1l0.51,0.21l0.2,0.14l0.46,0.65l0.1,0.11l0.42,0.07l1.17,0.41l0.33,0.21
			l0.21,0.17l0.24,0.15l0.18,0.22l0.07,0.39l-0.08,0.33l-0.18,0.14l-0.23-0.03l-0.16-0.22l-0.04,0.19l-0.14,0.33l-0.06,0.11
			l-0.39,0.31l-0.06,0.37l0.27-0.02l0.37-0.21l0.56-0.5l0.82-0.46l0.22-0.26l-0.03-0.35l-0.4-0.83l-0.09-0.41l0.04-0.56l0.14-0.18
			l0.27-0.06l0.45-0.19l0.59-0.72l-0.04-0.79l-0.21-0.89l0.04-0.97l0.22-0.36l0.25-0.17l0.21-0.23l0.09-0.54l-0.1-0.83l-0.12-0.47
			l-0.17-0.32l1.67-1.96l0.62-0.5l0.7-0.37l0.4-0.06l0.68,0.41l0.37,0.01l0.36-0.12l0.29-0.18l0.39,0.22l0.16,0.17l0.09,0.23
			l-0.15,0.02l-0.23,0.1l-0.14,0.04l0.1,0.27l-0.03,0.17l-0.07,0.2v0.28l0.07,0.1l0.26,0.29l0.22,0.56l0.33,0.31l0.15,0.28
			l-0.27,0.32l0.18,0.27l0.21,0.01l0.5-0.28l0.07-0.07l0.06-0.11l0.09-0.09l0.17-0.05l0.03,0.07l0.06,0.15l0.07,0.15l0.09,0.08
			l0.54-0.02l0.87-0.58l0.44-0.15l0.57-0.01l0.27-0.06l0.13-0.17l-0.1-0.24l-0.17-0.23l-0.02-0.16l0.29-0.05l0.39-0.25l0.36-0.43
			l0.34-0.18l0.3,0.53l0.56-0.38l0.53-0.23l1.97-0.19l0.77-0.2l0.49-0.42l-0.13-0.7l0.27-0.17l0.19,0.11l0.18,0.02l0.18-0.01
			l0.21,0.04l0.35,0.19l0.29,0.25v0.17l-0.4,0.08l-0.26,0.75l-0.38,0.09l0.07-0.27l0.02-0.36l-0.08-0.2l-0.2,0.15l-0.3,0.42
			l-0.19,0.21l-0.09-0.01l-0.02,0.89l0.1,0.4l0.31,0.16l0.17-0.1l0.43-0.43l0.34-0.13l0.21-0.2l0.1-0.06l0.09,0.04l0.24,0.2
			l0.14,0.06l0.32-0.19l0.11-0.42l-0.13-0.46l-0.37-0.3l0.24-0.27l0.34-0.21l0.3-0.3l0.33-1.13l0.36,0.13l0.18,0.42l-0.33,0.27v0.17
			l0.47-0.02l0.39,0.12l0.19,0.26l-0.18,0.38l-0.18,0.09l-0.25,0.05l-0.23,0.08l-0.1,0.16l0.1,0.21l0.21,0.02l0.26-0.08l0.55-0.27
			l0.29-0.25l1.32-1.72l0.19-0.46l-0.15-0.13l0.08-0.37l0.21-0.12l0.48,0.02l0.23-0.1l0.41-0.28l0.19-0.07l0.41,0.21l-0.25,0.46
			l-0.74,0.86l1.16-0.48l0.1-0.08l0.1-0.1l0.12-0.08l0.35-0.07l0.15-0.08l0.13-0.12l0.05-0.16l0.19-0.14l0.83-0.44l0.54-0.19
			l0.28-0.21l0.28-0.14l0.31,0.14l0.12-0.17l0.05,0.25l0.09,0.22l0.11,0.1l0.14-0.08l0.46,0.41l0.21,0.55l0.26,0.45l0.6,0.12
			l-0.09-0.55l0.7-0.01l1.43,0.26l0.33-0.51l0.24-0.74l0.3-0.5l0.55,0.19l-0.07-0.19l-0.02-0.04l-0.05-0.07l0.24-0.23l0.29-0.19
			l0.22-0.26l0.01-0.4l-0.19-0.27l-0.31-0.08l-0.34,0.05l-0.32,0.13l-0.48,0.55l-0.28,0.2l-0.24-0.12l-0.08-0.39l0.2-0.21l0.33-0.12
			l0.47-0.29l0.27-0.06l0.64-0.01l0.35,0.1l0.41,0.42l0.26,0.1l0.56-0.1l0.64-0.26l0.54-0.4l0.24-0.5l-0.19,0.1l-0.17,0.03
			l-0.15-0.03l-0.13-0.1l0.28-0.21l0.14-0.06l0.34-0.08l0.3-0.2l0.15-0.04l0.09-0.11l0.37-0.53l0.13-0.05l0.36-0.05l0.15-0.05
			l-0.96-0.22l-0.19-0.08l-0.15-0.37l0.21-0.01l0.51,0.23l0.53,0.07l0.94,0.24l0.51-0.01l-0.03-0.26l0.1-0.25l0.19-0.19l0.25-0.09
			l0.15,0.06l0.16,0.13l0.2,0.11l0.26,0.02l0.16-0.11l0.47-0.65l0.1-0.06l0.09,0.02l0.06-0.02l0.02-0.18l0.03-0.14l0.09-0.12
			l0.12-0.07l0.11-0.05l-0.01,0.33l0.1,0.18l0.18,0.08l0.25,0.04l0.11-0.02l0.13-0.05l0.11-0.08l0.09-0.08l0.12-0.06l0.1,0.03
			l0.1,0.07l0.13,0.04l2.4-0.21l0.91,0.21l0.33,0.21l0.71,0.59l0.61,0.21l1.03,0.68l0.56,0.64l0.37,0.3l0.4,0.13l0.35,0.06
			l1.24,0.42l0.7-0.05l0.97-0.25l0.8-0.38l0.21-0.41l1.66-0.62l0.18-0.12l0.33-0.27l0.19-0.06l0.25,0.02l0.17,0.08l0.58,0.39
			l0.18,0.08l0.23,0.03l0.38-0.02l0.69,1.15l0.08,0.41l-0.2,0.32l0.28,0.65l-0.1,0.61l-0.32,0.52l-0.5,0.52l-0.06,0.09l-0.07,0.06
			l-0.19,0.02l-0.05,0.07l-0.03,0.34l-0.05,0.12l-2.04,2.17l-0.33,0.25l-0.42,0.25l-2.38,1.02l-0.66,0.58l0.17,0.74l0.33,0.2
			l0.39,0.14l0.31,0.22l0.24,0.94l0.28,0.24l0.29,0.19l0.19,0.36l-0.06,0.3l-0.65,0.03l-0.36,0.2l-0.03,0.07v0.2l-0.03,0.11
			l-0.06,0.04l-0.15,0.07l-0.04,0.03l-0.39,0.77l0.3,0.03l0.42,0.17l0.36,0.21l0.18,0.21l-0.02,0.33l-0.14,0.33l-0.22,0.27
			l-0.18,0.11l-0.28,0.05l-0.27,0.14l-0.2,0.24l-0.07,0.37l0.31,0.32l0.05,0.2l-0.3,0.09l-0.11,0.08l-0.01,0.21l0.07,0.41
			l-0.07,0.08l-0.13-0.02l-0.14,0.04l-0.05,0.19l0.13,0.24l0.29-0.01l0.61-0.17l0.36,0.12l0.23,0.24l0.37,0.64l0.43,0.52l0.51,0.48
			l0.37,0.22l0.47,0.35l0.51,0.26l0.5,0.09l0.32,0.15l0.95,0.71l0.2,0.27l-0.26,0.34l-0.51,0.09l-0.37,0.17l0.12,0.54l0.1,0.07
			l0.31,0.05l0.1,0.04l0.1,0.14l0.22,0.4l0.08,0.2l0.02,0.26l0.06,0.27l0.16,0.26l0.67,0.52l0.77,0.36l2.81,0.89l0.57,0.09
			l1.85,0.68l0.06,0.12l-0.16,0.3l-0.03,0.17l0.19-0.05l0.35-0.2l0.14-0.7l0.05-0.19l0.09-0.12l0.12-0.07l0.3-0.12l1.07-0.66
			l0.27-0.09l0.29-0.17l0.76-0.8l0.17-0.25l-0.41,0.21v-0.31l0.26-0.74l0.08-0.37l0.36-0.23l0.18-0.66l0.67-0.95l1-2.75l0.38-0.64
			l0.46-0.27l0.2-0.02l0.1-0.07l0.19-0.28l0.15-0.16l0.08-0.06l0.63-0.1l0.14-0.14l0.09-0.39l0.33,0.14l0.11-0.22l-0.14-0.3
			l-0.42-0.08v-0.14l0.26-0.21l0.24-0.27l0.12,0.24l0.16,0.24l0.21,0.12l0.26-0.12l0.04-0.19l-0.01-0.6l0.03-0.12l0.06-0.11
			l-0.16-0.24l-0.34-0.34l-0.04-0.29l-0.12-0.18l-0.21-0.08l-0.27,0.01v-0.17l0.22-0.15l0.29-0.47l0.12-0.11l0.15,0.07l0.23,0.44
			l0.19,0.09l0.15-0.02l0.17-0.07l0.15-0.1l0.09-0.1l0.1-0.31l-0.04-0.13l-0.16-0.08l-0.2-0.17l0.04-0.65l0.7-0.66l0.88-0.45h0.61
			l0.19-0.22l0.84-0.56l0.58,0.22l0.21-0.01l-0.16-0.37l0.11-0.13l0.1-0.2l0.1-0.26l0.18,0.03l0.52,0.27l0.01-0.2l0.05-0.08
			l0.08-0.05l0.11-0.14l0.34,0.4l0.29-0.04l0.27-0.23l0.6-0.26l0.23-0.27l0.02-0.26l-0.34-0.1l0.49-0.27l0.57-0.18l0.3,0.07
			l-0.28,0.46l-0.1,0.35l0.43,0.09l0.56-0.11l0.32-0.26l0.63,0.45l0.02-0.16l0.02-0.08v-0.07l-0.04-0.15l0.37-0.1l0.35,0.1l0.2,0.31
			l-0.15,0.47l-0.25-0.17l0.05,0.11l0.03,0.22l0.05,0.14l-0.23-0.16l-0.39-0.17l-0.39-0.08l-0.27,0.11l0.03,0.24l0.35,0.19
			l0.45,0.12l0.31,0.03l0.3-0.07l0.66-0.24l0.18-0.15l0.08-0.35l-0.05-0.42l-0.13-0.37l-0.15-0.23l0.1-0.17l0.11-0.16l0.29-0.27
			l-0.24,0.02l-0.19-0.07l-0.14-0.12l-0.08-0.15l0.14-0.21l0.18-0.08l0.21,0.02l0.23,0.11l0.17-0.82l-0.02-0.25l-0.16-0.23
			l-0.17-0.01l-0.19,0.02l-0.25-0.09l-0.18-0.22l-0.06-0.21l-0.03-0.24l-0.12-0.27l-0.18-0.14l-0.24-0.08l-0.26-0.01l-0.19,0.08
			l-0.2-0.2l-0.96-0.41l-1.39-0.93l-0.27-0.26l-0.26-0.32l-0.29-0.25l-0.39-0.11l-0.82-0.01l-0.31-0.12l-0.2-0.31l0.02-0.23
			l0.08-0.31l0.01-0.27l-0.18-0.12l-0.08-0.08l-0.19-0.36l-0.05-0.1l0.05-0.48l0.1-0.44l0.36-0.86l0.46-0.67l1.08-1.28l0.37-0.84
			l0.09-0.49l0.03-0.52l-0.05-0.13l-0.18-0.2l-0.04-0.13l0.01-0.12l0.1-0.2l0.02-0.15l0.17-0.33l0.41-0.38l0.84-0.6l0.35,0.09
			l0.44-0.21l0.86-0.64l0.36-0.17l0.1-0.07l0.14-0.17l0.09,0.01l0.08,0.07l0.11,0.01l0.24-0.01l0.17-0.04l0.22-0.12l-0.06,0.39
			l0.12,0.6l-0.07,0.44l-0.11,0.22l-0.42,0.58l-0.37,0.27l-0.17,0.34l-0.12,0.41l-0.07,0.34v0.43l0.21,0.72l0.05,0.32l0.11,0.25
			l0.24,0.3l0.18,0.34l-0.09,0.33l-0.15,0.32l-0.09,0.39l-0.01,0.41l0.08,0.34l0.35,0.39l0.63,0.4l0.71,0.32l0.59,0.15l-0.14-0.43
			l-0.19-0.34l-0.44-0.62l-0.21-0.4l-0.06-0.33l0.04-1.16l0.09-0.37l0.14-0.33l0.34-0.55l0.24-0.61l0.17-0.28l0.08,0.59l0.01,1.68
			l0.23,0.35l0.12,0.14l0.22,0.61l0.11,0.19l0.27,0.1l0.5-0.1l0.47,0.18l0.64-0.26h0.2l0.21,0.11h0.32l0.32-0.07l0.25-0.12
			l0.18-0.19l0.09-0.2l0.11-0.16l0.32-0.05l0.48,0.05l0.21-0.05l0.26-0.18l0.62,0.56l0.16,0.21l0.07,0.19l0.07,0.43l0.1,0.36
			l0.09,0.2l0.04-0.1l0.04,0.06l0.07,0.06l0.02,0.08l-0.12,0.1l-0.11,0.02l-0.27-0.03l-0.12,0.02l-0.83,0.46l-0.49,0.12l-0.89,0.53
			l-0.53,0.12l-0.26,0.13l-0.23,0.26l-0.18,0.26l-0.1,0.12l-0.28-0.07l-0.12-0.14l-0.06-0.16l-0.11-0.1l-0.49,0.09l-0.26,0.44
			l-0.19,0.48l-0.27,0.23l-0.1,0.07l0.12,0.15l0.23,0.15l0.19,0.09l1.58-0.25l3.8-1.4l1.61-0.34l2.51-0.14l0.55-0.32l0.61,0.38
			l3.05,0.48l2.84-0.34l0.72,0.03l0.71,0.13l3.11,1.25l0.81,0.05v-0.16l-0.31-0.2l-0.28-0.37l-0.15-0.45l0.16-0.42l0.83-1.55
			l0.2-0.21l1.2-0.95l0.25-0.37l0.08-0.19l0.05-0.21l-0.02-0.25l-0.2-0.43l-0.04-0.23l0.16-0.43l0.3-0.31l0.34-0.28l0.29-0.3
			l0.25-0.15l1.1-0.47l0.18-0.15l1.08-0.56l0.26-0.5l-0.17-0.12l-0.37,0.12l-0.34,0.19l0.07-0.45l0.15-0.33l0.53-0.61l0.69-1.07
			l0.26-0.16l0.83-0.05l0.37-0.1l0.39-0.16l0.81-0.21l0.84,0.08l0.8,0.3l0.74,0.45l1.21,1.31l-0.26,0.24l-0.3,0.17l-0.36,0.09
			l-0.43,0.05l-0.69-0.01l-0.32,0.19l-0.13,0.52l-0.05,0.71l0.05,0.28l0.08,0.23l0.22,0.33l0.09,0.23l-0.33,0.15l-0.22,0.18
			l-0.09,0.3l-0.01,0.45l0.05,0.07l0.08,0.09l0.09,0.14l0.04,0.18l-0.02,0.04l-0.1,0.59l0.02,0.43l0.11,0.69l-0.01,0.25l-0.16,0.27
			l-0.21,0.19l-0.16,0.22l0.01,0.4l0.1,0.22l0.14,0.08l0.13,0.05l0.14,0.12l0.08,0.17l0.17,0.6l0.14,0.24l0.21,0.28l0.26,0.25
			l0.28,0.15l0.63-0.07l0.63-0.38l1.04-1.06l0.1,0.24l0.15,0.15l0.18,0.02l0.22-0.11l-0.11-0.34l-0.04-0.42l0.05-0.41l0.15-0.3
			l0.1-0.16l0.2-0.37l0.15-0.17l0.13-0.07l0.33-0.09l0.12-0.08l0.39-0.54l0.14-0.33l0.06-0.37l0.02-0.37l0.07-0.32l0.18-0.21
			l0.29-0.08l0.51-0.35l0.14-0.78l-0.1-0.84l-0.21-0.52l-0.48-0.42l-0.06-0.23l0.01-0.45l0.11-0.55l-0.06-0.24l-0.31-0.12l0.39-1.23
			l0.3-0.46l0.57-0.16l-0.28-1.07l0.37-0.94l0.75-0.74l0.82-0.51l0.73-0.28l0.8-0.19l1.65-0.14l0.85,0.05l0.43,0.11l0.32,0.21
			l0.18,0.09l0.44-0.04l0.2,0.02l0.24,0.12l0.09,0.14l0.07,0.17l0.92,1.52l0.02,0.25l0.1,0.14l-0.04,0.32l-0.14,0.47l0.04,0.28
			l0.03,0.1l0.09,0.03l0.44,0.06l0.28-0.12l0.21-0.04l0.18-0.09l-0.09-0.2l-0.18-0.24l-0.09-0.17l0.16-0.41l0.37-0.32l0.74-0.44
			l-0.04-0.08l-0.02-0.08l-0.04-0.08l-0.07-0.09l0.36-0.35l-0.36-0.21l-0.58-0.24l-0.29-0.43l-0.18,0.09l-0.06,0.06l-0.18-0.31
			l-0.1-0.37l-0.01-0.36l0.09-0.3l0.06-0.35l-0.33-0.64l0.08-0.33l0.27-0.14l0.28,0.07h0.22l0.09-0.31l-0.08-0.24l-0.19-0.18
			l-0.23-0.16l-0.19-0.18l-0.06-0.38l0.41-0.12l0.59-0.07l0.46-0.22l0.26-0.15l0.64-0.28l0.18-0.26l-0.02-0.32l-0.15-0.3l-0.35-0.48
			l0.21-0.37l-0.05-0.53v-0.52l0.36-0.31l0.07,0.35l0.16,0.08l0.34-0.1l0.29-0.04l0.17-0.1l0.13-0.19l0.12-0.31l0.26,0.45l0.16,0.14
			l0.22,0.05l0.3-0.12l0.18-0.22l0.12-0.26l0.15-0.19l0.24-0.09l0.29,0.01l0.66,0.1l0.6,0.26h0.1l0.16-0.12l0.29,0.34l0.24,0.36
			l0.17,0.37l0.06,0.42l0.17,0.09l0.33,0.35l0.18,0.39l-0.23,0.18l-0.37,0.17l-0.54,0.75l-0.5,0.35l-0.58,0.75l-0.18,0.17
			l-0.26,0.07l-0.82,0.35l-0.26,0.19l-0.13,0.34l0.2,0.6l-0.07,0.45l-0.23,0.33l-0.32,0.12l-0.36,0.06l-0.36,0.12l-0.54,0.31
			l-0.31,0.12l-0.41,0.05v0.15l0.92,0.37l0.32,0.29l0.54,1.13l-0.02,0.17l-0.17,0.29l-0.19,0.18l-0.47,0.34l-0.17,0.18l0.19,0.45
			l0.07,0.35l-0.01,0.81l0.04,0.25l0.17,0.43l0.04,0.26l-0.07,0.25l-0.21,0.21l0.02,0.23l0.37,0.15l0.23,0.17l0.04,0.32l-0.09,0.2
			l-0.12,0.08l-0.36,0.01l-0.08,0.04l-0.15,0.12l-0.19,0.1l-0.22,0.05l-0.37,0.03l-0.17,0.05l-0.16,0.09l0.18,0.31l0.9,0.7
			l0.16,0.23l0.07,0.14l0.1,0.09l0.24,0.09l0.16,0.02l0.18,0.01l0.43-0.04l0.73-0.19l0.37-0.21l0.16-0.3l0.02-0.23l0.09-0.44
			l0.02-0.26l0.06-0.26l0.26-0.43l0.06-0.25l0.17-0.17l1.12-0.68l0.7-0.25l0.3-0.28l0.14-0.47l0.16-0.28l0.4-0.12l1.26,0.06
			l0.32-0.04l0.29-0.1l0.36-0.23l0.25,0.04l0.43-0.08l0.41-0.15l0.19-0.18l0.11-0.43l0.27-0.24l0.36-0.17l0.34-0.25l0.32-0.73
			l0.02-0.93l-0.12-0.9l-0.16-0.63l-0.03-1.92l0.74-1.8l1.12-1.52l2.34-2.19l0.71-0.37l1.3-0.19l0.75-0.21l0.52-0.08l0.39-0.12
			l0.23-0.01l0.18,0.08l0.41,0.25l0.17-0.01l0.09-0.2v-0.29l-0.06-0.31l-0.1-0.19l-0.17-0.1l-0.24-0.09l-0.2-0.11l-0.2-0.42
			l-0.78-1.09l-3.24-5.68l-0.34-0.89l-0.34-1.48l-0.2-1.99l-0.09-0.28l0.32-0.45l0.69-1.34l0.14-0.59l-0.02-0.37l-0.24-0.89
			l-0.01-0.35l0.25-1.67l0.29-0.77l1.02-1.81l0.9-3.48l0.18-0.38l0.78-1.21l0.16-0.45v-0.41l0.04-0.26l0.15-0.13l0.15-0.08
			l0.28-0.32l0.44-0.13l0.61-0.42l0.48-0.1l0.16-0.06l0.64-0.63l0.26-0.83l0.25-2.05l0.33-0.77l0.04-0.25v-2.15l0.12-0.31v-0.72
			l0.4-1.72l0.11-0.74l-0.25-6.32l-0.06-0.24l-0.26-0.33l-0.07-0.16l0.03-0.15l0.18-0.31l0.06-0.19v-0.48l-0.09-0.3l-0.18-0.24
			l-0.26-0.26l-0.44-0.62l-0.32-0.78l-0.38-1.66l-0.24-1.72l-0.02-0.99l0.14-0.99l0.75-2.85l0.4-0.86l0.55-0.89l0.65-0.81l0.18-0.13
			l0.19-0.12l0.15-0.13l0.04-0.18l-0.08-0.22l-0.17-0.07l-0.21,0.02l-0.18,0.1l0.1-0.46l0.2-0.42l0.27-0.34l0.34-0.25l0.16,0.13
			l0.16,0.03l0.16-0.03l0.16-0.13l0.29,0.99l0.08,0.15l0.33,0.01l0.11-0.04l-0.05-0.54l0.16-0.57l0.39-0.35l0.51-0.19l1.39-0.33
			l0.53-0.02l0.4,0.15l0.42,0.4l0.18,0.11l0.23,0.07h0.23l0.17-0.07h0.16l0.21,0.22l-0.17,0.51l-0.09,0.16l0.6,0.29l0.17,0.18
			l0.01,0.13l-0.08,0.14l-0.06,0.13l0.06,0.17l0.12,0.08l0.27,0.01l0.12,0.07l0.51,0.52l0.13,0.07l0.23-0.65l0.1-0.18l-0.25-0.36
			v-0.51l-0.08-0.48l-0.45-0.27l0.15-0.32l0.21-0.13l0.26,0.02l0.27,0.11l-0.2-0.31l-0.36-0.09l-0.36,0.06l-0.21,0.18l-0.19-0.23
			l-0.01-0.19l0.01-0.2l-0.12-0.26l0.01-0.15l0.22-0.12l0.46-0.14l-0.06-0.1l-0.02-0.09l-0.04-0.08l-0.11-0.07l0.1-0.22l0.27-0.89
			l0.06,0.25l0.1,0.19l0.15,0.13l0.2,0.06l0.08-0.48l0.01-0.4l-0.1-0.35l-0.25-0.37l-0.27,0.34l-0.28-0.16l-0.3-0.37l-0.3-0.29
			l0.83-0.66l0.11-0.16l0.19-0.33l0.13-0.33l-0.05-0.15l-0.87-0.06l-0.22-0.11l-0.2-0.24v-0.14l0.34-0.27l0.19-0.11l0.46-0.16
			l0.18-0.14l0.24-0.34l0.09-0.08l0.11,0.01l0.1,0.1l0.09,0.07l0.13-0.09l0.11-0.36l-0.1-0.24l-0.34-0.28l-0.19-0.37l-0.12-0.17
			l-0.19-0.11l0.17-0.3l0.79-0.62l0.26-0.29l0.05-0.17l-0.07-0.22l-0.04-0.45l0.01-0.45l0.08-0.21l0.19-0.07l0.35-0.02l0.15-0.03
			l0.11-0.07l0.1-0.03l0.09,0.07l0.07,0.14l0.07,0.33l0.06,0.11l0.39,0.29l-0.09-0.5l-0.44-1.19l-0.12-1.48l0.24-0.27l0.79,0.03
			l-0.14,0.22l-0.25,0.12l0.14,0.24l0.2,0.27l0.24,0.21l0.25,0.09l0.24-0.1l0.06-0.23l-0.1-0.22l-0.27-0.1l0.24-0.32l0.18-0.04
			l0.21,0.04l-0.13-0.27l-0.15-0.26l-0.1-0.27l-0.01-0.35l0.34,0.25l0.39,0.02l0.75-0.1l0.77,0.17l0.15-0.09l-0.15-0.22l-0.26-0.23
			l-0.19-0.11v-0.18l0.24,0.01l0.22-0.02l0.23-0.05l0.2-0.09l-0.21-0.24l-0.8-0.42l0.35-0.33l1.01,0.36l0.43-0.19l-0.09-0.3
			l-0.88-0.68l-0.33-0.34l0.47-0.03l0.48-0.14l0.38-0.24l0.19-0.41h-0.6l-0.23-0.14l-0.05-0.36l0.43,0.08l0.52-0.19l0.36-0.37
			l-0.05-0.5v-0.02l-0.28,0.04l-0.61-0.02l-0.01-0.31l0.01-0.32l0.16,0.01l0.32-0.02l0.16,0.01l-0.07-0.2l-0.13-0.16l-0.13-0.12
			l0.9-0.42l0.37-0.35l-0.06-0.58l-0.24,0.25l-0.39,0.24l-0.42,0.14l-0.35-0.14l0.39-0.38l0.5-0.37l0.2-0.33l-0.48-0.22l0.21-0.16
			l0.4-0.36l0.17-0.13l0.21-0.05l0.17,0.01l0.18-0.04l0.39-0.03l0.11-0.17l0.01-0.39l0.02-0.35l0.12-0.15l0.22-0.12l-0.15-0.26
			l-0.26-0.17l-0.15,0.15l-0.18,0.44l-0.43,0.33l-0.46,0.06l-0.33-0.43l0.24-0.25l0.62-0.24l0.3-0.18l0.64-0.82l0.12-0.08l0.05-0.18
			l0.1-0.07l0.09-0.1l0.02-0.23l-0.05-0.15L255.1,150.03z"/>
	</g>
	<g>
		<circle class="st1" cx="236.97" cy="62.22" r="4.18"/>
	</g>
	<g>
		<polygon class="st2" points="236.62,62.57 217.05,42.93 193.18,42.93 193.18,41.93 217.47,41.93 217.61,42.07 237.33,61.87 		"/>
	</g>
	<g>
		<path d="M167.27,38.7h1.86v1.36h-1.86v0.4c0.46,0.46,1.57,1.82,1.81,2.16l-0.86,1.21c-0.22-0.42-0.58-1.01-0.95-1.56v5.15h-1.42
			v-4.77c-0.47,1.14-1.03,2.18-1.64,2.89c-0.14-0.42-0.5-1.02-0.76-1.4c0.91-0.97,1.76-2.59,2.21-4.07h-1.85V38.7h2.04V36.2h1.42
			V38.7z M172.91,45.8c0.49,0,0.58-0.44,0.66-2.21c0.34,0.26,0.9,0.53,1.28,0.61c-0.16,2.11-0.5,2.88-1.82,2.88h-1.74
			c-1.42,0-1.8-0.49-1.8-2.1v-8.66h1.43v8.67c0,0.7,0.07,0.8,0.55,0.8H172.91z"/>
		<path d="M181.23,43.47c0,0.44-0.05,0.83-0.3,1.04c-0.25,0.19-0.52,0.23-0.94,0.23c-0.01-0.32-0.16-0.86-0.32-1.19h0.46
			c0.07,0,0.1-0.02,0.1-0.12v-3.8h-0.55v7.74h-1.2v-7.74h-0.53v5.25h-1.03v-6.51h1.56v-2.18h1.2v2.18h1.56V43.47z M186.68,46.16
			c0.07,0,0.16,0,0.19-0.02c0.05-0.04,0.08-0.11,0.12-0.26c0.01-0.16,0.02-0.5,0.04-0.96c0.24,0.22,0.7,0.46,1.03,0.56
			c-0.04,0.48-0.08,1.01-0.17,1.21c-0.1,0.23-0.25,0.38-0.44,0.48c-0.18,0.1-0.48,0.14-0.71,0.14h-0.68c-0.31,0-0.66-0.1-0.86-0.3
			c-0.22-0.2-0.31-0.47-0.31-1.24V44h-0.82c-0.14,1.73-0.65,2.81-2.65,3.41c-0.12-0.31-0.44-0.82-0.72-1.07
			c1.63-0.41,1.99-1.1,2.11-2.34h-1.39v-1.2h2.47v-2.23h-2.18v-4.01h5.77v4.01h-2.22v2.23h2.52V44h-1.52v1.81
			c0,0.16,0.01,0.25,0.05,0.29c0.04,0.05,0.08,0.06,0.14,0.06H186.68z M182.7,40.72c0.3,0.49,0.64,1.19,0.76,1.62l-1.12,0.43
			c-0.1-0.44-0.41-1.15-0.7-1.69L182.7,40.72z M182.95,38.11h3.2v-0.6h-3.2V38.11z M182.95,39.61h3.2v-0.6h-3.2V39.61z M185.61,42.4
			c0.29-0.47,0.62-1.21,0.8-1.73l1.2,0.38c-0.31,0.64-0.66,1.27-0.94,1.71L185.61,42.4z"/>
	</g>
	<g>
		<circle class="st1" cx="135.3" cy="260.12" r="4.18"/>
	</g>
	<g>
		<polygon class="st2" points="134.82,260.25 113.76,181.78 90.07,181.78 90.07,180.78 114.53,180.78 135.79,259.99 		"/>
	</g>
	<g>
		<path d="M68.26,179.73c0.79,2.34,2.24,4.22,4.49,5.13c-0.36,0.3-0.83,0.94-1.06,1.34c-2.17-1.02-3.56-2.77-4.5-5.08
			c-0.65,2-1.94,3.87-4.49,5.1c-0.23-0.4-0.65-0.91-1.07-1.21c2.75-1.22,3.89-3.21,4.35-5.28h-4.13v-1.48h4.37
			c0.12-1.13,0.11-2.22,0.12-3.2h1.56c-0.01,0.98-0.02,2.09-0.14,3.2h4.71v1.48H68.26z"/>
		<path d="M78.69,176.04c-0.31,1.02-0.71,2.33-1.04,3.26c0.72,0.91,0.88,1.72,0.88,2.41c0,0.77-0.16,1.27-0.53,1.54
			c-0.19,0.13-0.42,0.2-0.7,0.25c-0.2,0.02-0.49,0.04-0.77,0.02c-0.01-0.34-0.12-0.88-0.31-1.21c0.22,0.01,0.37,0.01,0.53,0.01
			c0.13-0.01,0.24-0.04,0.34-0.11c0.13-0.1,0.18-0.34,0.18-0.67c0-0.55-0.16-1.29-0.83-2.1c0.24-0.76,0.49-1.8,0.68-2.61h-0.94v9.42
			h-1.24v-10.69h2.6l0.2-0.06L78.69,176.04z M85.23,179.01c-0.28,1.95-0.83,3.48-1.64,4.67c0.62,0.58,1.37,1.03,2.22,1.34
			c-0.31,0.29-0.72,0.84-0.92,1.21c-0.85-0.37-1.58-0.86-2.19-1.46c-0.64,0.61-1.37,1.1-2.21,1.49c-0.17-0.36-0.54-0.9-0.83-1.19
			c0.8-0.31,1.51-0.78,2.11-1.39c-0.52-0.72-0.94-1.56-1.27-2.48c-0.16,1.74-0.58,3.67-1.59,5.01c-0.22-0.25-0.78-0.71-1.08-0.85
			c1.31-1.75,1.42-4.32,1.42-6.16v-3.49h0.54v-0.01h0.65h0.16l4.8,0.01v1.28h-4.8v1.82h3.53l0.24-0.05L85.23,179.01z M81.42,180.09
			c0.29,0.91,0.68,1.76,1.21,2.49c0.44-0.72,0.79-1.55,1.02-2.49H81.42z"/>
	</g>
	<g>
		<circle class="st1" cx="216.59" cy="233.39" r="4.18"/>
	</g>
	<g>
		<polygon class="st2" points="217.03,233.63 216.15,233.15 233.48,201.59 284.27,201.59 284.27,202.59 234.08,202.59 		"/>
	</g>
	<g>
		<path d="M298.43,204.13c1.02,0.94,2.48,1.79,3.87,2.25c-0.34,0.29-0.79,0.86-1.02,1.24c-1.4-0.59-2.84-1.62-3.93-2.79v2.91h-1.47
			v-2.85c-1.08,1.15-2.47,2.12-3.86,2.71c-0.23-0.35-0.67-0.91-0.98-1.2c1.37-0.47,2.78-1.32,3.78-2.27h-2.42v-4.58h3.49v-0.68
			h-4.51v-1.33h4.51v-0.98h1.47v0.98h4.62v1.33h-4.62v0.68h3.66v4.58H298.43z M293.76,201.32h2.11v-0.71h-2.11V201.32z
			 M293.76,203.06h2.11v-0.73h-2.11V203.06z M297.35,200.61v0.71h2.21v-0.71H297.35z M299.55,202.33h-2.21v0.73h2.21V202.33z"/>
		<path d="M307.7,204.64c-0.6,0.96-1.49,2.01-2.33,2.66c-0.31-0.26-0.84-0.64-1.16-0.83c0.8-0.58,1.63-1.54,2.03-2.3L307.7,204.64z
			 M315.12,199.04h-10.57v-1.35h4.5v-1.15h1.51v1.15h4.56V199.04z M310.56,203.71v2.53c0,0.72-0.13,1.08-0.66,1.28
			c-0.53,0.2-1.24,0.22-2.2,0.22c-0.07-0.42-0.26-0.97-0.46-1.37c0.61,0.02,1.37,0.04,1.56,0.02c0.22-0.01,0.26-0.05,0.26-0.2v-2.48
			h-3.15v-3.83h7.93v3.83H310.56z M307.34,202.48h4.99v-1.37h-4.99V202.48z M313.17,204.18c0.74,0.74,1.71,1.82,2.17,2.53l-1.4,0.71
			c-0.41-0.7-1.32-1.81-2.08-2.61L313.17,204.18z"/>
		<path d="M317.34,201.85c0-1.79,0.5-3.27,1.34-4.65l0.83,0.35c-0.76,1.31-1.1,2.84-1.1,4.3c0,1.49,0.34,3,1.1,4.31l-0.83,0.35
			C317.84,205.12,317.34,203.66,317.34,201.85z"/>
		<path d="M328.07,200.3c0.94,1.8,2.47,3.45,4.19,4.35c-0.36,0.29-0.85,0.89-1.1,1.3c-0.7-0.43-1.35-0.97-1.96-1.61v1.37h-1.99v2.03
			h-1.5v-2.03h-2.06v-1.26c-0.58,0.6-1.21,1.12-1.87,1.54c-0.25-0.36-0.71-0.91-1.04-1.19c1.69-0.92,3.2-2.65,4.13-4.5h-3.66v-1.44
			h4.51v-2.31h1.5v2.31h4.54v1.44H328.07z M325.71,204.26v-2.61c-0.54,0.96-1.18,1.85-1.88,2.61H325.71z M329.11,204.26
			c-0.72-0.77-1.37-1.67-1.91-2.64v2.64H329.11z"/>
		<path d="M338.38,204.48c-0.25-0.34-0.66-0.82-1.07-1.26v4.52h-1.42v-4.14c-0.48,0.44-0.98,0.84-1.49,1.15
			c-0.12-0.38-0.46-1.08-0.67-1.36c1.31-0.71,2.57-1.97,3.35-3.35h-2.89v-1.29h1.7v-2.21h1.42v2.21h0.54l0.25-0.06l0.8,0.52
			c-0.36,0.91-0.84,1.77-1.42,2.57c0.58,0.47,1.5,1.3,1.75,1.54L338.38,204.48z M345.25,206v1.39h-6.79V206h2.77v-4.39h-2.28v-1.38
			h2.28v-3.59h1.46v3.59h2.27v1.38h-2.27V206H345.25z"/>
		<path d="M347.03,206.16c0.76-1.31,1.1-2.83,1.1-4.31c0-1.47-0.34-2.99-1.1-4.3l0.82-0.35c0.85,1.39,1.35,2.86,1.35,4.65
			c0,1.81-0.5,3.27-1.35,4.66L347.03,206.16z"/>
	</g>
	<g>
		<circle class="st1" cx="31.57" cy="290.61" r="4.18"/>
	</g>
	<g>
		<polygon class="st2" points="82.57,338.89 63.57,338.89 63.42,338.67 31.16,290.89 31.98,290.33 64.1,337.89 82.57,337.89 		"/>
	</g>
	<g>
		<path d="M93.87,338.58h6.38V344h-1.38v-0.46h-3.69v0.47h-1.31v-4.44l-0.56,0.77c-0.2-0.29-0.56-0.72-0.91-1.1v4.8H91v-3.98
			c-0.4,0.38-0.8,0.72-1.21,1c-0.12-0.38-0.44-1.09-0.66-1.36c1.19-0.73,2.34-1.99,3.05-3.36h-2.6v-1.28H91v-2.21h1.4v2.21h0.49
			l0.25-0.06l0.78,0.5c-0.3,0.86-0.73,1.69-1.22,2.46c0.32,0.25,0.84,0.7,1.18,1V338.58z M100.29,333.32v1.2H93.8v-1.2H100.29z
			 M99.73,335.04v3h-5.27v-3H99.73z M95.18,339.72v0.79h1.19v-0.79H95.18z M95.18,342.39h1.19v-0.82h-1.19V342.39z M98.41,336.11
			h-2.69v0.86h2.69V336.11z M98.88,339.72h-1.24v0.79h1.24V339.72z M98.88,342.39v-0.82h-1.24v0.82H98.88z"/>
		<path d="M113.11,342.49c0,0.71-0.14,1.07-0.59,1.31c-0.42,0.23-1.04,0.25-1.98,0.25c-0.06-0.37-0.26-0.97-0.46-1.33
			c0.55,0.04,1.16,0.04,1.35,0.02c0.19,0,0.26-0.06,0.26-0.26v-7.72h-2.02l1.06,0.25c-0.34,0.59-0.68,1.21-0.96,1.66h1.55v1.16
			h-2.75v2.79h0.97v-2.17h1.21v3.86h-1.21v-0.52h-3.2v0.71h-1.2v-4.05h1.2v2.17h0.95v-2.79h-2.58v-1.16h1.33
			c-0.12-0.46-0.38-1.08-0.68-1.52l1.09-0.38h-2.13v9.28h-1.39V333.4h10.17V342.49z M108.61,336.45c0.24-0.47,0.53-1.16,0.7-1.7
			h-2.79c0.36,0.49,0.67,1.17,0.79,1.64l-0.71,0.26h2.71L108.61,336.45z"/>
	</g>
</g>
</svg>
